  0
SECTION
  2
HEADER
  9
$ACADVER
  1
AC1009
  9
$EXTMIN
 10
0.0
 20
0.0
 30
0.0
  9
$EXTMAX
 10
1000.0
 20
1000.0
 30
0.0
  9
$FILLMODE
 70
 0
  9
$SPLFRAME
 70
 1
  0
ENDSEC
  0
SECTION
  2
TABLES
  0
TABLE
  2
LAYER
 70
1
  0
LAYER
  2
0
 70
     0
 62
     7
  6
CONTINUOUS
  0
ENDTAB
  0
ENDSEC
  0
SECTION
  2
ENTITIES
  0
LINE
  8
0
 62
     0
 10
313.894
 20
126.406
 30
0.0
 11
314.129
 21
126.396
 31
0.0
  0
LINE
  8
0
 62
     0
 10
314.129
 20
126.396
 30
0.0
 11
314.362
 21
126.369
 31
0.0
  0
LINE
  8
0
 62
     0
 10
314.362
 20
126.369
 30
0.0
 11
314.594
 21
126.323
 31
0.0
  0
LINE
  8
0
 62
     0
 10
314.594
 20
126.323
 30
0.0
 11
314.821
 21
126.258
 31
0.0
  0
LINE
  8
0
 62
     0
 10
314.821
 20
126.258
 30
0.0
 11
315.041
 21
126.179
 31
0.0
  0
LINE
  8
0
 62
     0
 10
315.041
 20
126.179
 30
0.0
 11
315.255
 21
126.08
 31
0.0
  0
LINE
  8
0
 62
     0
 10
315.255
 20
126.08
 30
0.0
 11
315.461
 21
125.964
 31
0.0
  0
LINE
  8
0
 62
     0
 10
315.461
 20
125.964
 30
0.0
 11
315.656
 21
125.833
 31
0.0
  0
LINE
  8
0
 62
     0
 10
315.656
 20
125.833
 30
0.0
 11
315.842
 21
125.687
 31
0.0
  0
LINE
  8
0
 62
     0
 10
315.842
 20
125.687
 30
0.0
 11
316.014
 21
125.527
 31
0.0
  0
LINE
  8
0
 62
     0
 10
316.014
 20
125.527
 30
0.0
 11
316.174
 21
125.355
 31
0.0
  0
LINE
  8
0
 62
     0
 10
316.174
 20
125.355
 30
0.0
 11
316.32
 21
125.169
 31
0.0
  0
LINE
  8
0
 62
     0
 10
316.32
 20
125.169
 30
0.0
 11
316.451
 21
124.973
 31
0.0
  0
LINE
  8
0
 62
     0
 10
316.451
 20
124.973
 30
0.0
 11
316.567
 21
124.768
 31
0.0
  0
LINE
  8
0
 62
     0
 10
316.567
 20
124.768
 30
0.0
 11
316.666
 21
124.554
 31
0.0
  0
LINE
  8
0
 62
     0
 10
316.666
 20
124.554
 30
0.0
 11
316.746
 21
124.333
 31
0.0
  0
LINE
  8
0
 62
     0
 10
316.746
 20
124.333
 30
0.0
 11
316.811
 21
124.106
 31
0.0
  0
LINE
  8
0
 62
     0
 10
316.811
 20
124.106
 30
0.0
 11
316.857
 21
123.875
 31
0.0
  0
LINE
  8
0
 62
     0
 10
316.857
 20
123.875
 30
0.0
 11
316.885
 21
123.64
 31
0.0
  0
LINE
  8
0
 62
     0
 10
316.885
 20
123.64
 30
0.0
 11
316.894
 21
123.406
 31
0.0
  0
LINE
  8
0
 62
     0
 10
316.894
 20
123.406
 30
0.0
 11
316.894
 21
3.1061
 31
0.0
  0
LINE
  8
0
 62
     0
 10
316.894
 20
3.1061
 30
0.0
 11
316.885
 21
2.87045
 31
0.0
  0
LINE
  8
0
 62
     0
 10
316.885
 20
2.87045
 30
0.0
 11
316.857
 21
2.63756
 31
0.0
  0
LINE
  8
0
 62
     0
 10
316.857
 20
2.63756
 30
0.0
 11
316.811
 21
2.40605
 31
0.0
  0
LINE
  8
0
 62
     0
 10
316.811
 20
2.40605
 30
0.0
 11
316.746
 21
2.17868
 31
0.0
  0
LINE
  8
0
 62
     0
 10
316.746
 20
2.17868
 30
0.0
 11
316.666
 21
1.95819
 31
0.0
  0
LINE
  8
0
 62
     0
 10
316.666
 20
1.95819
 30
0.0
 11
316.567
 21
1.7446
 31
0.0
  0
LINE
  8
0
 62
     0
 10
316.567
 20
1.7446
 30
0.0
 11
316.451
 21
1.53927
 31
0.0
  0
LINE
  8
0
 62
     0
 10
316.451
 20
1.53927
 30
0.0
 11
316.32
 21
1.34359
 31
0.0
  0
LINE
  8
0
 62
     0
 10
316.32
 20
1.34359
 30
0.0
 11
316.174
 21
1.15755
 31
0.0
  0
LINE
  8
0
 62
     0
 10
316.174
 20
1.15755
 30
0.0
 11
316.014
 21
0.985298
 31
0.0
  0
LINE
  8
0
 62
     0
 10
316.014
 20
0.985298
 30
0.0
 11
315.842
 21
0.825444
 31
0.0
  0
LINE
  8
0
 62
     0
 10
315.842
 20
0.825444
 30
0.0
 11
315.656
 21
0.679372
 31
0.0
  0
LINE
  8
0
 62
     0
 10
315.656
 20
0.679372
 30
0.0
 11
315.461
 21
0.54846
 31
0.0
  0
LINE
  8
0
 62
     0
 10
315.461
 20
0.54846
 30
0.0
 11
315.255
 21
0.432703
 31
0.0
  0
LINE
  8
0
 62
     0
 10
315.255
 20
0.432703
 30
0.0
 11
315.041
 21
0.333485
 31
0.0
  0
LINE
  8
0
 62
     0
 10
315.041
 20
0.333485
 30
0.0
 11
314.821
 21
0.253559
 31
0.0
  0
LINE
  8
0
 62
     0
 10
314.821
 20
0.253559
 30
0.0
 11
314.594
 21
0.188791
 31
0.0
  0
LINE
  8
0
 62
     0
 10
314.594
 20
0.188791
 30
0.0
 11
314.362
 21
0.143316
 31
0.0
  0
LINE
  8
0
 62
     0
 10
314.362
 20
0.143316
 30
0.0
 11
314.129
 21
0.114377
 31
0.0
  0
LINE
  8
0
 62
     0
 10
314.129
 20
0.114377
 30
0.0
 11
313.894
 21
0.106109
 31
0.0
  0
LINE
  8
0
 62
     0
 10
313.894
 20
0.106109
 30
0.0
 11
3.0937
 21
0.106109
 31
0.0
  0
LINE
  8
0
 62
     0
 10
3.0937
 20
0.106109
 30
0.0
 11
2.85943
 21
0.114377
 31
0.0
  0
LINE
  8
0
 62
     0
 10
2.85943
 20
0.114377
 30
0.0
 11
2.62516
 21
0.143316
 31
0.0
  0
LINE
  8
0
 62
     0
 10
2.62516
 20
0.143316
 30
0.0
 11
2.39365
 21
0.188791
 31
0.0
  0
LINE
  8
0
 62
     0
 10
2.39365
 20
0.188791
 30
0.0
 11
2.16628
 21
0.253559
 31
0.0
  0
LINE
  8
0
 62
     0
 10
2.16628
 20
0.253559
 30
0.0
 11
1.94579
 21
0.333485
 31
0.0
  0
LINE
  8
0
 62
     0
 10
1.94579
 20
0.333485
 30
0.0
 11
1.7322
 21
0.432703
 31
0.0
  0
LINE
  8
0
 62
     0
 10
1.7322
 20
0.432703
 30
0.0
 11
1.52687
 21
0.54846
 31
0.0
  0
LINE
  8
0
 62
     0
 10
1.52687
 20
0.54846
 30
0.0
 11
1.33119
 21
0.679372
 31
0.0
  0
LINE
  8
0
 62
     0
 10
1.33119
 20
0.679372
 30
0.0
 11
1.14515
 21
0.825444
 31
0.0
  0
LINE
  8
0
 62
     0
 10
1.14515
 20
0.825444
 30
0.0
 11
0.972894
 21
0.985298
 31
0.0
  0
LINE
  8
0
 62
     0
 10
0.972894
 20
0.985298
 30
0.0
 11
0.813043
 21
1.15755
 31
0.0
  0
LINE
  8
0
 62
     0
 10
0.813043
 20
1.15755
 30
0.0
 11
0.666972
 21
1.34359
 31
0.0
  0
LINE
  8
0
 62
     0
 10
0.666972
 20
1.34359
 30
0.0
 11
0.536056
 21
1.53927
 31
0.0
  0
LINE
  8
0
 62
     0
 10
0.536056
 20
1.53927
 30
0.0
 11
0.420303
 21
1.7446
 31
0.0
  0
LINE
  8
0
 62
     0
 10
0.420303
 20
1.7446
 30
0.0
 11
0.321083
 21
1.95819
 31
0.0
  0
LINE
  8
0
 62
     0
 10
0.321083
 20
1.95819
 30
0.0
 11
0.241157
 21
2.17868
 31
0.0
  0
LINE
  8
0
 62
     0
 10
0.241157
 20
2.17868
 30
0.0
 11
0.176389
 21
2.40605
 31
0.0
  0
LINE
  8
0
 62
     0
 10
0.176389
 20
2.40605
 30
0.0
 11
0.130914
 21
2.63756
 31
0.0
  0
LINE
  8
0
 62
     0
 10
0.130914
 20
2.63756
 30
0.0
 11
0.103353
 21
2.87045
 31
0.0
  0
LINE
  8
0
 62
     0
 10
0.103353
 20
2.87045
 30
0.0
 11
0.0937066
 21
3.1061
 31
0.0
  0
LINE
  8
0
 62
     0
 10
0.0937066
 20
3.1061
 30
0.0
 11
0.0937066
 21
123.406
 31
0.0
  0
LINE
  8
0
 62
     0
 10
0.0937066
 20
123.406
 30
0.0
 11
0.103353
 21
123.64
 31
0.0
  0
LINE
  8
0
 62
     0
 10
0.103353
 20
123.64
 30
0.0
 11
0.130914
 21
123.875
 31
0.0
  0
LINE
  8
0
 62
     0
 10
0.130914
 20
123.875
 30
0.0
 11
0.176389
 21
124.106
 31
0.0
  0
LINE
  8
0
 62
     0
 10
0.176389
 20
124.106
 30
0.0
 11
0.241157
 21
124.333
 31
0.0
  0
LINE
  8
0
 62
     0
 10
0.241157
 20
124.333
 30
0.0
 11
0.321083
 21
124.554
 31
0.0
  0
LINE
  8
0
 62
     0
 10
0.321083
 20
124.554
 30
0.0
 11
0.420303
 21
124.768
 31
0.0
  0
LINE
  8
0
 62
     0
 10
0.420303
 20
124.768
 30
0.0
 11
0.536056
 21
124.973
 31
0.0
  0
LINE
  8
0
 62
     0
 10
0.536056
 20
124.973
 30
0.0
 11
0.666972
 21
125.169
 31
0.0
  0
LINE
  8
0
 62
     0
 10
0.666972
 20
125.169
 30
0.0
 11
0.813043
 21
125.355
 31
0.0
  0
LINE
  8
0
 62
     0
 10
0.813043
 20
125.355
 30
0.0
 11
0.972894
 21
125.527
 31
0.0
  0
LINE
  8
0
 62
     0
 10
0.972894
 20
125.527
 30
0.0
 11
1.14515
 21
125.687
 31
0.0
  0
LINE
  8
0
 62
     0
 10
1.14515
 20
125.687
 30
0.0
 11
1.33119
 21
125.833
 31
0.0
  0
LINE
  8
0
 62
     0
 10
1.33119
 20
125.833
 30
0.0
 11
1.52687
 21
125.964
 31
0.0
  0
LINE
  8
0
 62
     0
 10
1.52687
 20
125.964
 30
0.0
 11
1.7322
 21
126.08
 31
0.0
  0
LINE
  8
0
 62
     0
 10
1.7322
 20
126.08
 30
0.0
 11
1.94579
 21
126.179
 31
0.0
  0
LINE
  8
0
 62
     0
 10
1.94579
 20
126.179
 30
0.0
 11
2.16628
 21
126.258
 31
0.0
  0
LINE
  8
0
 62
     0
 10
2.16628
 20
126.258
 30
0.0
 11
2.39365
 21
126.323
 31
0.0
  0
LINE
  8
0
 62
     0
 10
2.39365
 20
126.323
 30
0.0
 11
2.62516
 21
126.369
 31
0.0
  0
LINE
  8
0
 62
     0
 10
2.62516
 20
126.369
 30
0.0
 11
2.85943
 21
126.396
 31
0.0
  0
LINE
  8
0
 62
     0
 10
2.85943
 20
126.396
 30
0.0
 11
3.0937
 21
126.406
 31
0.0
  0
LINE
  8
0
 62
     0
 10
3.0937
 20
126.406
 30
0.0
 11
313.894
 21
126.406
 31
0.0
  0
LINE
  8
0
 62
     0
 10
106.693
 20
124.906
 30
0.0
 11
107.158
 21
124.832
 31
0.0
  0
LINE
  8
0
 62
     0
 10
107.158
 20
124.832
 30
0.0
 11
107.575
 21
124.62
 31
0.0
  0
LINE
  8
0
 62
     0
 10
107.575
 20
124.62
 30
0.0
 11
107.907
 21
124.288
 31
0.0
  0
LINE
  8
0
 62
     0
 10
107.907
 20
124.288
 30
0.0
 11
108.121
 21
123.871
 31
0.0
  0
LINE
  8
0
 62
     0
 10
108.121
 20
123.871
 30
0.0
 11
108.194
 21
123.406
 31
0.0
  0
LINE
  8
0
 62
     0
 10
108.194
 20
123.406
 30
0.0
 11
108.121
 21
122.942
 31
0.0
  0
LINE
  8
0
 62
     0
 10
108.121
 20
122.942
 30
0.0
 11
107.907
 21
122.524
 31
0.0
  0
LINE
  8
0
 62
     0
 10
107.907
 20
122.524
 30
0.0
 11
107.575
 21
122.192
 31
0.0
  0
LINE
  8
0
 62
     0
 10
107.575
 20
122.192
 30
0.0
 11
107.158
 21
121.979
 31
0.0
  0
LINE
  8
0
 62
     0
 10
107.158
 20
121.979
 30
0.0
 11
106.693
 21
121.906
 31
0.0
  0
LINE
  8
0
 62
     0
 10
106.693
 20
121.906
 30
0.0
 11
106.23
 21
121.979
 31
0.0
  0
LINE
  8
0
 62
     0
 10
106.23
 20
121.979
 30
0.0
 11
105.811
 21
122.192
 31
0.0
  0
LINE
  8
0
 62
     0
 10
105.811
 20
122.192
 30
0.0
 11
105.479
 21
122.524
 31
0.0
  0
LINE
  8
0
 62
     0
 10
105.479
 20
122.524
 30
0.0
 11
105.267
 21
122.942
 31
0.0
  0
LINE
  8
0
 62
     0
 10
105.267
 20
122.942
 30
0.0
 11
105.194
 21
123.406
 31
0.0
  0
LINE
  8
0
 62
     0
 10
105.194
 20
123.406
 30
0.0
 11
105.267
 21
123.871
 31
0.0
  0
LINE
  8
0
 62
     0
 10
105.267
 20
123.871
 30
0.0
 11
105.479
 21
124.288
 31
0.0
  0
LINE
  8
0
 62
     0
 10
105.479
 20
124.288
 30
0.0
 11
105.811
 21
124.62
 31
0.0
  0
LINE
  8
0
 62
     0
 10
105.811
 20
124.62
 30
0.0
 11
106.23
 21
124.832
 31
0.0
  0
LINE
  8
0
 62
     0
 10
106.23
 20
124.832
 30
0.0
 11
106.693
 21
124.906
 31
0.0
  0
LINE
  8
0
 62
     0
 10
210.294
 20
124.906
 30
0.0
 11
210.757
 21
124.832
 31
0.0
  0
LINE
  8
0
 62
     0
 10
210.757
 20
124.832
 30
0.0
 11
211.176
 21
124.62
 31
0.0
  0
LINE
  8
0
 62
     0
 10
211.176
 20
124.62
 30
0.0
 11
211.508
 21
124.288
 31
0.0
  0
LINE
  8
0
 62
     0
 10
211.508
 20
124.288
 30
0.0
 11
211.72
 21
123.871
 31
0.0
  0
LINE
  8
0
 62
     0
 10
211.72
 20
123.871
 30
0.0
 11
211.793
 21
123.406
 31
0.0
  0
LINE
  8
0
 62
     0
 10
211.793
 20
123.406
 30
0.0
 11
211.72
 21
122.942
 31
0.0
  0
LINE
  8
0
 62
     0
 10
211.72
 20
122.942
 30
0.0
 11
211.508
 21
122.524
 31
0.0
  0
LINE
  8
0
 62
     0
 10
211.508
 20
122.524
 30
0.0
 11
211.176
 21
122.192
 31
0.0
  0
LINE
  8
0
 62
     0
 10
211.176
 20
122.192
 30
0.0
 11
210.757
 21
121.979
 31
0.0
  0
LINE
  8
0
 62
     0
 10
210.757
 20
121.979
 30
0.0
 11
210.294
 21
121.906
 31
0.0
  0
LINE
  8
0
 62
     0
 10
210.294
 20
121.906
 30
0.0
 11
209.83
 21
121.979
 31
0.0
  0
LINE
  8
0
 62
     0
 10
209.83
 20
121.979
 30
0.0
 11
209.412
 21
122.192
 31
0.0
  0
LINE
  8
0
 62
     0
 10
209.412
 20
122.192
 30
0.0
 11
209.08
 21
122.524
 31
0.0
  0
LINE
  8
0
 62
     0
 10
209.08
 20
122.524
 30
0.0
 11
208.867
 21
122.942
 31
0.0
  0
LINE
  8
0
 62
     0
 10
208.867
 20
122.942
 30
0.0
 11
208.793
 21
123.406
 31
0.0
  0
LINE
  8
0
 62
     0
 10
208.793
 20
123.406
 30
0.0
 11
208.867
 21
123.871
 31
0.0
  0
LINE
  8
0
 62
     0
 10
208.867
 20
123.871
 30
0.0
 11
209.08
 21
124.288
 31
0.0
  0
LINE
  8
0
 62
     0
 10
209.08
 20
124.288
 30
0.0
 11
209.412
 21
124.62
 31
0.0
  0
LINE
  8
0
 62
     0
 10
209.412
 20
124.62
 30
0.0
 11
209.83
 21
124.832
 31
0.0
  0
LINE
  8
0
 62
     0
 10
209.83
 20
124.832
 30
0.0
 11
210.294
 21
124.906
 31
0.0
  0
LINE
  8
0
 62
     0
 10
313.894
 20
124.906
 30
0.0
 11
314.358
 21
124.832
 31
0.0
  0
LINE
  8
0
 62
     0
 10
314.358
 20
124.832
 30
0.0
 11
314.775
 21
124.62
 31
0.0
  0
LINE
  8
0
 62
     0
 10
314.775
 20
124.62
 30
0.0
 11
315.108
 21
124.288
 31
0.0
  0
LINE
  8
0
 62
     0
 10
315.108
 20
124.288
 30
0.0
 11
315.321
 21
123.871
 31
0.0
  0
LINE
  8
0
 62
     0
 10
315.321
 20
123.871
 30
0.0
 11
315.394
 21
123.406
 31
0.0
  0
LINE
  8
0
 62
     0
 10
315.394
 20
123.406
 30
0.0
 11
315.321
 21
122.942
 31
0.0
  0
LINE
  8
0
 62
     0
 10
315.321
 20
122.942
 30
0.0
 11
315.108
 21
122.524
 31
0.0
  0
LINE
  8
0
 62
     0
 10
315.108
 20
122.524
 30
0.0
 11
314.775
 21
122.192
 31
0.0
  0
LINE
  8
0
 62
     0
 10
314.775
 20
122.192
 30
0.0
 11
314.358
 21
121.979
 31
0.0
  0
LINE
  8
0
 62
     0
 10
314.358
 20
121.979
 30
0.0
 11
313.894
 21
121.906
 31
0.0
  0
LINE
  8
0
 62
     0
 10
313.894
 20
121.906
 30
0.0
 11
313.429
 21
121.979
 31
0.0
  0
LINE
  8
0
 62
     0
 10
313.429
 20
121.979
 30
0.0
 11
313.012
 21
122.192
 31
0.0
  0
LINE
  8
0
 62
     0
 10
313.012
 20
122.192
 30
0.0
 11
312.68
 21
122.524
 31
0.0
  0
LINE
  8
0
 62
     0
 10
312.68
 20
122.524
 30
0.0
 11
312.467
 21
122.942
 31
0.0
  0
LINE
  8
0
 62
     0
 10
312.467
 20
122.942
 30
0.0
 11
312.394
 21
123.406
 31
0.0
  0
LINE
  8
0
 62
     0
 10
312.394
 20
123.406
 30
0.0
 11
312.467
 21
123.871
 31
0.0
  0
LINE
  8
0
 62
     0
 10
312.467
 20
123.871
 30
0.0
 11
312.68
 21
124.288
 31
0.0
  0
LINE
  8
0
 62
     0
 10
312.68
 20
124.288
 30
0.0
 11
313.012
 21
124.62
 31
0.0
  0
LINE
  8
0
 62
     0
 10
313.012
 20
124.62
 30
0.0
 11
313.429
 21
124.832
 31
0.0
  0
LINE
  8
0
 62
     0
 10
313.429
 20
124.832
 30
0.0
 11
313.894
 21
124.906
 31
0.0
  0
LINE
  8
0
 62
     0
 10
313.894
 20
4.60541
 30
0.0
 11
314.358
 21
4.53238
 31
0.0
  0
LINE
  8
0
 62
     0
 10
314.358
 20
4.53238
 30
0.0
 11
314.775
 21
4.32015
 31
0.0
  0
LINE
  8
0
 62
     0
 10
314.775
 20
4.32015
 30
0.0
 11
315.108
 21
3.98805
 31
0.0
  0
LINE
  8
0
 62
     0
 10
315.108
 20
3.98805
 30
0.0
 11
315.321
 21
3.5705
 31
0.0
  0
LINE
  8
0
 62
     0
 10
315.321
 20
3.5705
 30
0.0
 11
315.394
 21
3.1061
 31
0.0
  0
LINE
  8
0
 62
     0
 10
315.394
 20
3.1061
 30
0.0
 11
315.321
 21
2.6417
 31
0.0
  0
LINE
  8
0
 62
     0
 10
315.321
 20
2.6417
 30
0.0
 11
315.108
 21
2.22415
 31
0.0
  0
LINE
  8
0
 62
     0
 10
315.108
 20
2.22415
 30
0.0
 11
314.775
 21
1.89205
 31
0.0
  0
LINE
  8
0
 62
     0
 10
314.775
 20
1.89205
 30
0.0
 11
314.358
 21
1.67845
 31
0.0
  0
LINE
  8
0
 62
     0
 10
314.358
 20
1.67845
 30
0.0
 11
313.894
 21
1.60541
 31
0.0
  0
LINE
  8
0
 62
     0
 10
313.894
 20
1.60541
 30
0.0
 11
313.429
 21
1.67845
 31
0.0
  0
LINE
  8
0
 62
     0
 10
313.429
 20
1.67845
 30
0.0
 11
313.012
 21
1.89205
 31
0.0
  0
LINE
  8
0
 62
     0
 10
313.012
 20
1.89205
 30
0.0
 11
312.68
 21
2.22415
 31
0.0
  0
LINE
  8
0
 62
     0
 10
312.68
 20
2.22415
 30
0.0
 11
312.467
 21
2.6417
 31
0.0
  0
LINE
  8
0
 62
     0
 10
312.467
 20
2.6417
 30
0.0
 11
312.394
 21
3.1061
 31
0.0
  0
LINE
  8
0
 62
     0
 10
312.394
 20
3.1061
 30
0.0
 11
312.467
 21
3.5705
 31
0.0
  0
LINE
  8
0
 62
     0
 10
312.467
 20
3.5705
 30
0.0
 11
312.68
 21
3.98805
 31
0.0
  0
LINE
  8
0
 62
     0
 10
312.68
 20
3.98805
 30
0.0
 11
313.012
 21
4.32015
 31
0.0
  0
LINE
  8
0
 62
     0
 10
313.012
 20
4.32015
 30
0.0
 11
313.429
 21
4.53238
 31
0.0
  0
LINE
  8
0
 62
     0
 10
313.429
 20
4.53238
 30
0.0
 11
313.894
 21
4.60541
 31
0.0
  0
LINE
  8
0
 62
     0
 10
210.294
 20
4.60541
 30
0.0
 11
210.757
 21
4.53238
 31
0.0
  0
LINE
  8
0
 62
     0
 10
210.757
 20
4.53238
 30
0.0
 11
211.176
 21
4.32015
 31
0.0
  0
LINE
  8
0
 62
     0
 10
211.176
 20
4.32015
 30
0.0
 11
211.508
 21
3.98805
 31
0.0
  0
LINE
  8
0
 62
     0
 10
211.508
 20
3.98805
 30
0.0
 11
211.72
 21
3.5705
 31
0.0
  0
LINE
  8
0
 62
     0
 10
211.72
 20
3.5705
 30
0.0
 11
211.793
 21
3.1061
 31
0.0
  0
LINE
  8
0
 62
     0
 10
211.793
 20
3.1061
 30
0.0
 11
211.72
 21
2.6417
 31
0.0
  0
LINE
  8
0
 62
     0
 10
211.72
 20
2.6417
 30
0.0
 11
211.508
 21
2.22415
 31
0.0
  0
LINE
  8
0
 62
     0
 10
211.508
 20
2.22415
 30
0.0
 11
211.176
 21
1.89205
 31
0.0
  0
LINE
  8
0
 62
     0
 10
211.176
 20
1.89205
 30
0.0
 11
210.757
 21
1.67845
 31
0.0
  0
LINE
  8
0
 62
     0
 10
210.757
 20
1.67845
 30
0.0
 11
210.294
 21
1.60541
 31
0.0
  0
LINE
  8
0
 62
     0
 10
210.294
 20
1.60541
 30
0.0
 11
209.83
 21
1.67845
 31
0.0
  0
LINE
  8
0
 62
     0
 10
209.83
 20
1.67845
 30
0.0
 11
209.412
 21
1.89205
 31
0.0
  0
LINE
  8
0
 62
     0
 10
209.412
 20
1.89205
 30
0.0
 11
209.08
 21
2.22415
 31
0.0
  0
LINE
  8
0
 62
     0
 10
209.08
 20
2.22415
 30
0.0
 11
208.867
 21
2.6417
 31
0.0
  0
LINE
  8
0
 62
     0
 10
208.867
 20
2.6417
 30
0.0
 11
208.793
 21
3.1061
 31
0.0
  0
LINE
  8
0
 62
     0
 10
208.793
 20
3.1061
 30
0.0
 11
208.867
 21
3.5705
 31
0.0
  0
LINE
  8
0
 62
     0
 10
208.867
 20
3.5705
 30
0.0
 11
209.08
 21
3.98805
 31
0.0
  0
LINE
  8
0
 62
     0
 10
209.08
 20
3.98805
 30
0.0
 11
209.412
 21
4.32015
 31
0.0
  0
LINE
  8
0
 62
     0
 10
209.412
 20
4.32015
 30
0.0
 11
209.83
 21
4.53238
 31
0.0
  0
LINE
  8
0
 62
     0
 10
209.83
 20
4.53238
 30
0.0
 11
210.294
 21
4.60541
 31
0.0
  0
LINE
  8
0
 62
     0
 10
106.693
 20
4.60541
 30
0.0
 11
107.158
 21
4.53238
 31
0.0
  0
LINE
  8
0
 62
     0
 10
107.158
 20
4.53238
 30
0.0
 11
107.575
 21
4.32015
 31
0.0
  0
LINE
  8
0
 62
     0
 10
107.575
 20
4.32015
 30
0.0
 11
107.907
 21
3.98805
 31
0.0
  0
LINE
  8
0
 62
     0
 10
107.907
 20
3.98805
 30
0.0
 11
108.121
 21
3.5705
 31
0.0
  0
LINE
  8
0
 62
     0
 10
108.121
 20
3.5705
 30
0.0
 11
108.194
 21
3.1061
 31
0.0
  0
LINE
  8
0
 62
     0
 10
108.194
 20
3.1061
 30
0.0
 11
108.121
 21
2.6417
 31
0.0
  0
LINE
  8
0
 62
     0
 10
108.121
 20
2.6417
 30
0.0
 11
107.907
 21
2.22415
 31
0.0
  0
LINE
  8
0
 62
     0
 10
107.907
 20
2.22415
 30
0.0
 11
107.575
 21
1.89205
 31
0.0
  0
LINE
  8
0
 62
     0
 10
107.575
 20
1.89205
 30
0.0
 11
107.158
 21
1.67845
 31
0.0
  0
LINE
  8
0
 62
     0
 10
107.158
 20
1.67845
 30
0.0
 11
106.693
 21
1.60541
 31
0.0
  0
LINE
  8
0
 62
     0
 10
106.693
 20
1.60541
 30
0.0
 11
106.23
 21
1.67845
 31
0.0
  0
LINE
  8
0
 62
     0
 10
106.23
 20
1.67845
 30
0.0
 11
105.811
 21
1.89205
 31
0.0
  0
LINE
  8
0
 62
     0
 10
105.811
 20
1.89205
 30
0.0
 11
105.479
 21
2.22415
 31
0.0
  0
LINE
  8
0
 62
     0
 10
105.479
 20
2.22415
 30
0.0
 11
105.267
 21
2.6417
 31
0.0
  0
LINE
  8
0
 62
     0
 10
105.267
 20
2.6417
 30
0.0
 11
105.194
 21
3.1061
 31
0.0
  0
LINE
  8
0
 62
     0
 10
105.194
 20
3.1061
 30
0.0
 11
105.267
 21
3.5705
 31
0.0
  0
LINE
  8
0
 62
     0
 10
105.267
 20
3.5705
 30
0.0
 11
105.479
 21
3.98805
 31
0.0
  0
LINE
  8
0
 62
     0
 10
105.479
 20
3.98805
 30
0.0
 11
105.811
 21
4.32015
 31
0.0
  0
LINE
  8
0
 62
     0
 10
105.811
 20
4.32015
 30
0.0
 11
106.23
 21
4.53238
 31
0.0
  0
LINE
  8
0
 62
     0
 10
106.23
 20
4.53238
 30
0.0
 11
106.693
 21
4.60541
 31
0.0
  0
LINE
  8
0
 62
     0
 10
3.0937
 20
4.60541
 30
0.0
 11
3.55808
 21
4.53238
 31
0.0
  0
LINE
  8
0
 62
     0
 10
3.55808
 20
4.53238
 30
0.0
 11
3.97563
 21
4.32015
 31
0.0
  0
LINE
  8
0
 62
     0
 10
3.97563
 20
4.32015
 30
0.0
 11
4.30773
 21
3.98805
 31
0.0
  0
LINE
  8
0
 62
     0
 10
4.30773
 20
3.98805
 30
0.0
 11
4.52134
 21
3.5705
 31
0.0
  0
LINE
  8
0
 62
     0
 10
4.52134
 20
3.5705
 30
0.0
 11
4.59437
 21
3.1061
 31
0.0
  0
LINE
  8
0
 62
     0
 10
4.59437
 20
3.1061
 30
0.0
 11
4.52134
 21
2.6417
 31
0.0
  0
LINE
  8
0
 62
     0
 10
4.52134
 20
2.6417
 30
0.0
 11
4.30773
 21
2.22415
 31
0.0
  0
LINE
  8
0
 62
     0
 10
4.30773
 20
2.22415
 30
0.0
 11
3.97563
 21
1.89205
 31
0.0
  0
LINE
  8
0
 62
     0
 10
3.97563
 20
1.89205
 30
0.0
 11
3.55808
 21
1.67845
 31
0.0
  0
LINE
  8
0
 62
     0
 10
3.55808
 20
1.67845
 30
0.0
 11
3.0937
 21
1.60541
 31
0.0
  0
LINE
  8
0
 62
     0
 10
3.0937
 20
1.60541
 30
0.0
 11
2.6293
 21
1.67845
 31
0.0
  0
LINE
  8
0
 62
     0
 10
2.6293
 20
1.67845
 30
0.0
 11
2.21175
 21
1.89205
 31
0.0
  0
LINE
  8
0
 62
     0
 10
2.21175
 20
1.89205
 30
0.0
 11
1.87965
 21
2.22415
 31
0.0
  0
LINE
  8
0
 62
     0
 10
1.87965
 20
2.22415
 30
0.0
 11
1.66743
 21
2.6417
 31
0.0
  0
LINE
  8
0
 62
     0
 10
1.66743
 20
2.6417
 30
0.0
 11
1.59439
 21
3.1061
 31
0.0
  0
LINE
  8
0
 62
     0
 10
1.59439
 20
3.1061
 30
0.0
 11
1.66743
 21
3.5705
 31
0.0
  0
LINE
  8
0
 62
     0
 10
1.66743
 20
3.5705
 30
0.0
 11
1.87965
 21
3.98805
 31
0.0
  0
LINE
  8
0
 62
     0
 10
1.87965
 20
3.98805
 30
0.0
 11
2.21175
 21
4.32015
 31
0.0
  0
LINE
  8
0
 62
     0
 10
2.21175
 20
4.32015
 30
0.0
 11
2.6293
 21
4.53238
 31
0.0
  0
LINE
  8
0
 62
     0
 10
2.6293
 20
4.53238
 30
0.0
 11
3.0937
 21
4.60541
 31
0.0
  0
LINE
  8
0
 62
     0
 10
3.0937
 20
124.906
 30
0.0
 11
3.55808
 21
124.832
 31
0.0
  0
LINE
  8
0
 62
     0
 10
3.55808
 20
124.832
 30
0.0
 11
3.97563
 21
124.62
 31
0.0
  0
LINE
  8
0
 62
     0
 10
3.97563
 20
124.62
 30
0.0
 11
4.30773
 21
124.288
 31
0.0
  0
LINE
  8
0
 62
     0
 10
4.30773
 20
124.288
 30
0.0
 11
4.52134
 21
123.871
 31
0.0
  0
LINE
  8
0
 62
     0
 10
4.52134
 20
123.871
 30
0.0
 11
4.59437
 21
123.406
 31
0.0
  0
LINE
  8
0
 62
     0
 10
4.59437
 20
123.406
 30
0.0
 11
4.52134
 21
122.942
 31
0.0
  0
LINE
  8
0
 62
     0
 10
4.52134
 20
122.942
 30
0.0
 11
4.30773
 21
122.524
 31
0.0
  0
LINE
  8
0
 62
     0
 10
4.30773
 20
122.524
 30
0.0
 11
3.97563
 21
122.192
 31
0.0
  0
LINE
  8
0
 62
     0
 10
3.97563
 20
122.192
 30
0.0
 11
3.55808
 21
121.979
 31
0.0
  0
LINE
  8
0
 62
     0
 10
3.55808
 20
121.979
 30
0.0
 11
3.0937
 21
121.906
 31
0.0
  0
LINE
  8
0
 62
     0
 10
3.0937
 20
121.906
 30
0.0
 11
2.6293
 21
121.979
 31
0.0
  0
LINE
  8
0
 62
     0
 10
2.6293
 20
121.979
 30
0.0
 11
2.21175
 21
122.192
 31
0.0
  0
LINE
  8
0
 62
     0
 10
2.21175
 20
122.192
 30
0.0
 11
1.87965
 21
122.524
 31
0.0
  0
LINE
  8
0
 62
     0
 10
1.87965
 20
122.524
 30
0.0
 11
1.66743
 21
122.942
 31
0.0
  0
LINE
  8
0
 62
     0
 10
1.66743
 20
122.942
 30
0.0
 11
1.59439
 21
123.406
 31
0.0
  0
LINE
  8
0
 62
     0
 10
1.59439
 20
123.406
 30
0.0
 11
1.66743
 21
123.871
 31
0.0
  0
LINE
  8
0
 62
     0
 10
1.66743
 20
123.871
 30
0.0
 11
1.87965
 21
124.288
 31
0.0
  0
LINE
  8
0
 62
     0
 10
1.87965
 20
124.288
 30
0.0
 11
2.21175
 21
124.62
 31
0.0
  0
LINE
  8
0
 62
     0
 10
2.21175
 20
124.62
 30
0.0
 11
2.6293
 21
124.832
 31
0.0
  0
LINE
  8
0
 62
     0
 10
2.6293
 20
124.832
 30
0.0
 11
3.0937
 21
124.906
 31
0.0
  0
ENDSEC
  0
EOF
