  0
SECTION
  2
HEADER
  9
$ACADVER
  1
AC1009
  9
$EXTMIN
 10
0.0
 20
0.0
 30
0.0
  9
$EXTMAX
 10
1000.0
 20
1000.0
 30
0.0
  9
$FILLMODE
 70
 0
  9
$SPLFRAME
 70
 1
  0
ENDSEC
  0
SECTION
  2
TABLES
  0
TABLE
  2
LAYER
 70
1
  0
LAYER
  2
0
 70
     0
 62
     7
  6
CONTINUOUS
  0
ENDTAB
  0
ENDSEC
  0
SECTION
  2
ENTITIES
  0
LINE
  8
0
 62
     0
 10
303.368
 20
88.313
 30
0.0
 11
303.682
 21
88.3006
 31
0.0
  0
LINE
  8
0
 62
     0
 10
303.682
 20
88.3006
 30
0.0
 11
303.995
 21
88.2632
 31
0.0
  0
LINE
  8
0
 62
     0
 10
303.995
 20
88.2632
 30
0.0
 11
304.303
 21
88.2015
 31
0.0
  0
LINE
  8
0
 62
     0
 10
304.303
 20
88.2015
 30
0.0
 11
304.604
 21
88.1172
 31
0.0
  0
LINE
  8
0
 62
     0
 10
304.604
 20
88.1172
 30
0.0
 11
304.899
 21
88.0085
 31
0.0
  0
LINE
  8
0
 62
     0
 10
304.899
 20
88.0085
 30
0.0
 11
305.185
 21
87.8777
 31
0.0
  0
LINE
  8
0
 62
     0
 10
305.185
 20
87.8777
 30
0.0
 11
305.459
 21
87.7245
 31
0.0
  0
LINE
  8
0
 62
     0
 10
305.459
 20
87.7245
 30
0.0
 11
305.719
 21
87.5496
 31
0.0
  0
LINE
  8
0
 62
     0
 10
305.719
 20
87.5496
 30
0.0
 11
305.967
 21
87.3552
 31
0.0
  0
LINE
  8
0
 62
     0
 10
305.967
 20
87.3552
 30
0.0
 11
306.197
 21
87.1403
 31
0.0
  0
LINE
  8
0
 62
     0
 10
306.197
 20
87.1403
 30
0.0
 11
306.411
 21
86.9114
 31
0.0
  0
LINE
  8
0
 62
     0
 10
306.411
 20
86.9114
 30
0.0
 11
306.605
 21
86.6634
 31
0.0
  0
LINE
  8
0
 62
     0
 10
306.605
 20
86.6634
 30
0.0
 11
306.78
 21
86.403
 31
0.0
  0
LINE
  8
0
 62
     0
 10
306.78
 20
86.403
 30
0.0
 11
306.933
 21
86.1289
 31
0.0
  0
LINE
  8
0
 62
     0
 10
306.933
 20
86.1289
 30
0.0
 11
307.064
 21
85.8435
 31
0.0
  0
LINE
  8
0
 62
     0
 10
307.064
 20
85.8435
 30
0.0
 11
307.173
 21
85.5486
 31
0.0
  0
LINE
  8
0
 62
     0
 10
307.173
 20
85.5486
 30
0.0
 11
307.259
 21
85.247
 31
0.0
  0
LINE
  8
0
 62
     0
 10
307.259
 20
85.247
 30
0.0
 11
307.321
 21
84.9394
 31
0.0
  0
LINE
  8
0
 62
     0
 10
307.321
 20
84.9394
 30
0.0
 11
307.356
 21
84.6268
 31
0.0
  0
LINE
  8
0
 62
     0
 10
307.356
 20
84.6268
 30
0.0
 11
307.369
 21
84.3125
 31
0.0
  0
LINE
  8
0
 62
     0
 10
307.369
 20
84.3125
 30
0.0
 11
307.369
 21
4.11346
 31
0.0
  0
LINE
  8
0
 62
     0
 10
307.369
 20
4.11346
 30
0.0
 11
307.356
 21
3.79924
 31
0.0
  0
LINE
  8
0
 62
     0
 10
307.356
 20
3.79924
 30
0.0
 11
307.321
 21
3.48644
 31
0.0
  0
LINE
  8
0
 62
     0
 10
307.321
 20
3.48644
 30
0.0
 11
307.259
 21
3.17913
 31
0.0
  0
LINE
  8
0
 62
     0
 10
307.259
 20
3.17913
 30
0.0
 11
307.173
 21
2.87734
 31
0.0
  0
LINE
  8
0
 62
     0
 10
307.173
 20
2.87734
 30
0.0
 11
307.064
 21
2.58244
 31
0.0
  0
LINE
  8
0
 62
     0
 10
307.064
 20
2.58244
 30
0.0
 11
306.933
 21
2.29719
 31
0.0
  0
LINE
  8
0
 62
     0
 10
306.933
 20
2.29719
 30
0.0
 11
306.78
 21
2.02296
 31
0.0
  0
LINE
  8
0
 62
     0
 10
306.78
 20
2.02296
 30
0.0
 11
306.605
 21
1.76251
 31
0.0
  0
LINE
  8
0
 62
     0
 10
306.605
 20
1.76251
 30
0.0
 11
306.411
 21
1.51446
 31
0.0
  0
LINE
  8
0
 62
     0
 10
306.411
 20
1.51446
 30
0.0
 11
306.197
 21
1.28433
 31
0.0
  0
LINE
  8
0
 62
     0
 10
306.197
 20
1.28433
 30
0.0
 11
305.967
 21
1.07074
 31
0.0
  0
LINE
  8
0
 62
     0
 10
305.967
 20
1.07074
 30
0.0
 11
305.719
 21
0.876434
 31
0.0
  0
LINE
  8
0
 62
     0
 10
305.719
 20
0.876434
 30
0.0
 11
305.459
 21
0.701421
 31
0.0
  0
LINE
  8
0
 62
     0
 10
305.459
 20
0.701421
 30
0.0
 11
305.185
 21
0.54846
 31
0.0
  0
LINE
  8
0
 62
     0
 10
305.185
 20
0.54846
 30
0.0
 11
304.899
 21
0.417544
 31
0.0
  0
LINE
  8
0
 62
     0
 10
304.899
 20
0.417544
 30
0.0
 11
304.604
 21
0.308681
 31
0.0
  0
LINE
  8
0
 62
     0
 10
304.604
 20
0.308681
 30
0.0
 11
304.303
 21
0.223242
 31
0.0
  0
LINE
  8
0
 62
     0
 10
304.303
 20
0.223242
 30
0.0
 11
303.995
 21
0.16123
 31
0.0
  0
LINE
  8
0
 62
     0
 10
303.995
 20
0.16123
 30
0.0
 11
303.682
 21
0.125402
 31
0.0
  0
LINE
  8
0
 62
     0
 10
303.682
 20
0.125402
 30
0.0
 11
303.368
 21
0.112999
 31
0.0
  0
LINE
  8
0
 62
     0
 10
303.368
 20
0.112999
 30
0.0
 11
4.09416
 21
0.112999
 31
0.0
  0
LINE
  8
0
 62
     0
 10
4.09416
 20
0.112999
 30
0.0
 11
3.77994
 21
0.125402
 31
0.0
  0
LINE
  8
0
 62
     0
 10
3.77994
 20
0.125402
 30
0.0
 11
3.46715
 21
0.16123
 31
0.0
  0
LINE
  8
0
 62
     0
 10
3.46715
 20
0.16123
 30
0.0
 11
3.15984
 21
0.223242
 31
0.0
  0
LINE
  8
0
 62
     0
 10
3.15984
 20
0.223242
 30
0.0
 11
2.85805
 21
0.308681
 31
0.0
  0
LINE
  8
0
 62
     0
 10
2.85805
 20
0.308681
 30
0.0
 11
2.56315
 21
0.417544
 31
0.0
  0
LINE
  8
0
 62
     0
 10
2.56315
 20
0.417544
 30
0.0
 11
2.2779
 21
0.54846
 31
0.0
  0
LINE
  8
0
 62
     0
 10
2.2779
 20
0.54846
 30
0.0
 11
2.00367
 21
0.701421
 31
0.0
  0
LINE
  8
0
 62
     0
 10
2.00367
 20
0.701421
 30
0.0
 11
1.74322
 21
0.876434
 31
0.0
  0
LINE
  8
0
 62
     0
 10
1.74322
 20
0.876434
 30
0.0
 11
1.49517
 21
1.07074
 31
0.0
  0
LINE
  8
0
 62
     0
 10
1.49517
 20
1.07074
 30
0.0
 11
1.26642
 21
1.28433
 31
0.0
  0
LINE
  8
0
 62
     0
 10
1.26642
 20
1.28433
 30
0.0
 11
1.05144
 21
1.51446
 31
0.0
  0
LINE
  8
0
 62
     0
 10
1.05144
 20
1.51446
 30
0.0
 11
0.857141
 21
1.76251
 31
0.0
  0
LINE
  8
0
 62
     0
 10
0.857141
 20
1.76251
 30
0.0
 11
0.682128
 21
2.02296
 31
0.0
  0
LINE
  8
0
 62
     0
 10
0.682128
 20
2.02296
 30
0.0
 11
0.529167
 21
2.29719
 31
0.0
  0
LINE
  8
0
 62
     0
 10
0.529167
 20
2.29719
 30
0.0
 11
0.398254
 21
2.58244
 31
0.0
  0
LINE
  8
0
 62
     0
 10
0.398254
 20
2.58244
 30
0.0
 11
0.289388
 21
2.87734
 31
0.0
  0
LINE
  8
0
 62
     0
 10
0.289388
 20
2.87734
 30
0.0
 11
0.205328
 21
3.17913
 31
0.0
  0
LINE
  8
0
 62
     0
 10
0.205328
 20
3.17913
 30
0.0
 11
0.143316
 21
3.48644
 31
0.0
  0
LINE
  8
0
 62
     0
 10
0.143316
 20
3.48644
 30
0.0
 11
0.106109
 21
3.79924
 31
0.0
  0
LINE
  8
0
 62
     0
 10
0.106109
 20
3.79924
 30
0.0
 11
0.0937066
 21
4.11346
 31
0.0
  0
LINE
  8
0
 62
     0
 10
0.0937066
 20
4.11346
 30
0.0
 11
0.0937066
 21
84.3125
 31
0.0
  0
LINE
  8
0
 62
     0
 10
0.0937066
 20
84.3125
 30
0.0
 11
0.106109
 21
84.6268
 31
0.0
  0
LINE
  8
0
 62
     0
 10
0.106109
 20
84.6268
 30
0.0
 11
0.143316
 21
84.9394
 31
0.0
  0
LINE
  8
0
 62
     0
 10
0.143316
 20
84.9394
 30
0.0
 11
0.205328
 21
85.247
 31
0.0
  0
LINE
  8
0
 62
     0
 10
0.205328
 20
85.247
 30
0.0
 11
0.289388
 21
85.5486
 31
0.0
  0
LINE
  8
0
 62
     0
 10
0.289388
 20
85.5486
 30
0.0
 11
0.398254
 21
85.8435
 31
0.0
  0
LINE
  8
0
 62
     0
 10
0.398254
 20
85.8435
 30
0.0
 11
0.529167
 21
86.1289
 31
0.0
  0
LINE
  8
0
 62
     0
 10
0.529167
 20
86.1289
 30
0.0
 11
0.682128
 21
86.403
 31
0.0
  0
LINE
  8
0
 62
     0
 10
0.682128
 20
86.403
 30
0.0
 11
0.857141
 21
86.6634
 31
0.0
  0
LINE
  8
0
 62
     0
 10
0.857141
 20
86.6634
 30
0.0
 11
1.05144
 21
86.9114
 31
0.0
  0
LINE
  8
0
 62
     0
 10
1.05144
 20
86.9114
 30
0.0
 11
1.26642
 21
87.1403
 31
0.0
  0
LINE
  8
0
 62
     0
 10
1.26642
 20
87.1403
 30
0.0
 11
1.49517
 21
87.3552
 31
0.0
  0
LINE
  8
0
 62
     0
 10
1.49517
 20
87.3552
 30
0.0
 11
1.74322
 21
87.5496
 31
0.0
  0
LINE
  8
0
 62
     0
 10
1.74322
 20
87.5496
 30
0.0
 11
2.00367
 21
87.7245
 31
0.0
  0
LINE
  8
0
 62
     0
 10
2.00367
 20
87.7245
 30
0.0
 11
2.2779
 21
87.8777
 31
0.0
  0
LINE
  8
0
 62
     0
 10
2.2779
 20
87.8777
 30
0.0
 11
2.56315
 21
88.0085
 31
0.0
  0
LINE
  8
0
 62
     0
 10
2.56315
 20
88.0085
 30
0.0
 11
2.85805
 21
88.1172
 31
0.0
  0
LINE
  8
0
 62
     0
 10
2.85805
 20
88.1172
 30
0.0
 11
3.15984
 21
88.2015
 31
0.0
  0
LINE
  8
0
 62
     0
 10
3.15984
 20
88.2015
 30
0.0
 11
3.46715
 21
88.2632
 31
0.0
  0
LINE
  8
0
 62
     0
 10
3.46715
 20
88.2632
 30
0.0
 11
3.77994
 21
88.3006
 31
0.0
  0
LINE
  8
0
 62
     0
 10
3.77994
 20
88.3006
 30
0.0
 11
4.09416
 21
88.313
 31
0.0
  0
LINE
  8
0
 62
     0
 10
4.09416
 20
88.313
 30
0.0
 11
303.368
 21
88.313
 31
0.0
  0
LINE
  8
0
 62
     0
 10
304.369
 20
86.8123
 30
0.0
 11
304.833
 21
86.7392
 31
0.0
  0
LINE
  8
0
 62
     0
 10
304.833
 20
86.7392
 30
0.0
 11
305.25
 21
86.5269
 31
0.0
  0
LINE
  8
0
 62
     0
 10
305.25
 20
86.5269
 30
0.0
 11
305.583
 21
86.1949
 31
0.0
  0
LINE
  8
0
 62
     0
 10
305.583
 20
86.1949
 30
0.0
 11
305.796
 21
85.7772
 31
0.0
  0
LINE
  8
0
 62
     0
 10
305.796
 20
85.7772
 30
0.0
 11
305.869
 21
85.313
 31
0.0
  0
LINE
  8
0
 62
     0
 10
305.869
 20
85.313
 30
0.0
 11
305.796
 21
84.8487
 31
0.0
  0
LINE
  8
0
 62
     0
 10
305.796
 20
84.8487
 30
0.0
 11
305.583
 21
84.431
 31
0.0
  0
LINE
  8
0
 62
     0
 10
305.583
 20
84.431
 30
0.0
 11
305.25
 21
84.099
 31
0.0
  0
LINE
  8
0
 62
     0
 10
305.25
 20
84.099
 30
0.0
 11
304.833
 21
83.8853
 31
0.0
  0
LINE
  8
0
 62
     0
 10
304.833
 20
83.8853
 30
0.0
 11
304.369
 21
83.8122
 31
0.0
  0
LINE
  8
0
 62
     0
 10
304.369
 20
83.8122
 30
0.0
 11
303.904
 21
83.8853
 31
0.0
  0
LINE
  8
0
 62
     0
 10
303.904
 20
83.8853
 30
0.0
 11
303.487
 21
84.099
 31
0.0
  0
LINE
  8
0
 62
     0
 10
303.487
 20
84.099
 30
0.0
 11
303.155
 21
84.431
 31
0.0
  0
LINE
  8
0
 62
     0
 10
303.155
 20
84.431
 30
0.0
 11
302.942
 21
84.8487
 31
0.0
  0
LINE
  8
0
 62
     0
 10
302.942
 20
84.8487
 30
0.0
 11
302.869
 21
85.313
 31
0.0
  0
LINE
  8
0
 62
     0
 10
302.869
 20
85.313
 30
0.0
 11
302.942
 21
85.7772
 31
0.0
  0
LINE
  8
0
 62
     0
 10
302.942
 20
85.7772
 30
0.0
 11
303.155
 21
86.1949
 31
0.0
  0
LINE
  8
0
 62
     0
 10
303.155
 20
86.1949
 30
0.0
 11
303.487
 21
86.5269
 31
0.0
  0
LINE
  8
0
 62
     0
 10
303.487
 20
86.5269
 30
0.0
 11
303.904
 21
86.7392
 31
0.0
  0
LINE
  8
0
 62
     0
 10
303.904
 20
86.7392
 30
0.0
 11
304.369
 21
86.8123
 31
0.0
  0
LINE
  8
0
 62
     0
 10
304.369
 20
4.61229
 30
0.0
 11
304.833
 21
4.53926
 31
0.0
  0
LINE
  8
0
 62
     0
 10
304.833
 20
4.53926
 30
0.0
 11
305.25
 21
4.32703
 31
0.0
  0
LINE
  8
0
 62
     0
 10
305.25
 20
4.32703
 30
0.0
 11
305.583
 21
3.99493
 31
0.0
  0
LINE
  8
0
 62
     0
 10
305.583
 20
3.99493
 30
0.0
 11
305.796
 21
3.57738
 31
0.0
  0
LINE
  8
0
 62
     0
 10
305.796
 20
3.57738
 30
0.0
 11
305.869
 21
3.11299
 31
0.0
  0
LINE
  8
0
 62
     0
 10
305.869
 20
3.11299
 30
0.0
 11
305.796
 21
2.64859
 31
0.0
  0
LINE
  8
0
 62
     0
 10
305.796
 20
2.64859
 30
0.0
 11
305.583
 21
2.23104
 31
0.0
  0
LINE
  8
0
 62
     0
 10
305.583
 20
2.23104
 30
0.0
 11
305.25
 21
1.89894
 31
0.0
  0
LINE
  8
0
 62
     0
 10
305.25
 20
1.89894
 30
0.0
 11
304.833
 21
1.68534
 31
0.0
  0
LINE
  8
0
 62
     0
 10
304.833
 20
1.68534
 30
0.0
 11
304.369
 21
1.6123
 31
0.0
  0
LINE
  8
0
 62
     0
 10
304.369
 20
1.6123
 30
0.0
 11
303.904
 21
1.68534
 31
0.0
  0
LINE
  8
0
 62
     0
 10
303.904
 20
1.68534
 30
0.0
 11
303.487
 21
1.89894
 31
0.0
  0
LINE
  8
0
 62
     0
 10
303.487
 20
1.89894
 30
0.0
 11
303.155
 21
2.23104
 31
0.0
  0
LINE
  8
0
 62
     0
 10
303.155
 20
2.23104
 30
0.0
 11
302.942
 21
2.64859
 31
0.0
  0
LINE
  8
0
 62
     0
 10
302.942
 20
2.64859
 30
0.0
 11
302.869
 21
3.11299
 31
0.0
  0
LINE
  8
0
 62
     0
 10
302.869
 20
3.11299
 30
0.0
 11
302.942
 21
3.57738
 31
0.0
  0
LINE
  8
0
 62
     0
 10
302.942
 20
3.57738
 30
0.0
 11
303.155
 21
3.99493
 31
0.0
  0
LINE
  8
0
 62
     0
 10
303.155
 20
3.99493
 30
0.0
 11
303.487
 21
4.32703
 31
0.0
  0
LINE
  8
0
 62
     0
 10
303.487
 20
4.32703
 30
0.0
 11
303.904
 21
4.53926
 31
0.0
  0
LINE
  8
0
 62
     0
 10
303.904
 20
4.53926
 30
0.0
 11
304.369
 21
4.61229
 31
0.0
  0
LINE
  8
0
 62
     0
 10
3.0937
 20
4.61229
 30
0.0
 11
3.55808
 21
4.53926
 31
0.0
  0
LINE
  8
0
 62
     0
 10
3.55808
 20
4.53926
 30
0.0
 11
3.97563
 21
4.32703
 31
0.0
  0
LINE
  8
0
 62
     0
 10
3.97563
 20
4.32703
 30
0.0
 11
4.30773
 21
3.99493
 31
0.0
  0
LINE
  8
0
 62
     0
 10
4.30773
 20
3.99493
 30
0.0
 11
4.52134
 21
3.57738
 31
0.0
  0
LINE
  8
0
 62
     0
 10
4.52134
 20
3.57738
 30
0.0
 11
4.59437
 21
3.11299
 31
0.0
  0
LINE
  8
0
 62
     0
 10
4.59437
 20
3.11299
 30
0.0
 11
4.52134
 21
2.64859
 31
0.0
  0
LINE
  8
0
 62
     0
 10
4.52134
 20
2.64859
 30
0.0
 11
4.30773
 21
2.23104
 31
0.0
  0
LINE
  8
0
 62
     0
 10
4.30773
 20
2.23104
 30
0.0
 11
3.97563
 21
1.89894
 31
0.0
  0
LINE
  8
0
 62
     0
 10
3.97563
 20
1.89894
 30
0.0
 11
3.55808
 21
1.68534
 31
0.0
  0
LINE
  8
0
 62
     0
 10
3.55808
 20
1.68534
 30
0.0
 11
3.0937
 21
1.6123
 31
0.0
  0
LINE
  8
0
 62
     0
 10
3.0937
 20
1.6123
 30
0.0
 11
2.6293
 21
1.68534
 31
0.0
  0
LINE
  8
0
 62
     0
 10
2.6293
 20
1.68534
 30
0.0
 11
2.21175
 21
1.89894
 31
0.0
  0
LINE
  8
0
 62
     0
 10
2.21175
 20
1.89894
 30
0.0
 11
1.87965
 21
2.23104
 31
0.0
  0
LINE
  8
0
 62
     0
 10
1.87965
 20
2.23104
 30
0.0
 11
1.66743
 21
2.64859
 31
0.0
  0
LINE
  8
0
 62
     0
 10
1.66743
 20
2.64859
 30
0.0
 11
1.59439
 21
3.11299
 31
0.0
  0
LINE
  8
0
 62
     0
 10
1.59439
 20
3.11299
 30
0.0
 11
1.66743
 21
3.57738
 31
0.0
  0
LINE
  8
0
 62
     0
 10
1.66743
 20
3.57738
 30
0.0
 11
1.87965
 21
3.99493
 31
0.0
  0
LINE
  8
0
 62
     0
 10
1.87965
 20
3.99493
 30
0.0
 11
2.21175
 21
4.32703
 31
0.0
  0
LINE
  8
0
 62
     0
 10
2.21175
 20
4.32703
 30
0.0
 11
2.6293
 21
4.53926
 31
0.0
  0
LINE
  8
0
 62
     0
 10
2.6293
 20
4.53926
 30
0.0
 11
3.0937
 21
4.61229
 31
0.0
  0
LINE
  8
0
 62
     0
 10
3.0937
 20
86.8123
 30
0.0
 11
3.55808
 21
86.7392
 31
0.0
  0
LINE
  8
0
 62
     0
 10
3.55808
 20
86.7392
 30
0.0
 11
3.97563
 21
86.5269
 31
0.0
  0
LINE
  8
0
 62
     0
 10
3.97563
 20
86.5269
 30
0.0
 11
4.30773
 21
86.1949
 31
0.0
  0
LINE
  8
0
 62
     0
 10
4.30773
 20
86.1949
 30
0.0
 11
4.52134
 21
85.7772
 31
0.0
  0
LINE
  8
0
 62
     0
 10
4.52134
 20
85.7772
 30
0.0
 11
4.59437
 21
85.313
 31
0.0
  0
LINE
  8
0
 62
     0
 10
4.59437
 20
85.313
 30
0.0
 11
4.52134
 21
84.8487
 31
0.0
  0
LINE
  8
0
 62
     0
 10
4.52134
 20
84.8487
 30
0.0
 11
4.30773
 21
84.431
 31
0.0
  0
LINE
  8
0
 62
     0
 10
4.30773
 20
84.431
 30
0.0
 11
3.97563
 21
84.099
 31
0.0
  0
LINE
  8
0
 62
     0
 10
3.97563
 20
84.099
 30
0.0
 11
3.55808
 21
83.8853
 31
0.0
  0
LINE
  8
0
 62
     0
 10
3.55808
 20
83.8853
 30
0.0
 11
3.0937
 21
83.8122
 31
0.0
  0
LINE
  8
0
 62
     0
 10
3.0937
 20
83.8122
 30
0.0
 11
2.6293
 21
83.8853
 31
0.0
  0
LINE
  8
0
 62
     0
 10
2.6293
 20
83.8853
 30
0.0
 11
2.21175
 21
84.099
 31
0.0
  0
LINE
  8
0
 62
     0
 10
2.21175
 20
84.099
 30
0.0
 11
1.87965
 21
84.431
 31
0.0
  0
LINE
  8
0
 62
     0
 10
1.87965
 20
84.431
 30
0.0
 11
1.66743
 21
84.8487
 31
0.0
  0
LINE
  8
0
 62
     0
 10
1.66743
 20
84.8487
 30
0.0
 11
1.59439
 21
85.313
 31
0.0
  0
LINE
  8
0
 62
     0
 10
1.59439
 20
85.313
 30
0.0
 11
1.66743
 21
85.7772
 31
0.0
  0
LINE
  8
0
 62
     0
 10
1.66743
 20
85.7772
 30
0.0
 11
1.87965
 21
86.1949
 31
0.0
  0
LINE
  8
0
 62
     0
 10
1.87965
 20
86.1949
 30
0.0
 11
2.21175
 21
86.5269
 31
0.0
  0
LINE
  8
0
 62
     0
 10
2.21175
 20
86.5269
 30
0.0
 11
2.6293
 21
86.7392
 31
0.0
  0
LINE
  8
0
 62
     0
 10
2.6293
 20
86.7392
 30
0.0
 11
3.0937
 21
86.8123
 31
0.0
  0
ENDSEC
  0
EOF
