  0
SECTION
  2
HEADER
  9
$ACADVER
  1
AC1009
  9
$EXTMIN
 10
0.0
 20
0.0
 30
0.0
  9
$EXTMAX
 10
1000.0
 20
1000.0
 30
0.0
  9
$FILLMODE
 70
 0
  9
$SPLFRAME
 70
 1
  0
ENDSEC
  0
SECTION
  2
TABLES
  0
TABLE
  2
LAYER
 70
1
  0
LAYER
  2
0
 70
     0
 62
     7
  6
CONTINUOUS
  0
ENDTAB
  0
ENDSEC
  0
SECTION
  2
ENTITIES
  0
LINE
  8
0
 62
     0
 10
303.368
 20
88.313
 30
0.0
 11
303.682
 21
88.3006
 31
0.0
  0
LINE
  8
0
 62
     0
 10
303.682
 20
88.3006
 30
0.0
 11
303.995
 21
88.2632
 31
0.0
  0
LINE
  8
0
 62
     0
 10
303.995
 20
88.2632
 30
0.0
 11
304.303
 21
88.2015
 31
0.0
  0
LINE
  8
0
 62
     0
 10
304.303
 20
88.2015
 30
0.0
 11
304.604
 21
88.1172
 31
0.0
  0
LINE
  8
0
 62
     0
 10
304.604
 20
88.1172
 30
0.0
 11
304.899
 21
88.0085
 31
0.0
  0
LINE
  8
0
 62
     0
 10
304.899
 20
88.0085
 30
0.0
 11
305.185
 21
87.8777
 31
0.0
  0
LINE
  8
0
 62
     0
 10
305.185
 20
87.8777
 30
0.0
 11
305.459
 21
87.7245
 31
0.0
  0
LINE
  8
0
 62
     0
 10
305.459
 20
87.7245
 30
0.0
 11
305.719
 21
87.5496
 31
0.0
  0
LINE
  8
0
 62
     0
 10
305.719
 20
87.5496
 30
0.0
 11
305.967
 21
87.3552
 31
0.0
  0
LINE
  8
0
 62
     0
 10
305.967
 20
87.3552
 30
0.0
 11
306.197
 21
87.1403
 31
0.0
  0
LINE
  8
0
 62
     0
 10
306.197
 20
87.1403
 30
0.0
 11
306.411
 21
86.9114
 31
0.0
  0
LINE
  8
0
 62
     0
 10
306.411
 20
86.9114
 30
0.0
 11
306.605
 21
86.6634
 31
0.0
  0
LINE
  8
0
 62
     0
 10
306.605
 20
86.6634
 30
0.0
 11
306.78
 21
86.403
 31
0.0
  0
LINE
  8
0
 62
     0
 10
306.78
 20
86.403
 30
0.0
 11
306.933
 21
86.1289
 31
0.0
  0
LINE
  8
0
 62
     0
 10
306.933
 20
86.1289
 30
0.0
 11
307.064
 21
85.8435
 31
0.0
  0
LINE
  8
0
 62
     0
 10
307.064
 20
85.8435
 30
0.0
 11
307.173
 21
85.5486
 31
0.0
  0
LINE
  8
0
 62
     0
 10
307.173
 20
85.5486
 30
0.0
 11
307.259
 21
85.247
 31
0.0
  0
LINE
  8
0
 62
     0
 10
307.259
 20
85.247
 30
0.0
 11
307.321
 21
84.9394
 31
0.0
  0
LINE
  8
0
 62
     0
 10
307.321
 20
84.9394
 30
0.0
 11
307.356
 21
84.6268
 31
0.0
  0
LINE
  8
0
 62
     0
 10
307.356
 20
84.6268
 30
0.0
 11
307.369
 21
84.3125
 31
0.0
  0
LINE
  8
0
 62
     0
 10
307.369
 20
84.3125
 30
0.0
 11
307.369
 21
4.11346
 31
0.0
  0
LINE
  8
0
 62
     0
 10
307.369
 20
4.11346
 30
0.0
 11
307.356
 21
3.79924
 31
0.0
  0
LINE
  8
0
 62
     0
 10
307.356
 20
3.79924
 30
0.0
 11
307.321
 21
3.48644
 31
0.0
  0
LINE
  8
0
 62
     0
 10
307.321
 20
3.48644
 30
0.0
 11
307.259
 21
3.17913
 31
0.0
  0
LINE
  8
0
 62
     0
 10
307.259
 20
3.17913
 30
0.0
 11
307.173
 21
2.87734
 31
0.0
  0
LINE
  8
0
 62
     0
 10
307.173
 20
2.87734
 30
0.0
 11
307.064
 21
2.58244
 31
0.0
  0
LINE
  8
0
 62
     0
 10
307.064
 20
2.58244
 30
0.0
 11
306.933
 21
2.29719
 31
0.0
  0
LINE
  8
0
 62
     0
 10
306.933
 20
2.29719
 30
0.0
 11
306.78
 21
2.02296
 31
0.0
  0
LINE
  8
0
 62
     0
 10
306.78
 20
2.02296
 30
0.0
 11
306.605
 21
1.76251
 31
0.0
  0
LINE
  8
0
 62
     0
 10
306.605
 20
1.76251
 30
0.0
 11
306.411
 21
1.51446
 31
0.0
  0
LINE
  8
0
 62
     0
 10
306.411
 20
1.51446
 30
0.0
 11
306.197
 21
1.28433
 31
0.0
  0
LINE
  8
0
 62
     0
 10
306.197
 20
1.28433
 30
0.0
 11
305.967
 21
1.07074
 31
0.0
  0
LINE
  8
0
 62
     0
 10
305.967
 20
1.07074
 30
0.0
 11
305.719
 21
0.876434
 31
0.0
  0
LINE
  8
0
 62
     0
 10
305.719
 20
0.876434
 30
0.0
 11
305.459
 21
0.701421
 31
0.0
  0
LINE
  8
0
 62
     0
 10
305.459
 20
0.701421
 30
0.0
 11
305.185
 21
0.54846
 31
0.0
  0
LINE
  8
0
 62
     0
 10
305.185
 20
0.54846
 30
0.0
 11
304.899
 21
0.417544
 31
0.0
  0
LINE
  8
0
 62
     0
 10
304.899
 20
0.417544
 30
0.0
 11
304.604
 21
0.308681
 31
0.0
  0
LINE
  8
0
 62
     0
 10
304.604
 20
0.308681
 30
0.0
 11
304.303
 21
0.223242
 31
0.0
  0
LINE
  8
0
 62
     0
 10
304.303
 20
0.223242
 30
0.0
 11
303.995
 21
0.16123
 31
0.0
  0
LINE
  8
0
 62
     0
 10
303.995
 20
0.16123
 30
0.0
 11
303.682
 21
0.125402
 31
0.0
  0
LINE
  8
0
 62
     0
 10
303.682
 20
0.125402
 30
0.0
 11
303.368
 21
0.112999
 31
0.0
  0
LINE
  8
0
 62
     0
 10
303.368
 20
0.112999
 30
0.0
 11
4.09416
 21
0.112999
 31
0.0
  0
LINE
  8
0
 62
     0
 10
4.09416
 20
0.112999
 30
0.0
 11
3.77994
 21
0.125402
 31
0.0
  0
LINE
  8
0
 62
     0
 10
3.77994
 20
0.125402
 30
0.0
 11
3.46715
 21
0.16123
 31
0.0
  0
LINE
  8
0
 62
     0
 10
3.46715
 20
0.16123
 30
0.0
 11
3.15984
 21
0.223242
 31
0.0
  0
LINE
  8
0
 62
     0
 10
3.15984
 20
0.223242
 30
0.0
 11
2.85805
 21
0.308681
 31
0.0
  0
LINE
  8
0
 62
     0
 10
2.85805
 20
0.308681
 30
0.0
 11
2.56315
 21
0.417544
 31
0.0
  0
LINE
  8
0
 62
     0
 10
2.56315
 20
0.417544
 30
0.0
 11
2.2779
 21
0.54846
 31
0.0
  0
LINE
  8
0
 62
     0
 10
2.2779
 20
0.54846
 30
0.0
 11
2.00367
 21
0.701421
 31
0.0
  0
LINE
  8
0
 62
     0
 10
2.00367
 20
0.701421
 30
0.0
 11
1.74322
 21
0.876434
 31
0.0
  0
LINE
  8
0
 62
     0
 10
1.74322
 20
0.876434
 30
0.0
 11
1.49517
 21
1.07074
 31
0.0
  0
LINE
  8
0
 62
     0
 10
1.49517
 20
1.07074
 30
0.0
 11
1.26642
 21
1.28433
 31
0.0
  0
LINE
  8
0
 62
     0
 10
1.26642
 20
1.28433
 30
0.0
 11
1.05144
 21
1.51446
 31
0.0
  0
LINE
  8
0
 62
     0
 10
1.05144
 20
1.51446
 30
0.0
 11
0.857141
 21
1.76251
 31
0.0
  0
LINE
  8
0
 62
     0
 10
0.857141
 20
1.76251
 30
0.0
 11
0.682128
 21
2.02296
 31
0.0
  0
LINE
  8
0
 62
     0
 10
0.682128
 20
2.02296
 30
0.0
 11
0.529167
 21
2.29719
 31
0.0
  0
LINE
  8
0
 62
     0
 10
0.529167
 20
2.29719
 30
0.0
 11
0.398254
 21
2.58244
 31
0.0
  0
LINE
  8
0
 62
     0
 10
0.398254
 20
2.58244
 30
0.0
 11
0.289388
 21
2.87734
 31
0.0
  0
LINE
  8
0
 62
     0
 10
0.289388
 20
2.87734
 30
0.0
 11
0.205328
 21
3.17913
 31
0.0
  0
LINE
  8
0
 62
     0
 10
0.205328
 20
3.17913
 30
0.0
 11
0.143316
 21
3.48644
 31
0.0
  0
LINE
  8
0
 62
     0
 10
0.143316
 20
3.48644
 30
0.0
 11
0.106109
 21
3.79924
 31
0.0
  0
LINE
  8
0
 62
     0
 10
0.106109
 20
3.79924
 30
0.0
 11
0.0937066
 21
4.11346
 31
0.0
  0
LINE
  8
0
 62
     0
 10
0.0937066
 20
4.11346
 30
0.0
 11
0.0937066
 21
84.3125
 31
0.0
  0
LINE
  8
0
 62
     0
 10
0.0937066
 20
84.3125
 30
0.0
 11
0.106109
 21
84.6268
 31
0.0
  0
LINE
  8
0
 62
     0
 10
0.106109
 20
84.6268
 30
0.0
 11
0.143316
 21
84.9394
 31
0.0
  0
LINE
  8
0
 62
     0
 10
0.143316
 20
84.9394
 30
0.0
 11
0.205328
 21
85.247
 31
0.0
  0
LINE
  8
0
 62
     0
 10
0.205328
 20
85.247
 30
0.0
 11
0.289388
 21
85.5486
 31
0.0
  0
LINE
  8
0
 62
     0
 10
0.289388
 20
85.5486
 30
0.0
 11
0.398254
 21
85.8435
 31
0.0
  0
LINE
  8
0
 62
     0
 10
0.398254
 20
85.8435
 30
0.0
 11
0.529167
 21
86.1289
 31
0.0
  0
LINE
  8
0
 62
     0
 10
0.529167
 20
86.1289
 30
0.0
 11
0.682128
 21
86.403
 31
0.0
  0
LINE
  8
0
 62
     0
 10
0.682128
 20
86.403
 30
0.0
 11
0.857141
 21
86.6634
 31
0.0
  0
LINE
  8
0
 62
     0
 10
0.857141
 20
86.6634
 30
0.0
 11
1.05144
 21
86.9114
 31
0.0
  0
LINE
  8
0
 62
     0
 10
1.05144
 20
86.9114
 30
0.0
 11
1.26642
 21
87.1403
 31
0.0
  0
LINE
  8
0
 62
     0
 10
1.26642
 20
87.1403
 30
0.0
 11
1.49517
 21
87.3552
 31
0.0
  0
LINE
  8
0
 62
     0
 10
1.49517
 20
87.3552
 30
0.0
 11
1.74322
 21
87.5496
 31
0.0
  0
LINE
  8
0
 62
     0
 10
1.74322
 20
87.5496
 30
0.0
 11
2.00367
 21
87.7245
 31
0.0
  0
LINE
  8
0
 62
     0
 10
2.00367
 20
87.7245
 30
0.0
 11
2.2779
 21
87.8777
 31
0.0
  0
LINE
  8
0
 62
     0
 10
2.2779
 20
87.8777
 30
0.0
 11
2.56315
 21
88.0085
 31
0.0
  0
LINE
  8
0
 62
     0
 10
2.56315
 20
88.0085
 30
0.0
 11
2.85805
 21
88.1172
 31
0.0
  0
LINE
  8
0
 62
     0
 10
2.85805
 20
88.1172
 30
0.0
 11
3.15984
 21
88.2015
 31
0.0
  0
LINE
  8
0
 62
     0
 10
3.15984
 20
88.2015
 30
0.0
 11
3.46715
 21
88.2632
 31
0.0
  0
LINE
  8
0
 62
     0
 10
3.46715
 20
88.2632
 30
0.0
 11
3.77994
 21
88.3006
 31
0.0
  0
LINE
  8
0
 62
     0
 10
3.77994
 20
88.3006
 30
0.0
 11
4.09416
 21
88.313
 31
0.0
  0
LINE
  8
0
 62
     0
 10
4.09416
 20
88.313
 30
0.0
 11
303.368
 21
88.313
 31
0.0
  0
LINE
  8
0
 62
     0
 10
304.369
 20
86.8123
 30
0.0
 11
304.833
 21
86.7392
 31
0.0
  0
LINE
  8
0
 62
     0
 10
304.833
 20
86.7392
 30
0.0
 11
305.25
 21
86.5269
 31
0.0
  0
LINE
  8
0
 62
     0
 10
305.25
 20
86.5269
 30
0.0
 11
305.583
 21
86.1949
 31
0.0
  0
LINE
  8
0
 62
     0
 10
305.583
 20
86.1949
 30
0.0
 11
305.796
 21
85.7772
 31
0.0
  0
LINE
  8
0
 62
     0
 10
305.796
 20
85.7772
 30
0.0
 11
305.869
 21
85.313
 31
0.0
  0
LINE
  8
0
 62
     0
 10
305.869
 20
85.313
 30
0.0
 11
305.796
 21
84.8487
 31
0.0
  0
LINE
  8
0
 62
     0
 10
305.796
 20
84.8487
 30
0.0
 11
305.583
 21
84.431
 31
0.0
  0
LINE
  8
0
 62
     0
 10
305.583
 20
84.431
 30
0.0
 11
305.25
 21
84.099
 31
0.0
  0
LINE
  8
0
 62
     0
 10
305.25
 20
84.099
 30
0.0
 11
304.833
 21
83.8853
 31
0.0
  0
LINE
  8
0
 62
     0
 10
304.833
 20
83.8853
 30
0.0
 11
304.369
 21
83.8122
 31
0.0
  0
LINE
  8
0
 62
     0
 10
304.369
 20
83.8122
 30
0.0
 11
303.904
 21
83.8853
 31
0.0
  0
LINE
  8
0
 62
     0
 10
303.904
 20
83.8853
 30
0.0
 11
303.487
 21
84.099
 31
0.0
  0
LINE
  8
0
 62
     0
 10
303.487
 20
84.099
 30
0.0
 11
303.155
 21
84.431
 31
0.0
  0
LINE
  8
0
 62
     0
 10
303.155
 20
84.431
 30
0.0
 11
302.942
 21
84.8487
 31
0.0
  0
LINE
  8
0
 62
     0
 10
302.942
 20
84.8487
 30
0.0
 11
302.869
 21
85.313
 31
0.0
  0
LINE
  8
0
 62
     0
 10
302.869
 20
85.313
 30
0.0
 11
302.942
 21
85.7772
 31
0.0
  0
LINE
  8
0
 62
     0
 10
302.942
 20
85.7772
 30
0.0
 11
303.155
 21
86.1949
 31
0.0
  0
LINE
  8
0
 62
     0
 10
303.155
 20
86.1949
 30
0.0
 11
303.487
 21
86.5269
 31
0.0
  0
LINE
  8
0
 62
     0
 10
303.487
 20
86.5269
 30
0.0
 11
303.904
 21
86.7392
 31
0.0
  0
LINE
  8
0
 62
     0
 10
303.904
 20
86.7392
 30
0.0
 11
304.369
 21
86.8123
 31
0.0
  0
LINE
  8
0
 62
     0
 10
304.369
 20
4.61229
 30
0.0
 11
304.833
 21
4.53926
 31
0.0
  0
LINE
  8
0
 62
     0
 10
304.833
 20
4.53926
 30
0.0
 11
305.25
 21
4.32703
 31
0.0
  0
LINE
  8
0
 62
     0
 10
305.25
 20
4.32703
 30
0.0
 11
305.583
 21
3.99493
 31
0.0
  0
LINE
  8
0
 62
     0
 10
305.583
 20
3.99493
 30
0.0
 11
305.796
 21
3.57738
 31
0.0
  0
LINE
  8
0
 62
     0
 10
305.796
 20
3.57738
 30
0.0
 11
305.869
 21
3.11299
 31
0.0
  0
LINE
  8
0
 62
     0
 10
305.869
 20
3.11299
 30
0.0
 11
305.796
 21
2.64859
 31
0.0
  0
LINE
  8
0
 62
     0
 10
305.796
 20
2.64859
 30
0.0
 11
305.583
 21
2.23104
 31
0.0
  0
LINE
  8
0
 62
     0
 10
305.583
 20
2.23104
 30
0.0
 11
305.25
 21
1.89894
 31
0.0
  0
LINE
  8
0
 62
     0
 10
305.25
 20
1.89894
 30
0.0
 11
304.833
 21
1.68534
 31
0.0
  0
LINE
  8
0
 62
     0
 10
304.833
 20
1.68534
 30
0.0
 11
304.369
 21
1.6123
 31
0.0
  0
LINE
  8
0
 62
     0
 10
304.369
 20
1.6123
 30
0.0
 11
303.904
 21
1.68534
 31
0.0
  0
LINE
  8
0
 62
     0
 10
303.904
 20
1.68534
 30
0.0
 11
303.487
 21
1.89894
 31
0.0
  0
LINE
  8
0
 62
     0
 10
303.487
 20
1.89894
 30
0.0
 11
303.155
 21
2.23104
 31
0.0
  0
LINE
  8
0
 62
     0
 10
303.155
 20
2.23104
 30
0.0
 11
302.942
 21
2.64859
 31
0.0
  0
LINE
  8
0
 62
     0
 10
302.942
 20
2.64859
 30
0.0
 11
302.869
 21
3.11299
 31
0.0
  0
LINE
  8
0
 62
     0
 10
302.869
 20
3.11299
 30
0.0
 11
302.942
 21
3.57738
 31
0.0
  0
LINE
  8
0
 62
     0
 10
302.942
 20
3.57738
 30
0.0
 11
303.155
 21
3.99493
 31
0.0
  0
LINE
  8
0
 62
     0
 10
303.155
 20
3.99493
 30
0.0
 11
303.487
 21
4.32703
 31
0.0
  0
LINE
  8
0
 62
     0
 10
303.487
 20
4.32703
 30
0.0
 11
303.904
 21
4.53926
 31
0.0
  0
LINE
  8
0
 62
     0
 10
303.904
 20
4.53926
 30
0.0
 11
304.369
 21
4.61229
 31
0.0
  0
LINE
  8
0
 62
     0
 10
3.0937
 20
4.61229
 30
0.0
 11
3.55808
 21
4.53926
 31
0.0
  0
LINE
  8
0
 62
     0
 10
3.55808
 20
4.53926
 30
0.0
 11
3.97563
 21
4.32703
 31
0.0
  0
LINE
  8
0
 62
     0
 10
3.97563
 20
4.32703
 30
0.0
 11
4.30773
 21
3.99493
 31
0.0
  0
LINE
  8
0
 62
     0
 10
4.30773
 20
3.99493
 30
0.0
 11
4.52134
 21
3.57738
 31
0.0
  0
LINE
  8
0
 62
     0
 10
4.52134
 20
3.57738
 30
0.0
 11
4.59437
 21
3.11299
 31
0.0
  0
LINE
  8
0
 62
     0
 10
4.59437
 20
3.11299
 30
0.0
 11
4.52134
 21
2.64859
 31
0.0
  0
LINE
  8
0
 62
     0
 10
4.52134
 20
2.64859
 30
0.0
 11
4.30773
 21
2.23104
 31
0.0
  0
LINE
  8
0
 62
     0
 10
4.30773
 20
2.23104
 30
0.0
 11
3.97563
 21
1.89894
 31
0.0
  0
LINE
  8
0
 62
     0
 10
3.97563
 20
1.89894
 30
0.0
 11
3.55808
 21
1.68534
 31
0.0
  0
LINE
  8
0
 62
     0
 10
3.55808
 20
1.68534
 30
0.0
 11
3.0937
 21
1.6123
 31
0.0
  0
LINE
  8
0
 62
     0
 10
3.0937
 20
1.6123
 30
0.0
 11
2.6293
 21
1.68534
 31
0.0
  0
LINE
  8
0
 62
     0
 10
2.6293
 20
1.68534
 30
0.0
 11
2.21175
 21
1.89894
 31
0.0
  0
LINE
  8
0
 62
     0
 10
2.21175
 20
1.89894
 30
0.0
 11
1.87965
 21
2.23104
 31
0.0
  0
LINE
  8
0
 62
     0
 10
1.87965
 20
2.23104
 30
0.0
 11
1.66743
 21
2.64859
 31
0.0
  0
LINE
  8
0
 62
     0
 10
1.66743
 20
2.64859
 30
0.0
 11
1.59439
 21
3.11299
 31
0.0
  0
LINE
  8
0
 62
     0
 10
1.59439
 20
3.11299
 30
0.0
 11
1.66743
 21
3.57738
 31
0.0
  0
LINE
  8
0
 62
     0
 10
1.66743
 20
3.57738
 30
0.0
 11
1.87965
 21
3.99493
 31
0.0
  0
LINE
  8
0
 62
     0
 10
1.87965
 20
3.99493
 30
0.0
 11
2.21175
 21
4.32703
 31
0.0
  0
LINE
  8
0
 62
     0
 10
2.21175
 20
4.32703
 30
0.0
 11
2.6293
 21
4.53926
 31
0.0
  0
LINE
  8
0
 62
     0
 10
2.6293
 20
4.53926
 30
0.0
 11
3.0937
 21
4.61229
 31
0.0
  0
LINE
  8
0
 62
     0
 10
3.0937
 20
86.8123
 30
0.0
 11
3.55808
 21
86.7392
 31
0.0
  0
LINE
  8
0
 62
     0
 10
3.55808
 20
86.7392
 30
0.0
 11
3.97563
 21
86.5269
 31
0.0
  0
LINE
  8
0
 62
     0
 10
3.97563
 20
86.5269
 30
0.0
 11
4.30773
 21
86.1949
 31
0.0
  0
LINE
  8
0
 62
     0
 10
4.30773
 20
86.1949
 30
0.0
 11
4.52134
 21
85.7772
 31
0.0
  0
LINE
  8
0
 62
     0
 10
4.52134
 20
85.7772
 30
0.0
 11
4.59437
 21
85.313
 31
0.0
  0
LINE
  8
0
 62
     0
 10
4.59437
 20
85.313
 30
0.0
 11
4.52134
 21
84.8487
 31
0.0
  0
LINE
  8
0
 62
     0
 10
4.52134
 20
84.8487
 30
0.0
 11
4.30773
 21
84.431
 31
0.0
  0
LINE
  8
0
 62
     0
 10
4.30773
 20
84.431
 30
0.0
 11
3.97563
 21
84.099
 31
0.0
  0
LINE
  8
0
 62
     0
 10
3.97563
 20
84.099
 30
0.0
 11
3.55808
 21
83.8853
 31
0.0
  0
LINE
  8
0
 62
     0
 10
3.55808
 20
83.8853
 30
0.0
 11
3.0937
 21
83.8122
 31
0.0
  0
LINE
  8
0
 62
     0
 10
3.0937
 20
83.8122
 30
0.0
 11
2.6293
 21
83.8853
 31
0.0
  0
LINE
  8
0
 62
     0
 10
2.6293
 20
83.8853
 30
0.0
 11
2.21175
 21
84.099
 31
0.0
  0
LINE
  8
0
 62
     0
 10
2.21175
 20
84.099
 30
0.0
 11
1.87965
 21
84.431
 31
0.0
  0
LINE
  8
0
 62
     0
 10
1.87965
 20
84.431
 30
0.0
 11
1.66743
 21
84.8487
 31
0.0
  0
LINE
  8
0
 62
     0
 10
1.66743
 20
84.8487
 30
0.0
 11
1.59439
 21
85.313
 31
0.0
  0
LINE
  8
0
 62
     0
 10
1.59439
 20
85.313
 30
0.0
 11
1.66743
 21
85.7772
 31
0.0
  0
LINE
  8
0
 62
     0
 10
1.66743
 20
85.7772
 30
0.0
 11
1.87965
 21
86.1949
 31
0.0
  0
LINE
  8
0
 62
     0
 10
1.87965
 20
86.1949
 30
0.0
 11
2.21175
 21
86.5269
 31
0.0
  0
LINE
  8
0
 62
     0
 10
2.21175
 20
86.5269
 30
0.0
 11
2.6293
 21
86.7392
 31
0.0
  0
LINE
  8
0
 62
     0
 10
2.6293
 20
86.7392
 30
0.0
 11
3.0937
 21
86.8123
 31
0.0
  0
LINE
  8
0
 62
     0
 10
22.6191
 20
66.7879
 30
0.0
 11
22.6191
 21
65.7874
 31
0.0
  0
LINE
  8
0
 62
     0
 10
22.6191
 20
65.7874
 30
0.0
 11
8.61826
 21
65.7874
 31
0.0
  0
LINE
  8
0
 62
     0
 10
8.61826
 20
65.7874
 30
0.0
 11
8.61826
 21
66.7879
 31
0.0
  0
LINE
  8
0
 62
     0
 10
8.61826
 20
66.7879
 30
0.0
 11
7.819
 21
66.7879
 31
0.0
  0
LINE
  8
0
 62
     0
 10
7.819
 20
66.7879
 30
0.0
 11
7.819
 21
69.8885
 31
0.0
  0
LINE
  8
0
 62
     0
 10
7.819
 20
69.8885
 30
0.0
 11
8.61826
 21
69.8885
 31
0.0
  0
LINE
  8
0
 62
     0
 10
8.61826
 20
69.8885
 30
0.0
 11
8.61826
 21
75.6874
 31
0.0
  0
LINE
  8
0
 62
     0
 10
8.61826
 20
75.6874
 30
0.0
 11
7.819
 21
75.6874
 31
0.0
  0
LINE
  8
0
 62
     0
 10
7.819
 20
75.6874
 30
0.0
 11
7.819
 21
78.788
 31
0.0
  0
LINE
  8
0
 62
     0
 10
7.819
 20
78.788
 30
0.0
 11
8.61826
 21
78.788
 31
0.0
  0
LINE
  8
0
 62
     0
 10
8.61826
 20
78.788
 30
0.0
 11
8.61826
 21
79.7885
 31
0.0
  0
LINE
  8
0
 62
     0
 10
8.61826
 20
79.7885
 30
0.0
 11
22.6191
 21
79.7885
 31
0.0
  0
LINE
  8
0
 62
     0
 10
22.6191
 20
79.7885
 30
0.0
 11
22.6191
 21
78.788
 31
0.0
  0
LINE
  8
0
 62
     0
 10
22.6191
 20
78.788
 30
0.0
 11
23.4184
 21
78.788
 31
0.0
  0
LINE
  8
0
 62
     0
 10
23.4184
 20
78.788
 30
0.0
 11
23.4184
 21
75.6874
 31
0.0
  0
LINE
  8
0
 62
     0
 10
23.4184
 20
75.6874
 30
0.0
 11
22.6191
 21
75.6874
 31
0.0
  0
LINE
  8
0
 62
     0
 10
22.6191
 20
75.6874
 30
0.0
 11
22.6191
 21
69.8885
 31
0.0
  0
LINE
  8
0
 62
     0
 10
22.6191
 20
69.8885
 30
0.0
 11
23.4184
 21
69.8885
 31
0.0
  0
LINE
  8
0
 62
     0
 10
23.4184
 20
69.8885
 30
0.0
 11
23.4184
 21
66.7879
 31
0.0
  0
LINE
  8
0
 62
     0
 10
23.4184
 20
66.7879
 30
0.0
 11
22.6191
 21
66.7879
 31
0.0
  0
LINE
  8
0
 62
     0
 10
25.0004
 20
47.7379
 30
0.0
 11
25.0004
 21
46.7374
 31
0.0
  0
LINE
  8
0
 62
     0
 10
25.0004
 20
46.7374
 30
0.0
 11
10.9995
 21
46.7374
 31
0.0
  0
LINE
  8
0
 62
     0
 10
10.9995
 20
46.7374
 30
0.0
 11
10.9995
 21
47.7379
 31
0.0
  0
LINE
  8
0
 62
     0
 10
10.9995
 20
47.7379
 30
0.0
 11
10.2003
 21
47.7379
 31
0.0
  0
LINE
  8
0
 62
     0
 10
10.2003
 20
47.7379
 30
0.0
 11
10.2003
 21
50.8385
 31
0.0
  0
LINE
  8
0
 62
     0
 10
10.2003
 20
50.8385
 30
0.0
 11
10.9995
 21
50.8385
 31
0.0
  0
LINE
  8
0
 62
     0
 10
10.9995
 20
50.8385
 30
0.0
 11
10.9995
 21
56.6374
 31
0.0
  0
LINE
  8
0
 62
     0
 10
10.9995
 20
56.6374
 30
0.0
 11
10.2003
 21
56.6374
 31
0.0
  0
LINE
  8
0
 62
     0
 10
10.2003
 20
56.6374
 30
0.0
 11
10.2003
 21
59.738
 31
0.0
  0
LINE
  8
0
 62
     0
 10
10.2003
 20
59.738
 30
0.0
 11
10.9995
 21
59.738
 31
0.0
  0
LINE
  8
0
 62
     0
 10
10.9995
 20
59.738
 30
0.0
 11
10.9995
 21
60.7385
 31
0.0
  0
LINE
  8
0
 62
     0
 10
10.9995
 20
60.7385
 30
0.0
 11
25.0004
 21
60.7385
 31
0.0
  0
LINE
  8
0
 62
     0
 10
25.0004
 20
60.7385
 30
0.0
 11
25.0004
 21
59.738
 31
0.0
  0
LINE
  8
0
 62
     0
 10
25.0004
 20
59.738
 30
0.0
 11
25.7996
 21
59.738
 31
0.0
  0
LINE
  8
0
 62
     0
 10
25.7996
 20
59.738
 30
0.0
 11
25.7996
 21
56.6374
 31
0.0
  0
LINE
  8
0
 62
     0
 10
25.7996
 20
56.6374
 30
0.0
 11
25.0004
 21
56.6374
 31
0.0
  0
LINE
  8
0
 62
     0
 10
25.0004
 20
56.6374
 30
0.0
 11
25.0004
 21
50.8385
 31
0.0
  0
LINE
  8
0
 62
     0
 10
25.0004
 20
50.8385
 30
0.0
 11
25.7996
 21
50.8385
 31
0.0
  0
LINE
  8
0
 62
     0
 10
25.7996
 20
50.8385
 30
0.0
 11
25.7996
 21
47.7379
 31
0.0
  0
LINE
  8
0
 62
     0
 10
25.7996
 20
47.7379
 30
0.0
 11
25.0004
 21
47.7379
 31
0.0
  0
LINE
  8
0
 62
     0
 10
25.0004
 20
9.63799
 30
0.0
 11
25.0004
 21
8.63755
 31
0.0
  0
LINE
  8
0
 62
     0
 10
25.0004
 20
8.63755
 30
0.0
 11
10.9995
 21
8.63755
 31
0.0
  0
LINE
  8
0
 62
     0
 10
10.9995
 20
8.63755
 30
0.0
 11
10.9995
 21
9.63799
 31
0.0
  0
LINE
  8
0
 62
     0
 10
10.9995
 20
9.63799
 30
0.0
 11
10.2003
 21
9.63799
 31
0.0
  0
LINE
  8
0
 62
     0
 10
10.2003
 20
9.63799
 30
0.0
 11
10.2003
 21
12.7386
 31
0.0
  0
LINE
  8
0
 62
     0
 10
10.2003
 20
12.7386
 30
0.0
 11
10.9995
 21
12.7386
 31
0.0
  0
LINE
  8
0
 62
     0
 10
10.9995
 20
12.7386
 30
0.0
 11
10.9995
 21
18.5374
 31
0.0
  0
LINE
  8
0
 62
     0
 10
10.9995
 20
18.5374
 30
0.0
 11
10.2003
 21
18.5374
 31
0.0
  0
LINE
  8
0
 62
     0
 10
10.2003
 20
18.5374
 30
0.0
 11
10.2003
 21
21.6379
 31
0.0
  0
LINE
  8
0
 62
     0
 10
10.2003
 20
21.6379
 30
0.0
 11
10.9995
 21
21.6379
 31
0.0
  0
LINE
  8
0
 62
     0
 10
10.9995
 20
21.6379
 30
0.0
 11
10.9995
 21
22.6384
 31
0.0
  0
LINE
  8
0
 62
     0
 10
10.9995
 20
22.6384
 30
0.0
 11
25.0004
 21
22.6384
 31
0.0
  0
LINE
  8
0
 62
     0
 10
25.0004
 20
22.6384
 30
0.0
 11
25.0004
 21
21.6379
 31
0.0
  0
LINE
  8
0
 62
     0
 10
25.0004
 20
21.6379
 30
0.0
 11
25.7996
 21
21.6379
 31
0.0
  0
LINE
  8
0
 62
     0
 10
25.7996
 20
21.6379
 30
0.0
 11
25.7996
 21
18.5374
 31
0.0
  0
LINE
  8
0
 62
     0
 10
25.7996
 20
18.5374
 30
0.0
 11
25.0004
 21
18.5374
 31
0.0
  0
LINE
  8
0
 62
     0
 10
25.0004
 20
18.5374
 30
0.0
 11
25.0004
 21
12.7386
 31
0.0
  0
LINE
  8
0
 62
     0
 10
25.0004
 20
12.7386
 30
0.0
 11
25.7996
 21
12.7386
 31
0.0
  0
LINE
  8
0
 62
     0
 10
25.7996
 20
12.7386
 30
0.0
 11
25.7996
 21
9.63799
 31
0.0
  0
LINE
  8
0
 62
     0
 10
25.7996
 20
9.63799
 30
0.0
 11
25.0004
 21
9.63799
 31
0.0
  0
LINE
  8
0
 62
     0
 10
29.7629
 20
28.688
 30
0.0
 11
29.7629
 21
27.6876
 31
0.0
  0
LINE
  8
0
 62
     0
 10
29.7629
 20
27.6876
 30
0.0
 11
15.7634
 21
27.6876
 31
0.0
  0
LINE
  8
0
 62
     0
 10
15.7634
 20
27.6876
 30
0.0
 11
15.7634
 21
28.688
 31
0.0
  0
LINE
  8
0
 62
     0
 10
15.7634
 20
28.688
 30
0.0
 11
14.9628
 21
28.688
 31
0.0
  0
LINE
  8
0
 62
     0
 10
14.9628
 20
28.688
 30
0.0
 11
14.9628
 21
31.7886
 31
0.0
  0
LINE
  8
0
 62
     0
 10
14.9628
 20
31.7886
 30
0.0
 11
15.7634
 21
31.7886
 31
0.0
  0
LINE
  8
0
 62
     0
 10
15.7634
 20
31.7886
 30
0.0
 11
15.7634
 21
37.5874
 31
0.0
  0
LINE
  8
0
 62
     0
 10
15.7634
 20
37.5874
 30
0.0
 11
14.9628
 21
37.5874
 31
0.0
  0
LINE
  8
0
 62
     0
 10
14.9628
 20
37.5874
 30
0.0
 11
14.9628
 21
40.688
 31
0.0
  0
LINE
  8
0
 62
     0
 10
14.9628
 20
40.688
 30
0.0
 11
15.7634
 21
40.688
 31
0.0
  0
LINE
  8
0
 62
     0
 10
15.7634
 20
40.688
 30
0.0
 11
15.7634
 21
41.6885
 31
0.0
  0
LINE
  8
0
 62
     0
 10
15.7634
 20
41.6885
 30
0.0
 11
29.7629
 21
41.6885
 31
0.0
  0
LINE
  8
0
 62
     0
 10
29.7629
 20
41.6885
 30
0.0
 11
29.7629
 21
40.688
 31
0.0
  0
LINE
  8
0
 62
     0
 10
29.7629
 20
40.688
 30
0.0
 11
30.5621
 21
40.688
 31
0.0
  0
LINE
  8
0
 62
     0
 10
30.5621
 20
40.688
 30
0.0
 11
30.5621
 21
37.5874
 31
0.0
  0
LINE
  8
0
 62
     0
 10
30.5621
 20
37.5874
 30
0.0
 11
29.7629
 21
37.5874
 31
0.0
  0
LINE
  8
0
 62
     0
 10
29.7629
 20
37.5874
 30
0.0
 11
29.7629
 21
31.7886
 31
0.0
  0
LINE
  8
0
 62
     0
 10
29.7629
 20
31.7886
 30
0.0
 11
30.5621
 21
31.7886
 31
0.0
  0
LINE
  8
0
 62
     0
 10
30.5621
 20
31.7886
 30
0.0
 11
30.5621
 21
28.688
 31
0.0
  0
LINE
  8
0
 62
     0
 10
30.5621
 20
28.688
 30
0.0
 11
29.7629
 21
28.688
 31
0.0
  0
LINE
  8
0
 62
     0
 10
41.6691
 20
66.7879
 30
0.0
 11
41.6691
 21
65.7874
 31
0.0
  0
LINE
  8
0
 62
     0
 10
41.6691
 20
65.7874
 30
0.0
 11
27.6683
 21
65.7874
 31
0.0
  0
LINE
  8
0
 62
     0
 10
27.6683
 20
65.7874
 30
0.0
 11
27.6683
 21
66.7879
 31
0.0
  0
LINE
  8
0
 62
     0
 10
27.6683
 20
66.7879
 30
0.0
 11
26.869
 21
66.7879
 31
0.0
  0
LINE
  8
0
 62
     0
 10
26.869
 20
66.7879
 30
0.0
 11
26.869
 21
69.8885
 31
0.0
  0
LINE
  8
0
 62
     0
 10
26.869
 20
69.8885
 30
0.0
 11
27.6683
 21
69.8885
 31
0.0
  0
LINE
  8
0
 62
     0
 10
27.6683
 20
69.8885
 30
0.0
 11
27.6683
 21
75.6874
 31
0.0
  0
LINE
  8
0
 62
     0
 10
27.6683
 20
75.6874
 30
0.0
 11
26.869
 21
75.6874
 31
0.0
  0
LINE
  8
0
 62
     0
 10
26.869
 20
75.6874
 30
0.0
 11
26.869
 21
78.788
 31
0.0
  0
LINE
  8
0
 62
     0
 10
26.869
 20
78.788
 30
0.0
 11
27.6683
 21
78.788
 31
0.0
  0
LINE
  8
0
 62
     0
 10
27.6683
 20
78.788
 30
0.0
 11
27.6683
 21
79.7885
 31
0.0
  0
LINE
  8
0
 62
     0
 10
27.6683
 20
79.7885
 30
0.0
 11
41.6691
 21
79.7885
 31
0.0
  0
LINE
  8
0
 62
     0
 10
41.6691
 20
79.7885
 30
0.0
 11
41.6691
 21
78.788
 31
0.0
  0
LINE
  8
0
 62
     0
 10
41.6691
 20
78.788
 30
0.0
 11
42.4684
 21
78.788
 31
0.0
  0
LINE
  8
0
 62
     0
 10
42.4684
 20
78.788
 30
0.0
 11
42.4684
 21
75.6874
 31
0.0
  0
LINE
  8
0
 62
     0
 10
42.4684
 20
75.6874
 30
0.0
 11
41.6691
 21
75.6874
 31
0.0
  0
LINE
  8
0
 62
     0
 10
41.6691
 20
75.6874
 30
0.0
 11
41.6691
 21
69.8885
 31
0.0
  0
LINE
  8
0
 62
     0
 10
41.6691
 20
69.8885
 30
0.0
 11
42.4684
 21
69.8885
 31
0.0
  0
LINE
  8
0
 62
     0
 10
42.4684
 20
69.8885
 30
0.0
 11
42.4684
 21
66.7879
 31
0.0
  0
LINE
  8
0
 62
     0
 10
42.4684
 20
66.7879
 30
0.0
 11
41.6691
 21
66.7879
 31
0.0
  0
LINE
  8
0
 62
     0
 10
46.4301
 20
47.7379
 30
0.0
 11
46.4301
 21
46.7374
 31
0.0
  0
LINE
  8
0
 62
     0
 10
46.4301
 20
46.7374
 30
0.0
 11
32.4308
 21
46.7374
 31
0.0
  0
LINE
  8
0
 62
     0
 10
32.4308
 20
46.7374
 30
0.0
 11
32.4308
 21
47.7379
 31
0.0
  0
LINE
  8
0
 62
     0
 10
32.4308
 20
47.7379
 30
0.0
 11
31.6315
 21
47.7379
 31
0.0
  0
LINE
  8
0
 62
     0
 10
31.6315
 20
47.7379
 30
0.0
 11
31.6315
 21
50.8385
 31
0.0
  0
LINE
  8
0
 62
     0
 10
31.6315
 20
50.8385
 30
0.0
 11
32.4308
 21
50.8385
 31
0.0
  0
LINE
  8
0
 62
     0
 10
32.4308
 20
50.8385
 30
0.0
 11
32.4308
 21
56.6374
 31
0.0
  0
LINE
  8
0
 62
     0
 10
32.4308
 20
56.6374
 30
0.0
 11
31.6315
 21
56.6374
 31
0.0
  0
LINE
  8
0
 62
     0
 10
31.6315
 20
56.6374
 30
0.0
 11
31.6315
 21
59.738
 31
0.0
  0
LINE
  8
0
 62
     0
 10
31.6315
 20
59.738
 30
0.0
 11
32.4308
 21
59.738
 31
0.0
  0
LINE
  8
0
 62
     0
 10
32.4308
 20
59.738
 30
0.0
 11
32.4308
 21
60.7385
 31
0.0
  0
LINE
  8
0
 62
     0
 10
32.4308
 20
60.7385
 30
0.0
 11
46.4301
 21
60.7385
 31
0.0
  0
LINE
  8
0
 62
     0
 10
46.4301
 20
60.7385
 30
0.0
 11
46.4301
 21
59.738
 31
0.0
  0
LINE
  8
0
 62
     0
 10
46.4301
 20
59.738
 30
0.0
 11
47.2309
 21
59.738
 31
0.0
  0
LINE
  8
0
 62
     0
 10
47.2309
 20
59.738
 30
0.0
 11
47.2309
 21
56.6374
 31
0.0
  0
LINE
  8
0
 62
     0
 10
47.2309
 20
56.6374
 30
0.0
 11
46.4301
 21
56.6374
 31
0.0
  0
LINE
  8
0
 62
     0
 10
46.4301
 20
56.6374
 30
0.0
 11
46.4301
 21
50.8385
 31
0.0
  0
LINE
  8
0
 62
     0
 10
46.4301
 20
50.8385
 30
0.0
 11
47.2309
 21
50.8385
 31
0.0
  0
LINE
  8
0
 62
     0
 10
47.2309
 20
50.8385
 30
0.0
 11
47.2309
 21
47.7379
 31
0.0
  0
LINE
  8
0
 62
     0
 10
47.2309
 20
47.7379
 30
0.0
 11
46.4301
 21
47.7379
 31
0.0
  0
LINE
  8
0
 62
     0
 10
46.4301
 20
9.63799
 30
0.0
 11
46.4301
 21
8.63755
 31
0.0
  0
LINE
  8
0
 62
     0
 10
46.4301
 20
8.63755
 30
0.0
 11
32.4308
 21
8.63755
 31
0.0
  0
LINE
  8
0
 62
     0
 10
32.4308
 20
8.63755
 30
0.0
 11
32.4308
 21
9.63799
 31
0.0
  0
LINE
  8
0
 62
     0
 10
32.4308
 20
9.63799
 30
0.0
 11
31.6315
 21
9.63799
 31
0.0
  0
LINE
  8
0
 62
     0
 10
31.6315
 20
9.63799
 30
0.0
 11
31.6315
 21
12.7386
 31
0.0
  0
LINE
  8
0
 62
     0
 10
31.6315
 20
12.7386
 30
0.0
 11
32.4308
 21
12.7386
 31
0.0
  0
LINE
  8
0
 62
     0
 10
32.4308
 20
12.7386
 30
0.0
 11
32.4308
 21
18.5374
 31
0.0
  0
LINE
  8
0
 62
     0
 10
32.4308
 20
18.5374
 30
0.0
 11
31.6315
 21
18.5374
 31
0.0
  0
LINE
  8
0
 62
     0
 10
31.6315
 20
18.5374
 30
0.0
 11
31.6315
 21
21.6379
 31
0.0
  0
LINE
  8
0
 62
     0
 10
31.6315
 20
21.6379
 30
0.0
 11
32.4308
 21
21.6379
 31
0.0
  0
LINE
  8
0
 62
     0
 10
32.4308
 20
21.6379
 30
0.0
 11
32.4308
 21
22.6384
 31
0.0
  0
LINE
  8
0
 62
     0
 10
32.4308
 20
22.6384
 30
0.0
 11
46.4301
 21
22.6384
 31
0.0
  0
LINE
  8
0
 62
     0
 10
46.4301
 20
22.6384
 30
0.0
 11
46.4301
 21
21.6379
 31
0.0
  0
LINE
  8
0
 62
     0
 10
46.4301
 20
21.6379
 30
0.0
 11
47.2309
 21
21.6379
 31
0.0
  0
LINE
  8
0
 62
     0
 10
47.2309
 20
21.6379
 30
0.0
 11
47.2309
 21
18.5374
 31
0.0
  0
LINE
  8
0
 62
     0
 10
47.2309
 20
18.5374
 30
0.0
 11
46.4301
 21
18.5374
 31
0.0
  0
LINE
  8
0
 62
     0
 10
46.4301
 20
18.5374
 30
0.0
 11
46.4301
 21
12.7386
 31
0.0
  0
LINE
  8
0
 62
     0
 10
46.4301
 20
12.7386
 30
0.0
 11
47.2309
 21
12.7386
 31
0.0
  0
LINE
  8
0
 62
     0
 10
47.2309
 20
12.7386
 30
0.0
 11
47.2309
 21
9.63799
 31
0.0
  0
LINE
  8
0
 62
     0
 10
47.2309
 20
9.63799
 30
0.0
 11
46.4301
 21
9.63799
 31
0.0
  0
LINE
  8
0
 62
     0
 10
55.9551
 20
28.688
 30
0.0
 11
55.9551
 21
27.6876
 31
0.0
  0
LINE
  8
0
 62
     0
 10
55.9551
 20
27.6876
 30
0.0
 11
41.9559
 21
27.6876
 31
0.0
  0
LINE
  8
0
 62
     0
 10
41.9559
 20
27.6876
 30
0.0
 11
41.9559
 21
28.688
 31
0.0
  0
LINE
  8
0
 62
     0
 10
41.9559
 20
28.688
 30
0.0
 11
41.1551
 21
28.688
 31
0.0
  0
LINE
  8
0
 62
     0
 10
41.1551
 20
28.688
 30
0.0
 11
41.1551
 21
31.7886
 31
0.0
  0
LINE
  8
0
 62
     0
 10
41.1551
 20
31.7886
 30
0.0
 11
41.9559
 21
31.7886
 31
0.0
  0
LINE
  8
0
 62
     0
 10
41.9559
 20
31.7886
 30
0.0
 11
41.9559
 21
37.5874
 31
0.0
  0
LINE
  8
0
 62
     0
 10
41.9559
 20
37.5874
 30
0.0
 11
41.1551
 21
37.5874
 31
0.0
  0
LINE
  8
0
 62
     0
 10
41.1551
 20
37.5874
 30
0.0
 11
41.1551
 21
40.688
 31
0.0
  0
LINE
  8
0
 62
     0
 10
41.1551
 20
40.688
 30
0.0
 11
41.9559
 21
40.688
 31
0.0
  0
LINE
  8
0
 62
     0
 10
41.9559
 20
40.688
 30
0.0
 11
41.9559
 21
41.6885
 31
0.0
  0
LINE
  8
0
 62
     0
 10
41.9559
 20
41.6885
 30
0.0
 11
55.9551
 21
41.6885
 31
0.0
  0
LINE
  8
0
 62
     0
 10
55.9551
 20
41.6885
 30
0.0
 11
55.9551
 21
40.688
 31
0.0
  0
LINE
  8
0
 62
     0
 10
55.9551
 20
40.688
 30
0.0
 11
56.7559
 21
40.688
 31
0.0
  0
LINE
  8
0
 62
     0
 10
56.7559
 20
40.688
 30
0.0
 11
56.7559
 21
37.5874
 31
0.0
  0
LINE
  8
0
 62
     0
 10
56.7559
 20
37.5874
 30
0.0
 11
55.9551
 21
37.5874
 31
0.0
  0
LINE
  8
0
 62
     0
 10
55.9551
 20
37.5874
 30
0.0
 11
55.9551
 21
31.7886
 31
0.0
  0
LINE
  8
0
 62
     0
 10
55.9551
 20
31.7886
 30
0.0
 11
56.7559
 21
31.7886
 31
0.0
  0
LINE
  8
0
 62
     0
 10
56.7559
 20
31.7886
 30
0.0
 11
56.7559
 21
28.688
 31
0.0
  0
LINE
  8
0
 62
     0
 10
56.7559
 20
28.688
 30
0.0
 11
55.9551
 21
28.688
 31
0.0
  0
LINE
  8
0
 62
     0
 10
60.7191
 20
66.7879
 30
0.0
 11
60.7191
 21
65.7874
 31
0.0
  0
LINE
  8
0
 62
     0
 10
60.7191
 20
65.7874
 30
0.0
 11
46.7184
 21
65.7874
 31
0.0
  0
LINE
  8
0
 62
     0
 10
46.7184
 20
65.7874
 30
0.0
 11
46.7184
 21
66.7879
 31
0.0
  0
LINE
  8
0
 62
     0
 10
46.7184
 20
66.7879
 30
0.0
 11
45.919
 21
66.7879
 31
0.0
  0
LINE
  8
0
 62
     0
 10
45.919
 20
66.7879
 30
0.0
 11
45.919
 21
69.8885
 31
0.0
  0
LINE
  8
0
 62
     0
 10
45.919
 20
69.8885
 30
0.0
 11
46.7184
 21
69.8885
 31
0.0
  0
LINE
  8
0
 62
     0
 10
46.7184
 20
69.8885
 30
0.0
 11
46.7184
 21
75.6874
 31
0.0
  0
LINE
  8
0
 62
     0
 10
46.7184
 20
75.6874
 30
0.0
 11
45.919
 21
75.6874
 31
0.0
  0
LINE
  8
0
 62
     0
 10
45.919
 20
75.6874
 30
0.0
 11
45.919
 21
78.788
 31
0.0
  0
LINE
  8
0
 62
     0
 10
45.919
 20
78.788
 30
0.0
 11
46.7184
 21
78.788
 31
0.0
  0
LINE
  8
0
 62
     0
 10
46.7184
 20
78.788
 30
0.0
 11
46.7184
 21
79.7885
 31
0.0
  0
LINE
  8
0
 62
     0
 10
46.7184
 20
79.7885
 30
0.0
 11
60.7191
 21
79.7885
 31
0.0
  0
LINE
  8
0
 62
     0
 10
60.7191
 20
79.7885
 30
0.0
 11
60.7191
 21
78.788
 31
0.0
  0
LINE
  8
0
 62
     0
 10
60.7191
 20
78.788
 30
0.0
 11
61.5184
 21
78.788
 31
0.0
  0
LINE
  8
0
 62
     0
 10
61.5184
 20
78.788
 30
0.0
 11
61.5184
 21
75.6874
 31
0.0
  0
LINE
  8
0
 62
     0
 10
61.5184
 20
75.6874
 30
0.0
 11
60.7191
 21
75.6874
 31
0.0
  0
LINE
  8
0
 62
     0
 10
60.7191
 20
75.6874
 30
0.0
 11
60.7191
 21
69.8885
 31
0.0
  0
LINE
  8
0
 62
     0
 10
60.7191
 20
69.8885
 30
0.0
 11
61.5184
 21
69.8885
 31
0.0
  0
LINE
  8
0
 62
     0
 10
61.5184
 20
69.8885
 30
0.0
 11
61.5184
 21
66.7879
 31
0.0
  0
LINE
  8
0
 62
     0
 10
61.5184
 20
66.7879
 30
0.0
 11
60.7191
 21
66.7879
 31
0.0
  0
LINE
  8
0
 62
     0
 10
65.4816
 20
47.7379
 30
0.0
 11
65.4816
 21
46.7374
 31
0.0
  0
LINE
  8
0
 62
     0
 10
65.4816
 20
46.7374
 30
0.0
 11
51.4823
 21
46.7374
 31
0.0
  0
LINE
  8
0
 62
     0
 10
51.4823
 20
46.7374
 30
0.0
 11
51.4823
 21
47.7379
 31
0.0
  0
LINE
  8
0
 62
     0
 10
51.4823
 20
47.7379
 30
0.0
 11
50.6815
 21
47.7379
 31
0.0
  0
LINE
  8
0
 62
     0
 10
50.6815
 20
47.7379
 30
0.0
 11
50.6815
 21
50.8385
 31
0.0
  0
LINE
  8
0
 62
     0
 10
50.6815
 20
50.8385
 30
0.0
 11
51.4823
 21
50.8385
 31
0.0
  0
LINE
  8
0
 62
     0
 10
51.4823
 20
50.8385
 30
0.0
 11
51.4823
 21
56.6374
 31
0.0
  0
LINE
  8
0
 62
     0
 10
51.4823
 20
56.6374
 30
0.0
 11
50.6815
 21
56.6374
 31
0.0
  0
LINE
  8
0
 62
     0
 10
50.6815
 20
56.6374
 30
0.0
 11
50.6815
 21
59.738
 31
0.0
  0
LINE
  8
0
 62
     0
 10
50.6815
 20
59.738
 30
0.0
 11
51.4823
 21
59.738
 31
0.0
  0
LINE
  8
0
 62
     0
 10
51.4823
 20
59.738
 30
0.0
 11
51.4823
 21
60.7385
 31
0.0
  0
LINE
  8
0
 62
     0
 10
51.4823
 20
60.7385
 30
0.0
 11
65.4816
 21
60.7385
 31
0.0
  0
LINE
  8
0
 62
     0
 10
65.4816
 20
60.7385
 30
0.0
 11
65.4816
 21
59.738
 31
0.0
  0
LINE
  8
0
 62
     0
 10
65.4816
 20
59.738
 30
0.0
 11
66.2824
 21
59.738
 31
0.0
  0
LINE
  8
0
 62
     0
 10
66.2824
 20
59.738
 30
0.0
 11
66.2824
 21
56.6374
 31
0.0
  0
LINE
  8
0
 62
     0
 10
66.2824
 20
56.6374
 30
0.0
 11
65.4816
 21
56.6374
 31
0.0
  0
LINE
  8
0
 62
     0
 10
65.4816
 20
56.6374
 30
0.0
 11
65.4816
 21
50.8385
 31
0.0
  0
LINE
  8
0
 62
     0
 10
65.4816
 20
50.8385
 30
0.0
 11
66.2824
 21
50.8385
 31
0.0
  0
LINE
  8
0
 62
     0
 10
66.2824
 20
50.8385
 30
0.0
 11
66.2824
 21
47.7379
 31
0.0
  0
LINE
  8
0
 62
     0
 10
66.2824
 20
47.7379
 30
0.0
 11
65.4816
 21
47.7379
 31
0.0
  0
LINE
  8
0
 62
     0
 10
65.4816
 20
9.63799
 30
0.0
 11
65.4816
 21
8.63755
 31
0.0
  0
LINE
  8
0
 62
     0
 10
65.4816
 20
8.63755
 30
0.0
 11
51.4823
 21
8.63755
 31
0.0
  0
LINE
  8
0
 62
     0
 10
51.4823
 20
8.63755
 30
0.0
 11
51.4823
 21
9.63799
 31
0.0
  0
LINE
  8
0
 62
     0
 10
51.4823
 20
9.63799
 30
0.0
 11
50.6815
 21
9.63799
 31
0.0
  0
LINE
  8
0
 62
     0
 10
50.6815
 20
9.63799
 30
0.0
 11
50.6815
 21
12.7386
 31
0.0
  0
LINE
  8
0
 62
     0
 10
50.6815
 20
12.7386
 30
0.0
 11
51.4823
 21
12.7386
 31
0.0
  0
LINE
  8
0
 62
     0
 10
51.4823
 20
12.7386
 30
0.0
 11
51.4823
 21
18.5374
 31
0.0
  0
LINE
  8
0
 62
     0
 10
51.4823
 20
18.5374
 30
0.0
 11
50.6815
 21
18.5374
 31
0.0
  0
LINE
  8
0
 62
     0
 10
50.6815
 20
18.5374
 30
0.0
 11
50.6815
 21
21.6379
 31
0.0
  0
LINE
  8
0
 62
     0
 10
50.6815
 20
21.6379
 30
0.0
 11
51.4823
 21
21.6379
 31
0.0
  0
LINE
  8
0
 62
     0
 10
51.4823
 20
21.6379
 30
0.0
 11
51.4823
 21
22.6384
 31
0.0
  0
LINE
  8
0
 62
     0
 10
51.4823
 20
22.6384
 30
0.0
 11
65.4816
 21
22.6384
 31
0.0
  0
LINE
  8
0
 62
     0
 10
65.4816
 20
22.6384
 30
0.0
 11
65.4816
 21
21.6379
 31
0.0
  0
LINE
  8
0
 62
     0
 10
65.4816
 20
21.6379
 30
0.0
 11
66.2824
 21
21.6379
 31
0.0
  0
LINE
  8
0
 62
     0
 10
66.2824
 20
21.6379
 30
0.0
 11
66.2824
 21
18.5374
 31
0.0
  0
LINE
  8
0
 62
     0
 10
66.2824
 20
18.5374
 30
0.0
 11
65.4816
 21
18.5374
 31
0.0
  0
LINE
  8
0
 62
     0
 10
65.4816
 20
18.5374
 30
0.0
 11
65.4816
 21
12.7386
 31
0.0
  0
LINE
  8
0
 62
     0
 10
65.4816
 20
12.7386
 30
0.0
 11
66.2824
 21
12.7386
 31
0.0
  0
LINE
  8
0
 62
     0
 10
66.2824
 20
12.7386
 30
0.0
 11
66.2824
 21
9.63799
 31
0.0
  0
LINE
  8
0
 62
     0
 10
66.2824
 20
9.63799
 30
0.0
 11
65.4816
 21
9.63799
 31
0.0
  0
LINE
  8
0
 62
     0
 10
75.0051
 20
28.688
 30
0.0
 11
75.0051
 21
27.6876
 31
0.0
  0
LINE
  8
0
 62
     0
 10
75.0051
 20
27.6876
 30
0.0
 11
61.0059
 21
27.6876
 31
0.0
  0
LINE
  8
0
 62
     0
 10
61.0059
 20
27.6876
 30
0.0
 11
61.0059
 21
28.688
 31
0.0
  0
LINE
  8
0
 62
     0
 10
61.0059
 20
28.688
 30
0.0
 11
60.2051
 21
28.688
 31
0.0
  0
LINE
  8
0
 62
     0
 10
60.2051
 20
28.688
 30
0.0
 11
60.2051
 21
31.7886
 31
0.0
  0
LINE
  8
0
 62
     0
 10
60.2051
 20
31.7886
 30
0.0
 11
61.0059
 21
31.7886
 31
0.0
  0
LINE
  8
0
 62
     0
 10
61.0059
 20
31.7886
 30
0.0
 11
61.0059
 21
37.5874
 31
0.0
  0
LINE
  8
0
 62
     0
 10
61.0059
 20
37.5874
 30
0.0
 11
60.2051
 21
37.5874
 31
0.0
  0
LINE
  8
0
 62
     0
 10
60.2051
 20
37.5874
 30
0.0
 11
60.2051
 21
40.688
 31
0.0
  0
LINE
  8
0
 62
     0
 10
60.2051
 20
40.688
 30
0.0
 11
61.0059
 21
40.688
 31
0.0
  0
LINE
  8
0
 62
     0
 10
61.0059
 20
40.688
 30
0.0
 11
61.0059
 21
41.6885
 31
0.0
  0
LINE
  8
0
 62
     0
 10
61.0059
 20
41.6885
 30
0.0
 11
75.0051
 21
41.6885
 31
0.0
  0
LINE
  8
0
 62
     0
 10
75.0051
 20
41.6885
 30
0.0
 11
75.0051
 21
40.688
 31
0.0
  0
LINE
  8
0
 62
     0
 10
75.0051
 20
40.688
 30
0.0
 11
75.8059
 21
40.688
 31
0.0
  0
LINE
  8
0
 62
     0
 10
75.8059
 20
40.688
 30
0.0
 11
75.8059
 21
37.5874
 31
0.0
  0
LINE
  8
0
 62
     0
 10
75.8059
 20
37.5874
 30
0.0
 11
75.0051
 21
37.5874
 31
0.0
  0
LINE
  8
0
 62
     0
 10
75.0051
 20
37.5874
 30
0.0
 11
75.0051
 21
31.7886
 31
0.0
  0
LINE
  8
0
 62
     0
 10
75.0051
 20
31.7886
 30
0.0
 11
75.8059
 21
31.7886
 31
0.0
  0
LINE
  8
0
 62
     0
 10
75.8059
 20
31.7886
 30
0.0
 11
75.8059
 21
28.688
 31
0.0
  0
LINE
  8
0
 62
     0
 10
75.8059
 20
28.688
 30
0.0
 11
75.0051
 21
28.688
 31
0.0
  0
LINE
  8
0
 62
     0
 10
79.7691
 20
66.7879
 30
0.0
 11
79.7691
 21
65.7874
 31
0.0
  0
LINE
  8
0
 62
     0
 10
79.7691
 20
65.7874
 30
0.0
 11
65.7684
 21
65.7874
 31
0.0
  0
LINE
  8
0
 62
     0
 10
65.7684
 20
65.7874
 30
0.0
 11
65.7684
 21
66.7879
 31
0.0
  0
LINE
  8
0
 62
     0
 10
65.7684
 20
66.7879
 30
0.0
 11
64.969
 21
66.7879
 31
0.0
  0
LINE
  8
0
 62
     0
 10
64.969
 20
66.7879
 30
0.0
 11
64.969
 21
69.8885
 31
0.0
  0
LINE
  8
0
 62
     0
 10
64.969
 20
69.8885
 30
0.0
 11
65.7684
 21
69.8885
 31
0.0
  0
LINE
  8
0
 62
     0
 10
65.7684
 20
69.8885
 30
0.0
 11
65.7684
 21
75.6874
 31
0.0
  0
LINE
  8
0
 62
     0
 10
65.7684
 20
75.6874
 30
0.0
 11
64.969
 21
75.6874
 31
0.0
  0
LINE
  8
0
 62
     0
 10
64.969
 20
75.6874
 30
0.0
 11
64.969
 21
78.788
 31
0.0
  0
LINE
  8
0
 62
     0
 10
64.969
 20
78.788
 30
0.0
 11
65.7684
 21
78.788
 31
0.0
  0
LINE
  8
0
 62
     0
 10
65.7684
 20
78.788
 30
0.0
 11
65.7684
 21
79.7885
 31
0.0
  0
LINE
  8
0
 62
     0
 10
65.7684
 20
79.7885
 30
0.0
 11
79.7691
 21
79.7885
 31
0.0
  0
LINE
  8
0
 62
     0
 10
79.7691
 20
79.7885
 30
0.0
 11
79.7691
 21
78.788
 31
0.0
  0
LINE
  8
0
 62
     0
 10
79.7691
 20
78.788
 30
0.0
 11
80.5684
 21
78.788
 31
0.0
  0
LINE
  8
0
 62
     0
 10
80.5684
 20
78.788
 30
0.0
 11
80.5684
 21
75.6874
 31
0.0
  0
LINE
  8
0
 62
     0
 10
80.5684
 20
75.6874
 30
0.0
 11
79.7691
 21
75.6874
 31
0.0
  0
LINE
  8
0
 62
     0
 10
79.7691
 20
75.6874
 30
0.0
 11
79.7691
 21
69.8885
 31
0.0
  0
LINE
  8
0
 62
     0
 10
79.7691
 20
69.8885
 30
0.0
 11
80.5684
 21
69.8885
 31
0.0
  0
LINE
  8
0
 62
     0
 10
80.5684
 20
69.8885
 30
0.0
 11
80.5684
 21
66.7879
 31
0.0
  0
LINE
  8
0
 62
     0
 10
80.5684
 20
66.7879
 30
0.0
 11
79.7691
 21
66.7879
 31
0.0
  0
LINE
  8
0
 62
     0
 10
84.5316
 20
47.7379
 30
0.0
 11
84.5316
 21
46.7374
 31
0.0
  0
LINE
  8
0
 62
     0
 10
84.5316
 20
46.7374
 30
0.0
 11
70.5323
 21
46.7374
 31
0.0
  0
LINE
  8
0
 62
     0
 10
70.5323
 20
46.7374
 30
0.0
 11
70.5323
 21
47.7379
 31
0.0
  0
LINE
  8
0
 62
     0
 10
70.5323
 20
47.7379
 30
0.0
 11
69.7315
 21
47.7379
 31
0.0
  0
LINE
  8
0
 62
     0
 10
69.7315
 20
47.7379
 30
0.0
 11
69.7315
 21
50.8385
 31
0.0
  0
LINE
  8
0
 62
     0
 10
69.7315
 20
50.8385
 30
0.0
 11
70.5323
 21
50.8385
 31
0.0
  0
LINE
  8
0
 62
     0
 10
70.5323
 20
50.8385
 30
0.0
 11
70.5323
 21
56.6374
 31
0.0
  0
LINE
  8
0
 62
     0
 10
70.5323
 20
56.6374
 30
0.0
 11
69.7315
 21
56.6374
 31
0.0
  0
LINE
  8
0
 62
     0
 10
69.7315
 20
56.6374
 30
0.0
 11
69.7315
 21
59.738
 31
0.0
  0
LINE
  8
0
 62
     0
 10
69.7315
 20
59.738
 30
0.0
 11
70.5323
 21
59.738
 31
0.0
  0
LINE
  8
0
 62
     0
 10
70.5323
 20
59.738
 30
0.0
 11
70.5323
 21
60.7385
 31
0.0
  0
LINE
  8
0
 62
     0
 10
70.5323
 20
60.7385
 30
0.0
 11
84.5316
 21
60.7385
 31
0.0
  0
LINE
  8
0
 62
     0
 10
84.5316
 20
60.7385
 30
0.0
 11
84.5316
 21
59.738
 31
0.0
  0
LINE
  8
0
 62
     0
 10
84.5316
 20
59.738
 30
0.0
 11
85.3309
 21
59.738
 31
0.0
  0
LINE
  8
0
 62
     0
 10
85.3309
 20
59.738
 30
0.0
 11
85.3309
 21
56.6374
 31
0.0
  0
LINE
  8
0
 62
     0
 10
85.3309
 20
56.6374
 30
0.0
 11
84.5316
 21
56.6374
 31
0.0
  0
LINE
  8
0
 62
     0
 10
84.5316
 20
56.6374
 30
0.0
 11
84.5316
 21
50.8385
 31
0.0
  0
LINE
  8
0
 62
     0
 10
84.5316
 20
50.8385
 30
0.0
 11
85.3309
 21
50.8385
 31
0.0
  0
LINE
  8
0
 62
     0
 10
85.3309
 20
50.8385
 30
0.0
 11
85.3309
 21
47.7379
 31
0.0
  0
LINE
  8
0
 62
     0
 10
85.3309
 20
47.7379
 30
0.0
 11
84.5316
 21
47.7379
 31
0.0
  0
LINE
  8
0
 62
     0
 10
94.0551
 20
28.688
 30
0.0
 11
94.0551
 21
27.6876
 31
0.0
  0
LINE
  8
0
 62
     0
 10
94.0551
 20
27.6876
 30
0.0
 11
80.0559
 21
27.6876
 31
0.0
  0
LINE
  8
0
 62
     0
 10
80.0559
 20
27.6876
 30
0.0
 11
80.0559
 21
28.688
 31
0.0
  0
LINE
  8
0
 62
     0
 10
80.0559
 20
28.688
 30
0.0
 11
79.2551
 21
28.688
 31
0.0
  0
LINE
  8
0
 62
     0
 10
79.2551
 20
28.688
 30
0.0
 11
79.2551
 21
31.7886
 31
0.0
  0
LINE
  8
0
 62
     0
 10
79.2551
 20
31.7886
 30
0.0
 11
80.0559
 21
31.7886
 31
0.0
  0
LINE
  8
0
 62
     0
 10
80.0559
 20
31.7886
 30
0.0
 11
80.0559
 21
37.5874
 31
0.0
  0
LINE
  8
0
 62
     0
 10
80.0559
 20
37.5874
 30
0.0
 11
79.2551
 21
37.5874
 31
0.0
  0
LINE
  8
0
 62
     0
 10
79.2551
 20
37.5874
 30
0.0
 11
79.2551
 21
40.688
 31
0.0
  0
LINE
  8
0
 62
     0
 10
79.2551
 20
40.688
 30
0.0
 11
80.0559
 21
40.688
 31
0.0
  0
LINE
  8
0
 62
     0
 10
80.0559
 20
40.688
 30
0.0
 11
80.0559
 21
41.6885
 31
0.0
  0
LINE
  8
0
 62
     0
 10
80.0559
 20
41.6885
 30
0.0
 11
94.0551
 21
41.6885
 31
0.0
  0
LINE
  8
0
 62
     0
 10
94.0551
 20
41.6885
 30
0.0
 11
94.0551
 21
40.688
 31
0.0
  0
LINE
  8
0
 62
     0
 10
94.0551
 20
40.688
 30
0.0
 11
94.8559
 21
40.688
 31
0.0
  0
LINE
  8
0
 62
     0
 10
94.8559
 20
40.688
 30
0.0
 11
94.8559
 21
37.5874
 31
0.0
  0
LINE
  8
0
 62
     0
 10
94.8559
 20
37.5874
 30
0.0
 11
94.0551
 21
37.5874
 31
0.0
  0
LINE
  8
0
 62
     0
 10
94.0551
 20
37.5874
 30
0.0
 11
94.0551
 21
31.7886
 31
0.0
  0
LINE
  8
0
 62
     0
 10
94.0551
 20
31.7886
 30
0.0
 11
94.8559
 21
31.7886
 31
0.0
  0
LINE
  8
0
 62
     0
 10
94.8559
 20
31.7886
 30
0.0
 11
94.8559
 21
28.688
 31
0.0
  0
LINE
  8
0
 62
     0
 10
94.8559
 20
28.688
 30
0.0
 11
94.0551
 21
28.688
 31
0.0
  0
LINE
  8
0
 62
     0
 10
98.8191
 20
66.7879
 30
0.0
 11
98.8191
 21
65.7874
 31
0.0
  0
LINE
  8
0
 62
     0
 10
98.8191
 20
65.7874
 30
0.0
 11
84.8184
 21
65.7874
 31
0.0
  0
LINE
  8
0
 62
     0
 10
84.8184
 20
65.7874
 30
0.0
 11
84.8184
 21
66.7879
 31
0.0
  0
LINE
  8
0
 62
     0
 10
84.8184
 20
66.7879
 30
0.0
 11
84.019
 21
66.7879
 31
0.0
  0
LINE
  8
0
 62
     0
 10
84.019
 20
66.7879
 30
0.0
 11
84.019
 21
69.8885
 31
0.0
  0
LINE
  8
0
 62
     0
 10
84.019
 20
69.8885
 30
0.0
 11
84.8184
 21
69.8885
 31
0.0
  0
LINE
  8
0
 62
     0
 10
84.8184
 20
69.8885
 30
0.0
 11
84.8184
 21
75.6874
 31
0.0
  0
LINE
  8
0
 62
     0
 10
84.8184
 20
75.6874
 30
0.0
 11
84.019
 21
75.6874
 31
0.0
  0
LINE
  8
0
 62
     0
 10
84.019
 20
75.6874
 30
0.0
 11
84.019
 21
78.788
 31
0.0
  0
LINE
  8
0
 62
     0
 10
84.019
 20
78.788
 30
0.0
 11
84.8184
 21
78.788
 31
0.0
  0
LINE
  8
0
 62
     0
 10
84.8184
 20
78.788
 30
0.0
 11
84.8184
 21
79.7885
 31
0.0
  0
LINE
  8
0
 62
     0
 10
84.8184
 20
79.7885
 30
0.0
 11
98.8191
 21
79.7885
 31
0.0
  0
LINE
  8
0
 62
     0
 10
98.8191
 20
79.7885
 30
0.0
 11
98.8191
 21
78.788
 31
0.0
  0
LINE
  8
0
 62
     0
 10
98.8191
 20
78.788
 30
0.0
 11
99.6184
 21
78.788
 31
0.0
  0
LINE
  8
0
 62
     0
 10
99.6184
 20
78.788
 30
0.0
 11
99.6184
 21
75.6874
 31
0.0
  0
LINE
  8
0
 62
     0
 10
99.6184
 20
75.6874
 30
0.0
 11
98.8191
 21
75.6874
 31
0.0
  0
LINE
  8
0
 62
     0
 10
98.8191
 20
75.6874
 30
0.0
 11
98.8191
 21
69.8885
 31
0.0
  0
LINE
  8
0
 62
     0
 10
98.8191
 20
69.8885
 30
0.0
 11
99.6184
 21
69.8885
 31
0.0
  0
LINE
  8
0
 62
     0
 10
99.6184
 20
69.8885
 30
0.0
 11
99.6184
 21
66.7879
 31
0.0
  0
LINE
  8
0
 62
     0
 10
99.6184
 20
66.7879
 30
0.0
 11
98.8191
 21
66.7879
 31
0.0
  0
LINE
  8
0
 62
     0
 10
103.58
 20
47.7379
 30
0.0
 11
103.58
 21
46.7374
 31
0.0
  0
LINE
  8
0
 62
     0
 10
103.58
 20
46.7374
 30
0.0
 11
89.5809
 21
46.7374
 31
0.0
  0
LINE
  8
0
 62
     0
 10
89.5809
 20
46.7374
 30
0.0
 11
89.5809
 21
47.7379
 31
0.0
  0
LINE
  8
0
 62
     0
 10
89.5809
 20
47.7379
 30
0.0
 11
88.7815
 21
47.7379
 31
0.0
  0
LINE
  8
0
 62
     0
 10
88.7815
 20
47.7379
 30
0.0
 11
88.7815
 21
50.8385
 31
0.0
  0
LINE
  8
0
 62
     0
 10
88.7815
 20
50.8385
 30
0.0
 11
89.5809
 21
50.8385
 31
0.0
  0
LINE
  8
0
 62
     0
 10
89.5809
 20
50.8385
 30
0.0
 11
89.5809
 21
56.6374
 31
0.0
  0
LINE
  8
0
 62
     0
 10
89.5809
 20
56.6374
 30
0.0
 11
88.7815
 21
56.6374
 31
0.0
  0
LINE
  8
0
 62
     0
 10
88.7815
 20
56.6374
 30
0.0
 11
88.7815
 21
59.738
 31
0.0
  0
LINE
  8
0
 62
     0
 10
88.7815
 20
59.738
 30
0.0
 11
89.5809
 21
59.738
 31
0.0
  0
LINE
  8
0
 62
     0
 10
89.5809
 20
59.738
 30
0.0
 11
89.5809
 21
60.7385
 31
0.0
  0
LINE
  8
0
 62
     0
 10
89.5809
 20
60.7385
 30
0.0
 11
103.58
 21
60.7385
 31
0.0
  0
LINE
  8
0
 62
     0
 10
103.58
 20
60.7385
 30
0.0
 11
103.58
 21
59.738
 31
0.0
  0
LINE
  8
0
 62
     0
 10
103.58
 20
59.738
 30
0.0
 11
104.381
 21
59.738
 31
0.0
  0
LINE
  8
0
 62
     0
 10
104.381
 20
59.738
 30
0.0
 11
104.381
 21
56.6374
 31
0.0
  0
LINE
  8
0
 62
     0
 10
104.381
 20
56.6374
 30
0.0
 11
103.58
 21
56.6374
 31
0.0
  0
LINE
  8
0
 62
     0
 10
103.58
 20
56.6374
 30
0.0
 11
103.58
 21
50.8385
 31
0.0
  0
LINE
  8
0
 62
     0
 10
103.58
 20
50.8385
 30
0.0
 11
104.381
 21
50.8385
 31
0.0
  0
LINE
  8
0
 62
     0
 10
104.381
 20
50.8385
 30
0.0
 11
104.381
 21
47.7379
 31
0.0
  0
LINE
  8
0
 62
     0
 10
104.381
 20
47.7379
 30
0.0
 11
103.58
 21
47.7379
 31
0.0
  0
LINE
  8
0
 62
     0
 10
113.105
 20
28.688
 30
0.0
 11
113.105
 21
27.6876
 31
0.0
  0
LINE
  8
0
 62
     0
 10
113.105
 20
27.6876
 30
0.0
 11
99.1059
 21
27.6876
 31
0.0
  0
LINE
  8
0
 62
     0
 10
99.1059
 20
27.6876
 30
0.0
 11
99.1059
 21
28.688
 31
0.0
  0
LINE
  8
0
 62
     0
 10
99.1059
 20
28.688
 30
0.0
 11
98.3051
 21
28.688
 31
0.0
  0
LINE
  8
0
 62
     0
 10
98.3051
 20
28.688
 30
0.0
 11
98.3051
 21
31.7886
 31
0.0
  0
LINE
  8
0
 62
     0
 10
98.3051
 20
31.7886
 30
0.0
 11
99.1059
 21
31.7886
 31
0.0
  0
LINE
  8
0
 62
     0
 10
99.1059
 20
31.7886
 30
0.0
 11
99.1059
 21
37.5874
 31
0.0
  0
LINE
  8
0
 62
     0
 10
99.1059
 20
37.5874
 30
0.0
 11
98.3051
 21
37.5874
 31
0.0
  0
LINE
  8
0
 62
     0
 10
98.3051
 20
37.5874
 30
0.0
 11
98.3051
 21
40.688
 31
0.0
  0
LINE
  8
0
 62
     0
 10
98.3051
 20
40.688
 30
0.0
 11
99.1059
 21
40.688
 31
0.0
  0
LINE
  8
0
 62
     0
 10
99.1059
 20
40.688
 30
0.0
 11
99.1059
 21
41.6885
 31
0.0
  0
LINE
  8
0
 62
     0
 10
99.1059
 20
41.6885
 30
0.0
 11
113.105
 21
41.6885
 31
0.0
  0
LINE
  8
0
 62
     0
 10
113.105
 20
41.6885
 30
0.0
 11
113.105
 21
40.688
 31
0.0
  0
LINE
  8
0
 62
     0
 10
113.105
 20
40.688
 30
0.0
 11
113.906
 21
40.688
 31
0.0
  0
LINE
  8
0
 62
     0
 10
113.906
 20
40.688
 30
0.0
 11
113.906
 21
37.5874
 31
0.0
  0
LINE
  8
0
 62
     0
 10
113.906
 20
37.5874
 30
0.0
 11
113.105
 21
37.5874
 31
0.0
  0
LINE
  8
0
 62
     0
 10
113.105
 20
37.5874
 30
0.0
 11
113.105
 21
31.7886
 31
0.0
  0
LINE
  8
0
 62
     0
 10
113.105
 20
31.7886
 30
0.0
 11
113.906
 21
31.7886
 31
0.0
  0
LINE
  8
0
 62
     0
 10
113.906
 20
31.7886
 30
0.0
 11
113.906
 21
28.688
 31
0.0
  0
LINE
  8
0
 62
     0
 10
113.906
 20
28.688
 30
0.0
 11
113.105
 21
28.688
 31
0.0
  0
LINE
  8
0
 62
     0
 10
117.869
 20
66.7879
 30
0.0
 11
117.869
 21
65.7874
 31
0.0
  0
LINE
  8
0
 62
     0
 10
117.869
 20
65.7874
 30
0.0
 11
103.868
 21
65.7874
 31
0.0
  0
LINE
  8
0
 62
     0
 10
103.868
 20
65.7874
 30
0.0
 11
103.868
 21
66.7879
 31
0.0
  0
LINE
  8
0
 62
     0
 10
103.868
 20
66.7879
 30
0.0
 11
103.069
 21
66.7879
 31
0.0
  0
LINE
  8
0
 62
     0
 10
103.069
 20
66.7879
 30
0.0
 11
103.069
 21
69.8885
 31
0.0
  0
LINE
  8
0
 62
     0
 10
103.069
 20
69.8885
 30
0.0
 11
103.868
 21
69.8885
 31
0.0
  0
LINE
  8
0
 62
     0
 10
103.868
 20
69.8885
 30
0.0
 11
103.868
 21
75.6874
 31
0.0
  0
LINE
  8
0
 62
     0
 10
103.868
 20
75.6874
 30
0.0
 11
103.069
 21
75.6874
 31
0.0
  0
LINE
  8
0
 62
     0
 10
103.069
 20
75.6874
 30
0.0
 11
103.069
 21
78.788
 31
0.0
  0
LINE
  8
0
 62
     0
 10
103.069
 20
78.788
 30
0.0
 11
103.868
 21
78.788
 31
0.0
  0
LINE
  8
0
 62
     0
 10
103.868
 20
78.788
 30
0.0
 11
103.868
 21
79.7885
 31
0.0
  0
LINE
  8
0
 62
     0
 10
103.868
 20
79.7885
 30
0.0
 11
117.869
 21
79.7885
 31
0.0
  0
LINE
  8
0
 62
     0
 10
117.869
 20
79.7885
 30
0.0
 11
117.869
 21
78.788
 31
0.0
  0
LINE
  8
0
 62
     0
 10
117.869
 20
78.788
 30
0.0
 11
118.668
 21
78.788
 31
0.0
  0
LINE
  8
0
 62
     0
 10
118.668
 20
78.788
 30
0.0
 11
118.668
 21
75.6874
 31
0.0
  0
LINE
  8
0
 62
     0
 10
118.668
 20
75.6874
 30
0.0
 11
117.869
 21
75.6874
 31
0.0
  0
LINE
  8
0
 62
     0
 10
117.869
 20
75.6874
 30
0.0
 11
117.869
 21
69.8885
 31
0.0
  0
LINE
  8
0
 62
     0
 10
117.869
 20
69.8885
 30
0.0
 11
118.668
 21
69.8885
 31
0.0
  0
LINE
  8
0
 62
     0
 10
118.668
 20
69.8885
 30
0.0
 11
118.668
 21
66.7879
 31
0.0
  0
LINE
  8
0
 62
     0
 10
118.668
 20
66.7879
 30
0.0
 11
117.869
 21
66.7879
 31
0.0
  0
LINE
  8
0
 62
     0
 10
122.63
 20
47.7379
 30
0.0
 11
122.63
 21
46.7374
 31
0.0
  0
LINE
  8
0
 62
     0
 10
122.63
 20
46.7374
 30
0.0
 11
108.631
 21
46.7374
 31
0.0
  0
LINE
  8
0
 62
     0
 10
108.631
 20
46.7374
 30
0.0
 11
108.631
 21
47.7379
 31
0.0
  0
LINE
  8
0
 62
     0
 10
108.631
 20
47.7379
 30
0.0
 11
107.83
 21
47.7379
 31
0.0
  0
LINE
  8
0
 62
     0
 10
107.83
 20
47.7379
 30
0.0
 11
107.83
 21
50.8385
 31
0.0
  0
LINE
  8
0
 62
     0
 10
107.83
 20
50.8385
 30
0.0
 11
108.631
 21
50.8385
 31
0.0
  0
LINE
  8
0
 62
     0
 10
108.631
 20
50.8385
 30
0.0
 11
108.631
 21
56.6374
 31
0.0
  0
LINE
  8
0
 62
     0
 10
108.631
 20
56.6374
 30
0.0
 11
107.83
 21
56.6374
 31
0.0
  0
LINE
  8
0
 62
     0
 10
107.83
 20
56.6374
 30
0.0
 11
107.83
 21
59.738
 31
0.0
  0
LINE
  8
0
 62
     0
 10
107.83
 20
59.738
 30
0.0
 11
108.631
 21
59.738
 31
0.0
  0
LINE
  8
0
 62
     0
 10
108.631
 20
59.738
 30
0.0
 11
108.631
 21
60.7385
 31
0.0
  0
LINE
  8
0
 62
     0
 10
108.631
 20
60.7385
 30
0.0
 11
122.63
 21
60.7385
 31
0.0
  0
LINE
  8
0
 62
     0
 10
122.63
 20
60.7385
 30
0.0
 11
122.63
 21
59.738
 31
0.0
  0
LINE
  8
0
 62
     0
 10
122.63
 20
59.738
 30
0.0
 11
123.432
 21
59.738
 31
0.0
  0
LINE
  8
0
 62
     0
 10
123.432
 20
59.738
 30
0.0
 11
123.432
 21
56.6374
 31
0.0
  0
LINE
  8
0
 62
     0
 10
123.432
 20
56.6374
 30
0.0
 11
122.63
 21
56.6374
 31
0.0
  0
LINE
  8
0
 62
     0
 10
122.63
 20
56.6374
 30
0.0
 11
122.63
 21
50.8385
 31
0.0
  0
LINE
  8
0
 62
     0
 10
122.63
 20
50.8385
 30
0.0
 11
123.432
 21
50.8385
 31
0.0
  0
LINE
  8
0
 62
     0
 10
123.432
 20
50.8385
 30
0.0
 11
123.432
 21
47.7379
 31
0.0
  0
LINE
  8
0
 62
     0
 10
123.432
 20
47.7379
 30
0.0
 11
122.63
 21
47.7379
 31
0.0
  0
LINE
  8
0
 62
     0
 10
132.155
 20
28.688
 30
0.0
 11
132.155
 21
27.6876
 31
0.0
  0
LINE
  8
0
 62
     0
 10
132.155
 20
27.6876
 30
0.0
 11
118.156
 21
27.6876
 31
0.0
  0
LINE
  8
0
 62
     0
 10
118.156
 20
27.6876
 30
0.0
 11
118.156
 21
28.688
 31
0.0
  0
LINE
  8
0
 62
     0
 10
118.156
 20
28.688
 30
0.0
 11
117.356
 21
28.688
 31
0.0
  0
LINE
  8
0
 62
     0
 10
117.356
 20
28.688
 30
0.0
 11
117.356
 21
31.7886
 31
0.0
  0
LINE
  8
0
 62
     0
 10
117.356
 20
31.7886
 30
0.0
 11
118.156
 21
31.7886
 31
0.0
  0
LINE
  8
0
 62
     0
 10
118.156
 20
31.7886
 30
0.0
 11
118.156
 21
37.5874
 31
0.0
  0
LINE
  8
0
 62
     0
 10
118.156
 20
37.5874
 30
0.0
 11
117.356
 21
37.5874
 31
0.0
  0
LINE
  8
0
 62
     0
 10
117.356
 20
37.5874
 30
0.0
 11
117.356
 21
40.688
 31
0.0
  0
LINE
  8
0
 62
     0
 10
117.356
 20
40.688
 30
0.0
 11
118.156
 21
40.688
 31
0.0
  0
LINE
  8
0
 62
     0
 10
118.156
 20
40.688
 30
0.0
 11
118.156
 21
41.6885
 31
0.0
  0
LINE
  8
0
 62
     0
 10
118.156
 20
41.6885
 30
0.0
 11
132.155
 21
41.6885
 31
0.0
  0
LINE
  8
0
 62
     0
 10
132.155
 20
41.6885
 30
0.0
 11
132.155
 21
40.688
 31
0.0
  0
LINE
  8
0
 62
     0
 10
132.155
 20
40.688
 30
0.0
 11
132.957
 21
40.688
 31
0.0
  0
LINE
  8
0
 62
     0
 10
132.957
 20
40.688
 30
0.0
 11
132.957
 21
37.5874
 31
0.0
  0
LINE
  8
0
 62
     0
 10
132.957
 20
37.5874
 30
0.0
 11
132.155
 21
37.5874
 31
0.0
  0
LINE
  8
0
 62
     0
 10
132.155
 20
37.5874
 30
0.0
 11
132.155
 21
31.7886
 31
0.0
  0
LINE
  8
0
 62
     0
 10
132.155
 20
31.7886
 30
0.0
 11
132.957
 21
31.7886
 31
0.0
  0
LINE
  8
0
 62
     0
 10
132.957
 20
31.7886
 30
0.0
 11
132.957
 21
28.688
 31
0.0
  0
LINE
  8
0
 62
     0
 10
132.957
 20
28.688
 30
0.0
 11
132.155
 21
28.688
 31
0.0
  0
LINE
  8
0
 62
     0
 10
136.919
 20
66.7879
 30
0.0
 11
136.919
 21
65.7874
 31
0.0
  0
LINE
  8
0
 62
     0
 10
136.919
 20
65.7874
 30
0.0
 11
122.918
 21
65.7874
 31
0.0
  0
LINE
  8
0
 62
     0
 10
122.918
 20
65.7874
 30
0.0
 11
122.918
 21
66.7879
 31
0.0
  0
LINE
  8
0
 62
     0
 10
122.918
 20
66.7879
 30
0.0
 11
122.119
 21
66.7879
 31
0.0
  0
LINE
  8
0
 62
     0
 10
122.119
 20
66.7879
 30
0.0
 11
122.119
 21
69.8885
 31
0.0
  0
LINE
  8
0
 62
     0
 10
122.119
 20
69.8885
 30
0.0
 11
122.918
 21
69.8885
 31
0.0
  0
LINE
  8
0
 62
     0
 10
122.918
 20
69.8885
 30
0.0
 11
122.918
 21
75.6874
 31
0.0
  0
LINE
  8
0
 62
     0
 10
122.918
 20
75.6874
 30
0.0
 11
122.119
 21
75.6874
 31
0.0
  0
LINE
  8
0
 62
     0
 10
122.119
 20
75.6874
 30
0.0
 11
122.119
 21
78.788
 31
0.0
  0
LINE
  8
0
 62
     0
 10
122.119
 20
78.788
 30
0.0
 11
122.918
 21
78.788
 31
0.0
  0
LINE
  8
0
 62
     0
 10
122.918
 20
78.788
 30
0.0
 11
122.918
 21
79.7885
 31
0.0
  0
LINE
  8
0
 62
     0
 10
122.918
 20
79.7885
 30
0.0
 11
136.919
 21
79.7885
 31
0.0
  0
LINE
  8
0
 62
     0
 10
136.919
 20
79.7885
 30
0.0
 11
136.919
 21
78.788
 31
0.0
  0
LINE
  8
0
 62
     0
 10
136.919
 20
78.788
 30
0.0
 11
137.718
 21
78.788
 31
0.0
  0
LINE
  8
0
 62
     0
 10
137.718
 20
78.788
 30
0.0
 11
137.718
 21
75.6874
 31
0.0
  0
LINE
  8
0
 62
     0
 10
137.718
 20
75.6874
 30
0.0
 11
136.919
 21
75.6874
 31
0.0
  0
LINE
  8
0
 62
     0
 10
136.919
 20
75.6874
 30
0.0
 11
136.919
 21
69.8885
 31
0.0
  0
LINE
  8
0
 62
     0
 10
136.919
 20
69.8885
 30
0.0
 11
137.718
 21
69.8885
 31
0.0
  0
LINE
  8
0
 62
     0
 10
137.718
 20
69.8885
 30
0.0
 11
137.718
 21
66.7879
 31
0.0
  0
LINE
  8
0
 62
     0
 10
137.718
 20
66.7879
 30
0.0
 11
136.919
 21
66.7879
 31
0.0
  0
LINE
  8
0
 62
     0
 10
141.682
 20
47.7379
 30
0.0
 11
141.682
 21
46.7374
 31
0.0
  0
LINE
  8
0
 62
     0
 10
141.682
 20
46.7374
 30
0.0
 11
127.682
 21
46.7374
 31
0.0
  0
LINE
  8
0
 62
     0
 10
127.682
 20
46.7374
 30
0.0
 11
127.682
 21
47.7379
 31
0.0
  0
LINE
  8
0
 62
     0
 10
127.682
 20
47.7379
 30
0.0
 11
126.88
 21
47.7379
 31
0.0
  0
LINE
  8
0
 62
     0
 10
126.88
 20
47.7379
 30
0.0
 11
126.88
 21
50.8385
 31
0.0
  0
LINE
  8
0
 62
     0
 10
126.88
 20
50.8385
 30
0.0
 11
127.682
 21
50.8385
 31
0.0
  0
LINE
  8
0
 62
     0
 10
127.682
 20
50.8385
 30
0.0
 11
127.682
 21
56.6374
 31
0.0
  0
LINE
  8
0
 62
     0
 10
127.682
 20
56.6374
 30
0.0
 11
126.88
 21
56.6374
 31
0.0
  0
LINE
  8
0
 62
     0
 10
126.88
 20
56.6374
 30
0.0
 11
126.88
 21
59.738
 31
0.0
  0
LINE
  8
0
 62
     0
 10
126.88
 20
59.738
 30
0.0
 11
127.682
 21
59.738
 31
0.0
  0
LINE
  8
0
 62
     0
 10
127.682
 20
59.738
 30
0.0
 11
127.682
 21
60.7385
 31
0.0
  0
LINE
  8
0
 62
     0
 10
127.682
 20
60.7385
 30
0.0
 11
141.682
 21
60.7385
 31
0.0
  0
LINE
  8
0
 62
     0
 10
141.682
 20
60.7385
 30
0.0
 11
141.682
 21
59.738
 31
0.0
  0
LINE
  8
0
 62
     0
 10
141.682
 20
59.738
 30
0.0
 11
142.482
 21
59.738
 31
0.0
  0
LINE
  8
0
 62
     0
 10
142.482
 20
59.738
 30
0.0
 11
142.482
 21
56.6374
 31
0.0
  0
LINE
  8
0
 62
     0
 10
142.482
 20
56.6374
 30
0.0
 11
141.682
 21
56.6374
 31
0.0
  0
LINE
  8
0
 62
     0
 10
141.682
 20
56.6374
 30
0.0
 11
141.682
 21
50.8385
 31
0.0
  0
LINE
  8
0
 62
     0
 10
141.682
 20
50.8385
 30
0.0
 11
142.482
 21
50.8385
 31
0.0
  0
LINE
  8
0
 62
     0
 10
142.482
 20
50.8385
 30
0.0
 11
142.482
 21
47.7379
 31
0.0
  0
LINE
  8
0
 62
     0
 10
142.482
 20
47.7379
 30
0.0
 11
141.682
 21
47.7379
 31
0.0
  0
LINE
  8
0
 62
     0
 10
151.207
 20
28.688
 30
0.0
 11
151.207
 21
27.6876
 31
0.0
  0
LINE
  8
0
 62
     0
 10
151.207
 20
27.6876
 30
0.0
 11
137.207
 21
27.6876
 31
0.0
  0
LINE
  8
0
 62
     0
 10
137.207
 20
27.6876
 30
0.0
 11
137.207
 21
28.688
 31
0.0
  0
LINE
  8
0
 62
     0
 10
137.207
 20
28.688
 30
0.0
 11
136.405
 21
28.688
 31
0.0
  0
LINE
  8
0
 62
     0
 10
136.405
 20
28.688
 30
0.0
 11
136.405
 21
31.7886
 31
0.0
  0
LINE
  8
0
 62
     0
 10
136.405
 20
31.7886
 30
0.0
 11
137.207
 21
31.7886
 31
0.0
  0
LINE
  8
0
 62
     0
 10
137.207
 20
31.7886
 30
0.0
 11
137.207
 21
37.5874
 31
0.0
  0
LINE
  8
0
 62
     0
 10
137.207
 20
37.5874
 30
0.0
 11
136.405
 21
37.5874
 31
0.0
  0
LINE
  8
0
 62
     0
 10
136.405
 20
37.5874
 30
0.0
 11
136.405
 21
40.688
 31
0.0
  0
LINE
  8
0
 62
     0
 10
136.405
 20
40.688
 30
0.0
 11
137.207
 21
40.688
 31
0.0
  0
LINE
  8
0
 62
     0
 10
137.207
 20
40.688
 30
0.0
 11
137.207
 21
41.6885
 31
0.0
  0
LINE
  8
0
 62
     0
 10
137.207
 20
41.6885
 30
0.0
 11
151.207
 21
41.6885
 31
0.0
  0
LINE
  8
0
 62
     0
 10
151.207
 20
41.6885
 30
0.0
 11
151.207
 21
40.688
 31
0.0
  0
LINE
  8
0
 62
     0
 10
151.207
 20
40.688
 30
0.0
 11
152.007
 21
40.688
 31
0.0
  0
LINE
  8
0
 62
     0
 10
152.007
 20
40.688
 30
0.0
 11
152.007
 21
37.5874
 31
0.0
  0
LINE
  8
0
 62
     0
 10
152.007
 20
37.5874
 30
0.0
 11
151.207
 21
37.5874
 31
0.0
  0
LINE
  8
0
 62
     0
 10
151.207
 20
37.5874
 30
0.0
 11
151.207
 21
31.7886
 31
0.0
  0
LINE
  8
0
 62
     0
 10
151.207
 20
31.7886
 30
0.0
 11
152.007
 21
31.7886
 31
0.0
  0
LINE
  8
0
 62
     0
 10
152.007
 20
31.7886
 30
0.0
 11
152.007
 21
28.688
 31
0.0
  0
LINE
  8
0
 62
     0
 10
152.007
 20
28.688
 30
0.0
 11
151.207
 21
28.688
 31
0.0
  0
LINE
  8
0
 62
     0
 10
155.969
 20
66.7879
 30
0.0
 11
155.969
 21
65.7874
 31
0.0
  0
LINE
  8
0
 62
     0
 10
155.969
 20
65.7874
 30
0.0
 11
141.968
 21
65.7874
 31
0.0
  0
LINE
  8
0
 62
     0
 10
141.968
 20
65.7874
 30
0.0
 11
141.968
 21
66.7879
 31
0.0
  0
LINE
  8
0
 62
     0
 10
141.968
 20
66.7879
 30
0.0
 11
141.169
 21
66.7879
 31
0.0
  0
LINE
  8
0
 62
     0
 10
141.169
 20
66.7879
 30
0.0
 11
141.169
 21
69.8885
 31
0.0
  0
LINE
  8
0
 62
     0
 10
141.169
 20
69.8885
 30
0.0
 11
141.968
 21
69.8885
 31
0.0
  0
LINE
  8
0
 62
     0
 10
141.968
 20
69.8885
 30
0.0
 11
141.968
 21
75.6874
 31
0.0
  0
LINE
  8
0
 62
     0
 10
141.968
 20
75.6874
 30
0.0
 11
141.169
 21
75.6874
 31
0.0
  0
LINE
  8
0
 62
     0
 10
141.169
 20
75.6874
 30
0.0
 11
141.169
 21
78.788
 31
0.0
  0
LINE
  8
0
 62
     0
 10
141.169
 20
78.788
 30
0.0
 11
141.968
 21
78.788
 31
0.0
  0
LINE
  8
0
 62
     0
 10
141.968
 20
78.788
 30
0.0
 11
141.968
 21
79.7885
 31
0.0
  0
LINE
  8
0
 62
     0
 10
141.968
 20
79.7885
 30
0.0
 11
155.969
 21
79.7885
 31
0.0
  0
LINE
  8
0
 62
     0
 10
155.969
 20
79.7885
 30
0.0
 11
155.969
 21
78.788
 31
0.0
  0
LINE
  8
0
 62
     0
 10
155.969
 20
78.788
 30
0.0
 11
156.768
 21
78.788
 31
0.0
  0
LINE
  8
0
 62
     0
 10
156.768
 20
78.788
 30
0.0
 11
156.768
 21
75.6874
 31
0.0
  0
LINE
  8
0
 62
     0
 10
156.768
 20
75.6874
 30
0.0
 11
155.969
 21
75.6874
 31
0.0
  0
LINE
  8
0
 62
     0
 10
155.969
 20
75.6874
 30
0.0
 11
155.969
 21
69.8885
 31
0.0
  0
LINE
  8
0
 62
     0
 10
155.969
 20
69.8885
 30
0.0
 11
156.768
 21
69.8885
 31
0.0
  0
LINE
  8
0
 62
     0
 10
156.768
 20
69.8885
 30
0.0
 11
156.768
 21
66.7879
 31
0.0
  0
LINE
  8
0
 62
     0
 10
156.768
 20
66.7879
 30
0.0
 11
155.969
 21
66.7879
 31
0.0
  0
LINE
  8
0
 62
     0
 10
160.732
 20
47.7379
 30
0.0
 11
160.732
 21
46.7374
 31
0.0
  0
LINE
  8
0
 62
     0
 10
160.732
 20
46.7374
 30
0.0
 11
146.732
 21
46.7374
 31
0.0
  0
LINE
  8
0
 62
     0
 10
146.732
 20
46.7374
 30
0.0
 11
146.732
 21
47.7379
 31
0.0
  0
LINE
  8
0
 62
     0
 10
146.732
 20
47.7379
 30
0.0
 11
145.931
 21
47.7379
 31
0.0
  0
LINE
  8
0
 62
     0
 10
145.931
 20
47.7379
 30
0.0
 11
145.931
 21
50.8385
 31
0.0
  0
LINE
  8
0
 62
     0
 10
145.931
 20
50.8385
 30
0.0
 11
146.732
 21
50.8385
 31
0.0
  0
LINE
  8
0
 62
     0
 10
146.732
 20
50.8385
 30
0.0
 11
146.732
 21
56.6374
 31
0.0
  0
LINE
  8
0
 62
     0
 10
146.732
 20
56.6374
 30
0.0
 11
145.931
 21
56.6374
 31
0.0
  0
LINE
  8
0
 62
     0
 10
145.931
 20
56.6374
 30
0.0
 11
145.931
 21
59.738
 31
0.0
  0
LINE
  8
0
 62
     0
 10
145.931
 20
59.738
 30
0.0
 11
146.732
 21
59.738
 31
0.0
  0
LINE
  8
0
 62
     0
 10
146.732
 20
59.738
 30
0.0
 11
146.732
 21
60.7385
 31
0.0
  0
LINE
  8
0
 62
     0
 10
146.732
 20
60.7385
 30
0.0
 11
160.732
 21
60.7385
 31
0.0
  0
LINE
  8
0
 62
     0
 10
160.732
 20
60.7385
 30
0.0
 11
160.732
 21
59.738
 31
0.0
  0
LINE
  8
0
 62
     0
 10
160.732
 20
59.738
 30
0.0
 11
161.532
 21
59.738
 31
0.0
  0
LINE
  8
0
 62
     0
 10
161.532
 20
59.738
 30
0.0
 11
161.532
 21
56.6374
 31
0.0
  0
LINE
  8
0
 62
     0
 10
161.532
 20
56.6374
 30
0.0
 11
160.732
 21
56.6374
 31
0.0
  0
LINE
  8
0
 62
     0
 10
160.732
 20
56.6374
 30
0.0
 11
160.732
 21
50.8385
 31
0.0
  0
LINE
  8
0
 62
     0
 10
160.732
 20
50.8385
 30
0.0
 11
161.532
 21
50.8385
 31
0.0
  0
LINE
  8
0
 62
     0
 10
161.532
 20
50.8385
 30
0.0
 11
161.532
 21
47.7379
 31
0.0
  0
LINE
  8
0
 62
     0
 10
161.532
 20
47.7379
 30
0.0
 11
160.732
 21
47.7379
 31
0.0
  0
LINE
  8
0
 62
     0
 10
170.257
 20
28.688
 30
0.0
 11
170.257
 21
27.6876
 31
0.0
  0
LINE
  8
0
 62
     0
 10
170.257
 20
27.6876
 30
0.0
 11
156.257
 21
27.6876
 31
0.0
  0
LINE
  8
0
 62
     0
 10
156.257
 20
27.6876
 30
0.0
 11
156.257
 21
28.688
 31
0.0
  0
LINE
  8
0
 62
     0
 10
156.257
 20
28.688
 30
0.0
 11
155.456
 21
28.688
 31
0.0
  0
LINE
  8
0
 62
     0
 10
155.456
 20
28.688
 30
0.0
 11
155.456
 21
31.7886
 31
0.0
  0
LINE
  8
0
 62
     0
 10
155.456
 20
31.7886
 30
0.0
 11
156.257
 21
31.7886
 31
0.0
  0
LINE
  8
0
 62
     0
 10
156.257
 20
31.7886
 30
0.0
 11
156.257
 21
37.5874
 31
0.0
  0
LINE
  8
0
 62
     0
 10
156.257
 20
37.5874
 30
0.0
 11
155.456
 21
37.5874
 31
0.0
  0
LINE
  8
0
 62
     0
 10
155.456
 20
37.5874
 30
0.0
 11
155.456
 21
40.688
 31
0.0
  0
LINE
  8
0
 62
     0
 10
155.456
 20
40.688
 30
0.0
 11
156.257
 21
40.688
 31
0.0
  0
LINE
  8
0
 62
     0
 10
156.257
 20
40.688
 30
0.0
 11
156.257
 21
41.6885
 31
0.0
  0
LINE
  8
0
 62
     0
 10
156.257
 20
41.6885
 30
0.0
 11
170.257
 21
41.6885
 31
0.0
  0
LINE
  8
0
 62
     0
 10
170.257
 20
41.6885
 30
0.0
 11
170.257
 21
40.688
 31
0.0
  0
LINE
  8
0
 62
     0
 10
170.257
 20
40.688
 30
0.0
 11
171.057
 21
40.688
 31
0.0
  0
LINE
  8
0
 62
     0
 10
171.057
 20
40.688
 30
0.0
 11
171.057
 21
37.5874
 31
0.0
  0
LINE
  8
0
 62
     0
 10
171.057
 20
37.5874
 30
0.0
 11
170.257
 21
37.5874
 31
0.0
  0
LINE
  8
0
 62
     0
 10
170.257
 20
37.5874
 30
0.0
 11
170.257
 21
31.7886
 31
0.0
  0
LINE
  8
0
 62
     0
 10
170.257
 20
31.7886
 30
0.0
 11
171.057
 21
31.7886
 31
0.0
  0
LINE
  8
0
 62
     0
 10
171.057
 20
31.7886
 30
0.0
 11
171.057
 21
28.688
 31
0.0
  0
LINE
  8
0
 62
     0
 10
171.057
 20
28.688
 30
0.0
 11
170.257
 21
28.688
 31
0.0
  0
LINE
  8
0
 62
     0
 10
175.019
 20
66.7879
 30
0.0
 11
175.019
 21
65.7874
 31
0.0
  0
LINE
  8
0
 62
     0
 10
175.019
 20
65.7874
 30
0.0
 11
161.018
 21
65.7874
 31
0.0
  0
LINE
  8
0
 62
     0
 10
161.018
 20
65.7874
 30
0.0
 11
161.018
 21
66.7879
 31
0.0
  0
LINE
  8
0
 62
     0
 10
161.018
 20
66.7879
 30
0.0
 11
160.219
 21
66.7879
 31
0.0
  0
LINE
  8
0
 62
     0
 10
160.219
 20
66.7879
 30
0.0
 11
160.219
 21
69.8885
 31
0.0
  0
LINE
  8
0
 62
     0
 10
160.219
 20
69.8885
 30
0.0
 11
161.018
 21
69.8885
 31
0.0
  0
LINE
  8
0
 62
     0
 10
161.018
 20
69.8885
 30
0.0
 11
161.018
 21
75.6874
 31
0.0
  0
LINE
  8
0
 62
     0
 10
161.018
 20
75.6874
 30
0.0
 11
160.219
 21
75.6874
 31
0.0
  0
LINE
  8
0
 62
     0
 10
160.219
 20
75.6874
 30
0.0
 11
160.219
 21
78.788
 31
0.0
  0
LINE
  8
0
 62
     0
 10
160.219
 20
78.788
 30
0.0
 11
161.018
 21
78.788
 31
0.0
  0
LINE
  8
0
 62
     0
 10
161.018
 20
78.788
 30
0.0
 11
161.018
 21
79.7885
 31
0.0
  0
LINE
  8
0
 62
     0
 10
161.018
 20
79.7885
 30
0.0
 11
175.019
 21
79.7885
 31
0.0
  0
LINE
  8
0
 62
     0
 10
175.019
 20
79.7885
 30
0.0
 11
175.019
 21
78.788
 31
0.0
  0
LINE
  8
0
 62
     0
 10
175.019
 20
78.788
 30
0.0
 11
175.818
 21
78.788
 31
0.0
  0
LINE
  8
0
 62
     0
 10
175.818
 20
78.788
 30
0.0
 11
175.818
 21
75.6874
 31
0.0
  0
LINE
  8
0
 62
     0
 10
175.818
 20
75.6874
 30
0.0
 11
175.019
 21
75.6874
 31
0.0
  0
LINE
  8
0
 62
     0
 10
175.019
 20
75.6874
 30
0.0
 11
175.019
 21
69.8885
 31
0.0
  0
LINE
  8
0
 62
     0
 10
175.019
 20
69.8885
 30
0.0
 11
175.818
 21
69.8885
 31
0.0
  0
LINE
  8
0
 62
     0
 10
175.818
 20
69.8885
 30
0.0
 11
175.818
 21
66.7879
 31
0.0
  0
LINE
  8
0
 62
     0
 10
175.818
 20
66.7879
 30
0.0
 11
175.019
 21
66.7879
 31
0.0
  0
LINE
  8
0
 62
     0
 10
179.782
 20
47.7379
 30
0.0
 11
179.782
 21
46.7374
 31
0.0
  0
LINE
  8
0
 62
     0
 10
179.782
 20
46.7374
 30
0.0
 11
165.782
 21
46.7374
 31
0.0
  0
LINE
  8
0
 62
     0
 10
165.782
 20
46.7374
 30
0.0
 11
165.782
 21
47.7379
 31
0.0
  0
LINE
  8
0
 62
     0
 10
165.782
 20
47.7379
 30
0.0
 11
164.981
 21
47.7379
 31
0.0
  0
LINE
  8
0
 62
     0
 10
164.981
 20
47.7379
 30
0.0
 11
164.981
 21
50.8385
 31
0.0
  0
LINE
  8
0
 62
     0
 10
164.981
 20
50.8385
 30
0.0
 11
165.782
 21
50.8385
 31
0.0
  0
LINE
  8
0
 62
     0
 10
165.782
 20
50.8385
 30
0.0
 11
165.782
 21
56.6374
 31
0.0
  0
LINE
  8
0
 62
     0
 10
165.782
 20
56.6374
 30
0.0
 11
164.981
 21
56.6374
 31
0.0
  0
LINE
  8
0
 62
     0
 10
164.981
 20
56.6374
 30
0.0
 11
164.981
 21
59.738
 31
0.0
  0
LINE
  8
0
 62
     0
 10
164.981
 20
59.738
 30
0.0
 11
165.782
 21
59.738
 31
0.0
  0
LINE
  8
0
 62
     0
 10
165.782
 20
59.738
 30
0.0
 11
165.782
 21
60.7385
 31
0.0
  0
LINE
  8
0
 62
     0
 10
165.782
 20
60.7385
 30
0.0
 11
179.782
 21
60.7385
 31
0.0
  0
LINE
  8
0
 62
     0
 10
179.782
 20
60.7385
 30
0.0
 11
179.782
 21
59.738
 31
0.0
  0
LINE
  8
0
 62
     0
 10
179.782
 20
59.738
 30
0.0
 11
180.582
 21
59.738
 31
0.0
  0
LINE
  8
0
 62
     0
 10
180.582
 20
59.738
 30
0.0
 11
180.582
 21
56.6374
 31
0.0
  0
LINE
  8
0
 62
     0
 10
180.582
 20
56.6374
 30
0.0
 11
179.782
 21
56.6374
 31
0.0
  0
LINE
  8
0
 62
     0
 10
179.782
 20
56.6374
 30
0.0
 11
179.782
 21
50.8385
 31
0.0
  0
LINE
  8
0
 62
     0
 10
179.782
 20
50.8385
 30
0.0
 11
180.582
 21
50.8385
 31
0.0
  0
LINE
  8
0
 62
     0
 10
180.582
 20
50.8385
 30
0.0
 11
180.582
 21
47.7379
 31
0.0
  0
LINE
  8
0
 62
     0
 10
180.582
 20
47.7379
 30
0.0
 11
179.782
 21
47.7379
 31
0.0
  0
LINE
  8
0
 62
     0
 10
180.864
 20
15.1378
 30
0.0
 11
180.864
 21
8.86767
 31
0.0
  0
LINE
  8
0
 62
     0
 10
180.864
 20
8.86767
 30
0.0
 11
179.188
 21
8.86767
 31
0.0
  0
LINE
  8
0
 62
     0
 10
179.188
 20
8.86767
 30
0.0
 11
179.188
 21
7.8879
 31
0.0
  0
LINE
  8
0
 62
     0
 10
179.188
 20
7.8879
 30
0.0
 11
175.887
 21
7.8879
 31
0.0
  0
LINE
  8
0
 62
     0
 10
175.887
 20
7.8879
 30
0.0
 11
175.887
 21
8.86767
 31
0.0
  0
LINE
  8
0
 62
     0
 10
175.887
 20
8.86767
 30
0.0
 11
174.213
 21
8.86767
 31
0.0
  0
LINE
  8
0
 62
     0
 10
174.213
 20
8.86767
 30
0.0
 11
174.213
 21
13.338
 31
0.0
  0
LINE
  8
0
 62
     0
 10
174.213
 20
13.338
 30
0.0
 11
134.538
 21
13.338
 31
0.0
  0
LINE
  8
0
 62
     0
 10
134.538
 20
13.338
 30
0.0
 11
134.538
 21
12.7386
 31
0.0
  0
LINE
  8
0
 62
     0
 10
134.538
 20
12.7386
 30
0.0
 11
135.337
 21
12.7386
 31
0.0
  0
LINE
  8
0
 62
     0
 10
135.337
 20
12.7386
 30
0.0
 11
135.337
 21
9.63799
 31
0.0
  0
LINE
  8
0
 62
     0
 10
135.337
 20
9.63799
 30
0.0
 11
134.538
 21
9.63799
 31
0.0
  0
LINE
  8
0
 62
     0
 10
134.538
 20
9.63799
 30
0.0
 11
134.538
 21
8.63755
 31
0.0
  0
LINE
  8
0
 62
     0
 10
134.538
 20
8.63755
 30
0.0
 11
120.539
 21
8.63755
 31
0.0
  0
LINE
  8
0
 62
     0
 10
120.539
 20
8.63755
 30
0.0
 11
120.539
 21
9.63799
 31
0.0
  0
LINE
  8
0
 62
     0
 10
120.539
 20
9.63799
 30
0.0
 11
119.738
 21
9.63799
 31
0.0
  0
LINE
  8
0
 62
     0
 10
119.738
 20
9.63799
 30
0.0
 11
119.738
 21
12.7386
 31
0.0
  0
LINE
  8
0
 62
     0
 10
119.738
 20
12.7386
 30
0.0
 11
120.539
 21
12.7386
 31
0.0
  0
LINE
  8
0
 62
     0
 10
120.539
 20
12.7386
 30
0.0
 11
120.539
 21
13.338
 31
0.0
  0
LINE
  8
0
 62
     0
 10
120.539
 20
13.338
 30
0.0
 11
80.8634
 21
13.338
 31
0.0
  0
LINE
  8
0
 62
     0
 10
80.8634
 20
13.338
 30
0.0
 11
80.8634
 21
8.86767
 31
0.0
  0
LINE
  8
0
 62
     0
 10
80.8634
 20
8.86767
 30
0.0
 11
79.1877
 21
8.86767
 31
0.0
  0
LINE
  8
0
 62
     0
 10
79.1877
 20
8.86767
 30
0.0
 11
79.1877
 21
7.8879
 31
0.0
  0
LINE
  8
0
 62
     0
 10
79.1877
 20
7.8879
 30
0.0
 11
75.8871
 21
7.8879
 31
0.0
  0
LINE
  8
0
 62
     0
 10
75.8871
 20
7.8879
 30
0.0
 11
75.8871
 21
8.86767
 31
0.0
  0
LINE
  8
0
 62
     0
 10
75.8871
 20
8.86767
 30
0.0
 11
74.2128
 21
8.86767
 31
0.0
  0
LINE
  8
0
 62
     0
 10
74.2128
 20
8.86767
 30
0.0
 11
74.2128
 21
15.1378
 31
0.0
  0
LINE
  8
0
 62
     0
 10
74.2128
 20
15.1378
 30
0.0
 11
73.3379
 21
15.1378
 31
0.0
  0
LINE
  8
0
 62
     0
 10
73.3379
 20
15.1378
 30
0.0
 11
73.3379
 21
17.9379
 31
0.0
  0
LINE
  8
0
 62
     0
 10
73.3379
 20
17.9379
 30
0.0
 11
74.2128
 21
17.9379
 31
0.0
  0
LINE
  8
0
 62
     0
 10
74.2128
 20
17.9379
 30
0.0
 11
74.2128
 21
21.168
 31
0.0
  0
LINE
  8
0
 62
     0
 10
74.2128
 20
21.168
 30
0.0
 11
75.8871
 21
21.168
 31
0.0
  0
LINE
  8
0
 62
     0
 10
75.8871
 20
21.168
 30
0.0
 11
75.8871
 21
22.0886
 31
0.0
  0
LINE
  8
0
 62
     0
 10
75.8871
 20
22.0886
 30
0.0
 11
79.1877
 21
22.0886
 31
0.0
  0
LINE
  8
0
 62
     0
 10
79.1877
 20
22.0886
 30
0.0
 11
79.1877
 21
21.168
 31
0.0
  0
LINE
  8
0
 62
     0
 10
79.1877
 20
21.168
 30
0.0
 11
80.8634
 21
21.168
 31
0.0
  0
LINE
  8
0
 62
     0
 10
80.8634
 20
21.168
 30
0.0
 11
80.8634
 21
17.9379
 31
0.0
  0
LINE
  8
0
 62
     0
 10
80.8634
 20
17.9379
 30
0.0
 11
120.539
 21
17.9379
 31
0.0
  0
LINE
  8
0
 62
     0
 10
120.539
 20
17.9379
 30
0.0
 11
120.539
 21
18.5374
 31
0.0
  0
LINE
  8
0
 62
     0
 10
120.539
 20
18.5374
 30
0.0
 11
119.738
 21
18.5374
 31
0.0
  0
LINE
  8
0
 62
     0
 10
119.738
 20
18.5374
 30
0.0
 11
119.738
 21
21.6379
 31
0.0
  0
LINE
  8
0
 62
     0
 10
119.738
 20
21.6379
 30
0.0
 11
120.539
 21
21.6379
 31
0.0
  0
LINE
  8
0
 62
     0
 10
120.539
 20
21.6379
 30
0.0
 11
120.539
 21
22.6384
 31
0.0
  0
LINE
  8
0
 62
     0
 10
120.539
 20
22.6384
 30
0.0
 11
134.538
 21
22.6384
 31
0.0
  0
LINE
  8
0
 62
     0
 10
134.538
 20
22.6384
 30
0.0
 11
134.538
 21
21.6379
 31
0.0
  0
LINE
  8
0
 62
     0
 10
134.538
 20
21.6379
 30
0.0
 11
135.337
 21
21.6379
 31
0.0
  0
LINE
  8
0
 62
     0
 10
135.337
 20
21.6379
 30
0.0
 11
135.337
 21
18.5374
 31
0.0
  0
LINE
  8
0
 62
     0
 10
135.337
 20
18.5374
 30
0.0
 11
134.538
 21
18.5374
 31
0.0
  0
LINE
  8
0
 62
     0
 10
134.538
 20
18.5374
 30
0.0
 11
134.538
 21
17.9379
 31
0.0
  0
LINE
  8
0
 62
     0
 10
134.538
 20
17.9379
 30
0.0
 11
174.213
 21
17.9379
 31
0.0
  0
LINE
  8
0
 62
     0
 10
174.213
 20
17.9379
 30
0.0
 11
174.213
 21
21.168
 31
0.0
  0
LINE
  8
0
 62
     0
 10
174.213
 20
21.168
 30
0.0
 11
175.887
 21
21.168
 31
0.0
  0
LINE
  8
0
 62
     0
 10
175.887
 20
21.168
 30
0.0
 11
175.887
 21
22.0886
 31
0.0
  0
LINE
  8
0
 62
     0
 10
175.887
 20
22.0886
 30
0.0
 11
179.188
 21
22.0886
 31
0.0
  0
LINE
  8
0
 62
     0
 10
179.188
 20
22.0886
 30
0.0
 11
179.188
 21
21.168
 31
0.0
  0
LINE
  8
0
 62
     0
 10
179.188
 20
21.168
 30
0.0
 11
180.864
 21
21.168
 31
0.0
  0
LINE
  8
0
 62
     0
 10
180.864
 20
21.168
 30
0.0
 11
180.864
 21
17.9379
 31
0.0
  0
LINE
  8
0
 62
     0
 10
180.864
 20
17.9379
 30
0.0
 11
181.738
 21
17.9379
 31
0.0
  0
LINE
  8
0
 62
     0
 10
181.738
 20
17.9379
 30
0.0
 11
181.738
 21
15.1378
 31
0.0
  0
LINE
  8
0
 62
     0
 10
181.738
 20
15.1378
 30
0.0
 11
180.864
 21
15.1378
 31
0.0
  0
LINE
  8
0
 62
     0
 10
189.307
 20
28.688
 30
0.0
 11
189.307
 21
27.6876
 31
0.0
  0
LINE
  8
0
 62
     0
 10
189.307
 20
27.6876
 30
0.0
 11
175.307
 21
27.6876
 31
0.0
  0
LINE
  8
0
 62
     0
 10
175.307
 20
27.6876
 30
0.0
 11
175.307
 21
28.688
 31
0.0
  0
LINE
  8
0
 62
     0
 10
175.307
 20
28.688
 30
0.0
 11
174.506
 21
28.688
 31
0.0
  0
LINE
  8
0
 62
     0
 10
174.506
 20
28.688
 30
0.0
 11
174.506
 21
31.7886
 31
0.0
  0
LINE
  8
0
 62
     0
 10
174.506
 20
31.7886
 30
0.0
 11
175.307
 21
31.7886
 31
0.0
  0
LINE
  8
0
 62
     0
 10
175.307
 20
31.7886
 30
0.0
 11
175.307
 21
37.5874
 31
0.0
  0
LINE
  8
0
 62
     0
 10
175.307
 20
37.5874
 30
0.0
 11
174.506
 21
37.5874
 31
0.0
  0
LINE
  8
0
 62
     0
 10
174.506
 20
37.5874
 30
0.0
 11
174.506
 21
40.688
 31
0.0
  0
LINE
  8
0
 62
     0
 10
174.506
 20
40.688
 30
0.0
 11
175.307
 21
40.688
 31
0.0
  0
LINE
  8
0
 62
     0
 10
175.307
 20
40.688
 30
0.0
 11
175.307
 21
41.6885
 31
0.0
  0
LINE
  8
0
 62
     0
 10
175.307
 20
41.6885
 30
0.0
 11
189.307
 21
41.6885
 31
0.0
  0
LINE
  8
0
 62
     0
 10
189.307
 20
41.6885
 30
0.0
 11
189.307
 21
40.688
 31
0.0
  0
LINE
  8
0
 62
     0
 10
189.307
 20
40.688
 30
0.0
 11
190.107
 21
40.688
 31
0.0
  0
LINE
  8
0
 62
     0
 10
190.107
 20
40.688
 30
0.0
 11
190.107
 21
37.5874
 31
0.0
  0
LINE
  8
0
 62
     0
 10
190.107
 20
37.5874
 30
0.0
 11
189.307
 21
37.5874
 31
0.0
  0
LINE
  8
0
 62
     0
 10
189.307
 20
37.5874
 30
0.0
 11
189.307
 21
31.7886
 31
0.0
  0
LINE
  8
0
 62
     0
 10
189.307
 20
31.7886
 30
0.0
 11
190.107
 21
31.7886
 31
0.0
  0
LINE
  8
0
 62
     0
 10
190.107
 20
31.7886
 30
0.0
 11
190.107
 21
28.688
 31
0.0
  0
LINE
  8
0
 62
     0
 10
190.107
 20
28.688
 30
0.0
 11
189.307
 21
28.688
 31
0.0
  0
LINE
  8
0
 62
     0
 10
194.069
 20
66.7879
 30
0.0
 11
194.069
 21
65.7874
 31
0.0
  0
LINE
  8
0
 62
     0
 10
194.069
 20
65.7874
 30
0.0
 11
180.068
 21
65.7874
 31
0.0
  0
LINE
  8
0
 62
     0
 10
180.068
 20
65.7874
 30
0.0
 11
180.068
 21
66.7879
 31
0.0
  0
LINE
  8
0
 62
     0
 10
180.068
 20
66.7879
 30
0.0
 11
179.269
 21
66.7879
 31
0.0
  0
LINE
  8
0
 62
     0
 10
179.269
 20
66.7879
 30
0.0
 11
179.269
 21
69.8885
 31
0.0
  0
LINE
  8
0
 62
     0
 10
179.269
 20
69.8885
 30
0.0
 11
180.068
 21
69.8885
 31
0.0
  0
LINE
  8
0
 62
     0
 10
180.068
 20
69.8885
 30
0.0
 11
180.068
 21
75.6874
 31
0.0
  0
LINE
  8
0
 62
     0
 10
180.068
 20
75.6874
 30
0.0
 11
179.269
 21
75.6874
 31
0.0
  0
LINE
  8
0
 62
     0
 10
179.269
 20
75.6874
 30
0.0
 11
179.269
 21
78.788
 31
0.0
  0
LINE
  8
0
 62
     0
 10
179.269
 20
78.788
 30
0.0
 11
180.068
 21
78.788
 31
0.0
  0
LINE
  8
0
 62
     0
 10
180.068
 20
78.788
 30
0.0
 11
180.068
 21
79.7885
 31
0.0
  0
LINE
  8
0
 62
     0
 10
180.068
 20
79.7885
 30
0.0
 11
194.069
 21
79.7885
 31
0.0
  0
LINE
  8
0
 62
     0
 10
194.069
 20
79.7885
 30
0.0
 11
194.069
 21
78.788
 31
0.0
  0
LINE
  8
0
 62
     0
 10
194.069
 20
78.788
 30
0.0
 11
194.868
 21
78.788
 31
0.0
  0
LINE
  8
0
 62
     0
 10
194.868
 20
78.788
 30
0.0
 11
194.868
 21
75.6874
 31
0.0
  0
LINE
  8
0
 62
     0
 10
194.868
 20
75.6874
 30
0.0
 11
194.069
 21
75.6874
 31
0.0
  0
LINE
  8
0
 62
     0
 10
194.069
 20
75.6874
 30
0.0
 11
194.069
 21
69.8885
 31
0.0
  0
LINE
  8
0
 62
     0
 10
194.069
 20
69.8885
 30
0.0
 11
194.868
 21
69.8885
 31
0.0
  0
LINE
  8
0
 62
     0
 10
194.868
 20
69.8885
 30
0.0
 11
194.868
 21
66.7879
 31
0.0
  0
LINE
  8
0
 62
     0
 10
194.868
 20
66.7879
 30
0.0
 11
194.069
 21
66.7879
 31
0.0
  0
LINE
  8
0
 62
     0
 10
198.832
 20
47.7379
 30
0.0
 11
198.832
 21
46.7374
 31
0.0
  0
LINE
  8
0
 62
     0
 10
198.832
 20
46.7374
 30
0.0
 11
184.832
 21
46.7374
 31
0.0
  0
LINE
  8
0
 62
     0
 10
184.832
 20
46.7374
 30
0.0
 11
184.832
 21
47.7379
 31
0.0
  0
LINE
  8
0
 62
     0
 10
184.832
 20
47.7379
 30
0.0
 11
184.031
 21
47.7379
 31
0.0
  0
LINE
  8
0
 62
     0
 10
184.031
 20
47.7379
 30
0.0
 11
184.031
 21
50.8385
 31
0.0
  0
LINE
  8
0
 62
     0
 10
184.031
 20
50.8385
 30
0.0
 11
184.832
 21
50.8385
 31
0.0
  0
LINE
  8
0
 62
     0
 10
184.832
 20
50.8385
 30
0.0
 11
184.832
 21
56.6374
 31
0.0
  0
LINE
  8
0
 62
     0
 10
184.832
 20
56.6374
 30
0.0
 11
184.031
 21
56.6374
 31
0.0
  0
LINE
  8
0
 62
     0
 10
184.031
 20
56.6374
 30
0.0
 11
184.031
 21
59.738
 31
0.0
  0
LINE
  8
0
 62
     0
 10
184.031
 20
59.738
 30
0.0
 11
184.832
 21
59.738
 31
0.0
  0
LINE
  8
0
 62
     0
 10
184.832
 20
59.738
 30
0.0
 11
184.832
 21
60.7385
 31
0.0
  0
LINE
  8
0
 62
     0
 10
184.832
 20
60.7385
 30
0.0
 11
198.832
 21
60.7385
 31
0.0
  0
LINE
  8
0
 62
     0
 10
198.832
 20
60.7385
 30
0.0
 11
198.832
 21
59.738
 31
0.0
  0
LINE
  8
0
 62
     0
 10
198.832
 20
59.738
 30
0.0
 11
199.632
 21
59.738
 31
0.0
  0
LINE
  8
0
 62
     0
 10
199.632
 20
59.738
 30
0.0
 11
199.632
 21
56.6374
 31
0.0
  0
LINE
  8
0
 62
     0
 10
199.632
 20
56.6374
 30
0.0
 11
198.832
 21
56.6374
 31
0.0
  0
LINE
  8
0
 62
     0
 10
198.832
 20
56.6374
 30
0.0
 11
198.832
 21
50.8385
 31
0.0
  0
LINE
  8
0
 62
     0
 10
198.832
 20
50.8385
 30
0.0
 11
199.632
 21
50.8385
 31
0.0
  0
LINE
  8
0
 62
     0
 10
199.632
 20
50.8385
 30
0.0
 11
199.632
 21
47.7379
 31
0.0
  0
LINE
  8
0
 62
     0
 10
199.632
 20
47.7379
 30
0.0
 11
198.832
 21
47.7379
 31
0.0
  0
LINE
  8
0
 62
     0
 10
205.975
 20
9.63799
 30
0.0
 11
205.975
 21
8.63755
 31
0.0
  0
LINE
  8
0
 62
     0
 10
205.975
 20
8.63755
 30
0.0
 11
191.975
 21
8.63755
 31
0.0
  0
LINE
  8
0
 62
     0
 10
191.975
 20
8.63755
 30
0.0
 11
191.975
 21
9.63799
 31
0.0
  0
LINE
  8
0
 62
     0
 10
191.975
 20
9.63799
 30
0.0
 11
191.175
 21
9.63799
 31
0.0
  0
LINE
  8
0
 62
     0
 10
191.175
 20
9.63799
 30
0.0
 11
191.175
 21
12.7386
 31
0.0
  0
LINE
  8
0
 62
     0
 10
191.175
 20
12.7386
 30
0.0
 11
191.975
 21
12.7386
 31
0.0
  0
LINE
  8
0
 62
     0
 10
191.975
 20
12.7386
 30
0.0
 11
191.975
 21
18.5374
 31
0.0
  0
LINE
  8
0
 62
     0
 10
191.975
 20
18.5374
 30
0.0
 11
191.175
 21
18.5374
 31
0.0
  0
LINE
  8
0
 62
     0
 10
191.175
 20
18.5374
 30
0.0
 11
191.175
 21
21.6379
 31
0.0
  0
LINE
  8
0
 62
     0
 10
191.175
 20
21.6379
 30
0.0
 11
191.975
 21
21.6379
 31
0.0
  0
LINE
  8
0
 62
     0
 10
191.975
 20
21.6379
 30
0.0
 11
191.975
 21
22.6384
 31
0.0
  0
LINE
  8
0
 62
     0
 10
191.975
 20
22.6384
 30
0.0
 11
205.975
 21
22.6384
 31
0.0
  0
LINE
  8
0
 62
     0
 10
205.975
 20
22.6384
 30
0.0
 11
205.975
 21
21.6379
 31
0.0
  0
LINE
  8
0
 62
     0
 10
205.975
 20
21.6379
 30
0.0
 11
206.775
 21
21.6379
 31
0.0
  0
LINE
  8
0
 62
     0
 10
206.775
 20
21.6379
 30
0.0
 11
206.775
 21
18.5374
 31
0.0
  0
LINE
  8
0
 62
     0
 10
206.775
 20
18.5374
 30
0.0
 11
205.975
 21
18.5374
 31
0.0
  0
LINE
  8
0
 62
     0
 10
205.975
 20
18.5374
 30
0.0
 11
205.975
 21
12.7386
 31
0.0
  0
LINE
  8
0
 62
     0
 10
205.975
 20
12.7386
 30
0.0
 11
206.775
 21
12.7386
 31
0.0
  0
LINE
  8
0
 62
     0
 10
206.775
 20
12.7386
 30
0.0
 11
206.775
 21
9.63799
 31
0.0
  0
LINE
  8
0
 62
     0
 10
206.775
 20
9.63799
 30
0.0
 11
205.975
 21
9.63799
 31
0.0
  0
LINE
  8
0
 62
     0
 10
210.738
 20
28.688
 30
0.0
 11
210.738
 21
27.6876
 31
0.0
  0
LINE
  8
0
 62
     0
 10
210.738
 20
27.6876
 30
0.0
 11
196.739
 21
27.6876
 31
0.0
  0
LINE
  8
0
 62
     0
 10
196.739
 20
27.6876
 30
0.0
 11
196.739
 21
28.688
 31
0.0
  0
LINE
  8
0
 62
     0
 10
196.739
 20
28.688
 30
0.0
 11
195.938
 21
28.688
 31
0.0
  0
LINE
  8
0
 62
     0
 10
195.938
 20
28.688
 30
0.0
 11
195.938
 21
31.7886
 31
0.0
  0
LINE
  8
0
 62
     0
 10
195.938
 20
31.7886
 30
0.0
 11
196.739
 21
31.7886
 31
0.0
  0
LINE
  8
0
 62
     0
 10
196.739
 20
31.7886
 30
0.0
 11
196.739
 21
37.5874
 31
0.0
  0
LINE
  8
0
 62
     0
 10
196.739
 20
37.5874
 30
0.0
 11
195.938
 21
37.5874
 31
0.0
  0
LINE
  8
0
 62
     0
 10
195.938
 20
37.5874
 30
0.0
 11
195.938
 21
40.688
 31
0.0
  0
LINE
  8
0
 62
     0
 10
195.938
 20
40.688
 30
0.0
 11
196.739
 21
40.688
 31
0.0
  0
LINE
  8
0
 62
     0
 10
196.739
 20
40.688
 30
0.0
 11
196.739
 21
41.6885
 31
0.0
  0
LINE
  8
0
 62
     0
 10
196.739
 20
41.6885
 30
0.0
 11
210.738
 21
41.6885
 31
0.0
  0
LINE
  8
0
 62
     0
 10
210.738
 20
41.6885
 30
0.0
 11
210.738
 21
40.688
 31
0.0
  0
LINE
  8
0
 62
     0
 10
210.738
 20
40.688
 30
0.0
 11
211.537
 21
40.688
 31
0.0
  0
LINE
  8
0
 62
     0
 10
211.537
 20
40.688
 30
0.0
 11
211.537
 21
37.5874
 31
0.0
  0
LINE
  8
0
 62
     0
 10
211.537
 20
37.5874
 30
0.0
 11
210.738
 21
37.5874
 31
0.0
  0
LINE
  8
0
 62
     0
 10
210.738
 20
37.5874
 30
0.0
 11
210.738
 21
31.7886
 31
0.0
  0
LINE
  8
0
 62
     0
 10
210.738
 20
31.7886
 30
0.0
 11
211.537
 21
31.7886
 31
0.0
  0
LINE
  8
0
 62
     0
 10
211.537
 20
31.7886
 30
0.0
 11
211.537
 21
28.688
 31
0.0
  0
LINE
  8
0
 62
     0
 10
211.537
 20
28.688
 30
0.0
 11
210.738
 21
28.688
 31
0.0
  0
LINE
  8
0
 62
     0
 10
213.119
 20
66.7879
 30
0.0
 11
213.119
 21
65.7874
 31
0.0
  0
LINE
  8
0
 62
     0
 10
213.119
 20
65.7874
 30
0.0
 11
199.118
 21
65.7874
 31
0.0
  0
LINE
  8
0
 62
     0
 10
199.118
 20
65.7874
 30
0.0
 11
199.118
 21
66.7879
 31
0.0
  0
LINE
  8
0
 62
     0
 10
199.118
 20
66.7879
 30
0.0
 11
198.319
 21
66.7879
 31
0.0
  0
LINE
  8
0
 62
     0
 10
198.319
 20
66.7879
 30
0.0
 11
198.319
 21
69.8885
 31
0.0
  0
LINE
  8
0
 62
     0
 10
198.319
 20
69.8885
 30
0.0
 11
199.118
 21
69.8885
 31
0.0
  0
LINE
  8
0
 62
     0
 10
199.118
 20
69.8885
 30
0.0
 11
199.118
 21
75.6874
 31
0.0
  0
LINE
  8
0
 62
     0
 10
199.118
 20
75.6874
 30
0.0
 11
198.319
 21
75.6874
 31
0.0
  0
LINE
  8
0
 62
     0
 10
198.319
 20
75.6874
 30
0.0
 11
198.319
 21
78.788
 31
0.0
  0
LINE
  8
0
 62
     0
 10
198.319
 20
78.788
 30
0.0
 11
199.118
 21
78.788
 31
0.0
  0
LINE
  8
0
 62
     0
 10
199.118
 20
78.788
 30
0.0
 11
199.118
 21
79.7885
 31
0.0
  0
LINE
  8
0
 62
     0
 10
199.118
 20
79.7885
 30
0.0
 11
213.119
 21
79.7885
 31
0.0
  0
LINE
  8
0
 62
     0
 10
213.119
 20
79.7885
 30
0.0
 11
213.119
 21
78.788
 31
0.0
  0
LINE
  8
0
 62
     0
 10
213.119
 20
78.788
 30
0.0
 11
213.918
 21
78.788
 31
0.0
  0
LINE
  8
0
 62
     0
 10
213.918
 20
78.788
 30
0.0
 11
213.918
 21
75.6874
 31
0.0
  0
LINE
  8
0
 62
     0
 10
213.918
 20
75.6874
 30
0.0
 11
213.119
 21
75.6874
 31
0.0
  0
LINE
  8
0
 62
     0
 10
213.119
 20
75.6874
 30
0.0
 11
213.119
 21
69.8885
 31
0.0
  0
LINE
  8
0
 62
     0
 10
213.119
 20
69.8885
 30
0.0
 11
213.918
 21
69.8885
 31
0.0
  0
LINE
  8
0
 62
     0
 10
213.918
 20
69.8885
 30
0.0
 11
213.918
 21
66.7879
 31
0.0
  0
LINE
  8
0
 62
     0
 10
213.918
 20
66.7879
 30
0.0
 11
213.119
 21
66.7879
 31
0.0
  0
LINE
  8
0
 62
     0
 10
225.025
 20
47.7379
 30
0.0
 11
225.025
 21
46.7374
 31
0.0
  0
LINE
  8
0
 62
     0
 10
225.025
 20
46.7374
 30
0.0
 11
211.025
 21
46.7374
 31
0.0
  0
LINE
  8
0
 62
     0
 10
211.025
 20
46.7374
 30
0.0
 11
211.025
 21
47.7379
 31
0.0
  0
LINE
  8
0
 62
     0
 10
211.025
 20
47.7379
 30
0.0
 11
210.225
 21
47.7379
 31
0.0
  0
LINE
  8
0
 62
     0
 10
210.225
 20
47.7379
 30
0.0
 11
210.225
 21
50.8385
 31
0.0
  0
LINE
  8
0
 62
     0
 10
210.225
 20
50.8385
 30
0.0
 11
211.025
 21
50.8385
 31
0.0
  0
LINE
  8
0
 62
     0
 10
211.025
 20
50.8385
 30
0.0
 11
211.025
 21
56.6374
 31
0.0
  0
LINE
  8
0
 62
     0
 10
211.025
 20
56.6374
 30
0.0
 11
210.225
 21
56.6374
 31
0.0
  0
LINE
  8
0
 62
     0
 10
210.225
 20
56.6374
 30
0.0
 11
210.225
 21
59.738
 31
0.0
  0
LINE
  8
0
 62
     0
 10
210.225
 20
59.738
 30
0.0
 11
211.025
 21
59.738
 31
0.0
  0
LINE
  8
0
 62
     0
 10
211.025
 20
59.738
 30
0.0
 11
211.025
 21
60.7385
 31
0.0
  0
LINE
  8
0
 62
     0
 10
211.025
 20
60.7385
 30
0.0
 11
225.025
 21
60.7385
 31
0.0
  0
LINE
  8
0
 62
     0
 10
225.025
 20
60.7385
 30
0.0
 11
225.025
 21
59.738
 31
0.0
  0
LINE
  8
0
 62
     0
 10
225.025
 20
59.738
 30
0.0
 11
225.825
 21
59.738
 31
0.0
  0
LINE
  8
0
 62
     0
 10
225.825
 20
59.738
 30
0.0
 11
225.825
 21
56.6374
 31
0.0
  0
LINE
  8
0
 62
     0
 10
225.825
 20
56.6374
 30
0.0
 11
225.025
 21
56.6374
 31
0.0
  0
LINE
  8
0
 62
     0
 10
225.025
 20
56.6374
 30
0.0
 11
225.025
 21
50.8385
 31
0.0
  0
LINE
  8
0
 62
     0
 10
225.025
 20
50.8385
 30
0.0
 11
225.825
 21
50.8385
 31
0.0
  0
LINE
  8
0
 62
     0
 10
225.825
 20
50.8385
 30
0.0
 11
225.825
 21
47.7379
 31
0.0
  0
LINE
  8
0
 62
     0
 10
225.825
 20
47.7379
 30
0.0
 11
225.025
 21
47.7379
 31
0.0
  0
LINE
  8
0
 62
     0
 10
229.788
 20
9.63799
 30
0.0
 11
229.788
 21
8.63755
 31
0.0
  0
LINE
  8
0
 62
     0
 10
229.788
 20
8.63755
 30
0.0
 11
215.789
 21
8.63755
 31
0.0
  0
LINE
  8
0
 62
     0
 10
215.789
 20
8.63755
 30
0.0
 11
215.789
 21
9.63799
 31
0.0
  0
LINE
  8
0
 62
     0
 10
215.789
 20
9.63799
 30
0.0
 11
214.988
 21
9.63799
 31
0.0
  0
LINE
  8
0
 62
     0
 10
214.988
 20
9.63799
 30
0.0
 11
214.988
 21
12.7386
 31
0.0
  0
LINE
  8
0
 62
     0
 10
214.988
 20
12.7386
 30
0.0
 11
215.789
 21
12.7386
 31
0.0
  0
LINE
  8
0
 62
     0
 10
215.789
 20
12.7386
 30
0.0
 11
215.789
 21
18.5374
 31
0.0
  0
LINE
  8
0
 62
     0
 10
215.789
 20
18.5374
 30
0.0
 11
214.988
 21
18.5374
 31
0.0
  0
LINE
  8
0
 62
     0
 10
214.988
 20
18.5374
 30
0.0
 11
214.988
 21
21.6379
 31
0.0
  0
LINE
  8
0
 62
     0
 10
214.988
 20
21.6379
 30
0.0
 11
215.789
 21
21.6379
 31
0.0
  0
LINE
  8
0
 62
     0
 10
215.789
 20
21.6379
 30
0.0
 11
215.789
 21
22.6384
 31
0.0
  0
LINE
  8
0
 62
     0
 10
215.789
 20
22.6384
 30
0.0
 11
229.788
 21
22.6384
 31
0.0
  0
LINE
  8
0
 62
     0
 10
229.788
 20
22.6384
 30
0.0
 11
229.788
 21
21.6379
 31
0.0
  0
LINE
  8
0
 62
     0
 10
229.788
 20
21.6379
 30
0.0
 11
230.587
 21
21.6379
 31
0.0
  0
LINE
  8
0
 62
     0
 10
230.587
 20
21.6379
 30
0.0
 11
230.587
 21
18.5374
 31
0.0
  0
LINE
  8
0
 62
     0
 10
230.587
 20
18.5374
 30
0.0
 11
229.788
 21
18.5374
 31
0.0
  0
LINE
  8
0
 62
     0
 10
229.788
 20
18.5374
 30
0.0
 11
229.788
 21
12.7386
 31
0.0
  0
LINE
  8
0
 62
     0
 10
229.788
 20
12.7386
 30
0.0
 11
230.587
 21
12.7386
 31
0.0
  0
LINE
  8
0
 62
     0
 10
230.587
 20
12.7386
 30
0.0
 11
230.587
 21
9.63799
 31
0.0
  0
LINE
  8
0
 62
     0
 10
230.587
 20
9.63799
 30
0.0
 11
229.788
 21
9.63799
 31
0.0
  0
LINE
  8
0
 62
     0
 10
232.169
 20
66.7879
 30
0.0
 11
232.169
 21
65.7874
 31
0.0
  0
LINE
  8
0
 62
     0
 10
232.169
 20
65.7874
 30
0.0
 11
218.168
 21
65.7874
 31
0.0
  0
LINE
  8
0
 62
     0
 10
218.168
 20
65.7874
 30
0.0
 11
218.168
 21
66.7879
 31
0.0
  0
LINE
  8
0
 62
     0
 10
218.168
 20
66.7879
 30
0.0
 11
217.369
 21
66.7879
 31
0.0
  0
LINE
  8
0
 62
     0
 10
217.369
 20
66.7879
 30
0.0
 11
217.369
 21
69.8885
 31
0.0
  0
LINE
  8
0
 62
     0
 10
217.369
 20
69.8885
 30
0.0
 11
218.168
 21
69.8885
 31
0.0
  0
LINE
  8
0
 62
     0
 10
218.168
 20
69.8885
 30
0.0
 11
218.168
 21
75.6874
 31
0.0
  0
LINE
  8
0
 62
     0
 10
218.168
 20
75.6874
 30
0.0
 11
217.369
 21
75.6874
 31
0.0
  0
LINE
  8
0
 62
     0
 10
217.369
 20
75.6874
 30
0.0
 11
217.369
 21
78.788
 31
0.0
  0
LINE
  8
0
 62
     0
 10
217.369
 20
78.788
 30
0.0
 11
218.168
 21
78.788
 31
0.0
  0
LINE
  8
0
 62
     0
 10
218.168
 20
78.788
 30
0.0
 11
218.168
 21
79.7885
 31
0.0
  0
LINE
  8
0
 62
     0
 10
218.168
 20
79.7885
 30
0.0
 11
232.169
 21
79.7885
 31
0.0
  0
LINE
  8
0
 62
     0
 10
232.169
 20
79.7885
 30
0.0
 11
232.169
 21
78.788
 31
0.0
  0
LINE
  8
0
 62
     0
 10
232.169
 20
78.788
 30
0.0
 11
232.968
 21
78.788
 31
0.0
  0
LINE
  8
0
 62
     0
 10
232.968
 20
78.788
 30
0.0
 11
232.968
 21
75.6874
 31
0.0
  0
LINE
  8
0
 62
     0
 10
232.968
 20
75.6874
 30
0.0
 11
232.169
 21
75.6874
 31
0.0
  0
LINE
  8
0
 62
     0
 10
232.169
 20
75.6874
 30
0.0
 11
232.169
 21
69.8885
 31
0.0
  0
LINE
  8
0
 62
     0
 10
232.169
 20
69.8885
 30
0.0
 11
232.968
 21
69.8885
 31
0.0
  0
LINE
  8
0
 62
     0
 10
232.968
 20
69.8885
 30
0.0
 11
232.968
 21
66.7879
 31
0.0
  0
LINE
  8
0
 62
     0
 10
232.968
 20
66.7879
 30
0.0
 11
232.169
 21
66.7879
 31
0.0
  0
LINE
  8
0
 62
     0
 10
232.169
 20
28.688
 30
0.0
 11
232.169
 21
27.6876
 31
0.0
  0
LINE
  8
0
 62
     0
 10
232.169
 20
27.6876
 30
0.0
 11
218.168
 21
27.6876
 31
0.0
  0
LINE
  8
0
 62
     0
 10
218.168
 20
27.6876
 30
0.0
 11
218.168
 21
28.688
 31
0.0
  0
LINE
  8
0
 62
     0
 10
218.168
 20
28.688
 30
0.0
 11
217.369
 21
28.688
 31
0.0
  0
LINE
  8
0
 62
     0
 10
217.369
 20
28.688
 30
0.0
 11
217.369
 21
31.7886
 31
0.0
  0
LINE
  8
0
 62
     0
 10
217.369
 20
31.7886
 30
0.0
 11
218.168
 21
31.7886
 31
0.0
  0
LINE
  8
0
 62
     0
 10
218.168
 20
31.7886
 30
0.0
 11
218.168
 21
37.5874
 31
0.0
  0
LINE
  8
0
 62
     0
 10
218.168
 20
37.5874
 30
0.0
 11
217.369
 21
37.5874
 31
0.0
  0
LINE
  8
0
 62
     0
 10
217.369
 20
37.5874
 30
0.0
 11
217.369
 21
40.688
 31
0.0
  0
LINE
  8
0
 62
     0
 10
217.369
 20
40.688
 30
0.0
 11
218.168
 21
40.688
 31
0.0
  0
LINE
  8
0
 62
     0
 10
218.168
 20
40.688
 30
0.0
 11
218.168
 21
41.6885
 31
0.0
  0
LINE
  8
0
 62
     0
 10
218.168
 20
41.6885
 30
0.0
 11
232.169
 21
41.6885
 31
0.0
  0
LINE
  8
0
 62
     0
 10
232.169
 20
41.6885
 30
0.0
 11
232.169
 21
40.688
 31
0.0
  0
LINE
  8
0
 62
     0
 10
232.169
 20
40.688
 30
0.0
 11
232.968
 21
40.688
 31
0.0
  0
LINE
  8
0
 62
     0
 10
232.968
 20
40.688
 30
0.0
 11
232.968
 21
37.5874
 31
0.0
  0
LINE
  8
0
 62
     0
 10
232.968
 20
37.5874
 30
0.0
 11
232.169
 21
37.5874
 31
0.0
  0
LINE
  8
0
 62
     0
 10
232.169
 20
37.5874
 30
0.0
 11
232.169
 21
31.7886
 31
0.0
  0
LINE
  8
0
 62
     0
 10
232.169
 20
31.7886
 30
0.0
 11
232.968
 21
31.7886
 31
0.0
  0
LINE
  8
0
 62
     0
 10
232.968
 20
31.7886
 30
0.0
 11
232.968
 21
28.688
 31
0.0
  0
LINE
  8
0
 62
     0
 10
232.968
 20
28.688
 30
0.0
 11
232.169
 21
28.688
 31
0.0
  0
LINE
  8
0
 62
     0
 10
260.744
 20
22.6384
 30
0.0
 11
260.744
 21
21.6379
 31
0.0
  0
LINE
  8
0
 62
     0
 10
260.744
 20
21.6379
 30
0.0
 11
261.543
 21
21.6379
 31
0.0
  0
LINE
  8
0
 62
     0
 10
261.543
 20
21.6379
 30
0.0
 11
261.543
 21
18.5374
 31
0.0
  0
LINE
  8
0
 62
     0
 10
261.543
 20
18.5374
 30
0.0
 11
260.744
 21
18.5374
 31
0.0
  0
LINE
  8
0
 62
     0
 10
260.744
 20
18.5374
 30
0.0
 11
260.744
 21
12.7386
 31
0.0
  0
LINE
  8
0
 62
     0
 10
260.744
 20
12.7386
 30
0.0
 11
261.543
 21
12.7386
 31
0.0
  0
LINE
  8
0
 62
     0
 10
261.543
 20
12.7386
 30
0.0
 11
261.543
 21
9.63799
 31
0.0
  0
LINE
  8
0
 62
     0
 10
261.543
 20
9.63799
 30
0.0
 11
260.744
 21
9.63799
 31
0.0
  0
LINE
  8
0
 62
     0
 10
260.744
 20
9.63799
 30
0.0
 11
260.744
 21
8.63755
 31
0.0
  0
LINE
  8
0
 62
     0
 10
260.744
 20
8.63755
 30
0.0
 11
246.743
 21
8.63755
 31
0.0
  0
LINE
  8
0
 62
     0
 10
246.743
 20
8.63755
 30
0.0
 11
246.743
 21
9.63799
 31
0.0
  0
LINE
  8
0
 62
     0
 10
246.743
 20
9.63799
 30
0.0
 11
245.944
 21
9.63799
 31
0.0
  0
LINE
  8
0
 62
     0
 10
245.944
 20
9.63799
 30
0.0
 11
245.944
 21
12.7386
 31
0.0
  0
LINE
  8
0
 62
     0
 10
245.944
 20
12.7386
 30
0.0
 11
246.743
 21
12.7386
 31
0.0
  0
LINE
  8
0
 62
     0
 10
246.743
 20
12.7386
 30
0.0
 11
246.743
 21
18.5374
 31
0.0
  0
LINE
  8
0
 62
     0
 10
246.743
 20
18.5374
 30
0.0
 11
245.944
 21
18.5374
 31
0.0
  0
LINE
  8
0
 62
     0
 10
245.944
 20
18.5374
 30
0.0
 11
245.944
 21
21.6379
 31
0.0
  0
LINE
  8
0
 62
     0
 10
245.944
 20
21.6379
 30
0.0
 11
246.743
 21
21.6379
 31
0.0
  0
LINE
  8
0
 62
     0
 10
246.743
 20
21.6379
 30
0.0
 11
246.743
 21
22.6384
 31
0.0
  0
LINE
  8
0
 62
     0
 10
246.743
 20
22.6384
 30
0.0
 11
260.744
 21
22.6384
 31
0.0
  0
LINE
  8
0
 62
     0
 10
279.794
 20
22.6384
 30
0.0
 11
279.794
 21
21.6379
 31
0.0
  0
LINE
  8
0
 62
     0
 10
279.794
 20
21.6379
 30
0.0
 11
280.593
 21
21.6379
 31
0.0
  0
LINE
  8
0
 62
     0
 10
280.593
 20
21.6379
 30
0.0
 11
280.593
 21
18.5374
 31
0.0
  0
LINE
  8
0
 62
     0
 10
280.593
 20
18.5374
 30
0.0
 11
279.794
 21
18.5374
 31
0.0
  0
LINE
  8
0
 62
     0
 10
279.794
 20
18.5374
 30
0.0
 11
279.794
 21
12.7386
 31
0.0
  0
LINE
  8
0
 62
     0
 10
279.794
 20
12.7386
 30
0.0
 11
280.593
 21
12.7386
 31
0.0
  0
LINE
  8
0
 62
     0
 10
280.593
 20
12.7386
 30
0.0
 11
280.593
 21
9.63799
 31
0.0
  0
LINE
  8
0
 62
     0
 10
280.593
 20
9.63799
 30
0.0
 11
279.794
 21
9.63799
 31
0.0
  0
LINE
  8
0
 62
     0
 10
279.794
 20
9.63799
 30
0.0
 11
279.794
 21
8.63755
 31
0.0
  0
LINE
  8
0
 62
     0
 10
279.794
 20
8.63755
 30
0.0
 11
265.793
 21
8.63755
 31
0.0
  0
LINE
  8
0
 62
     0
 10
265.793
 20
8.63755
 30
0.0
 11
265.793
 21
9.63799
 31
0.0
  0
LINE
  8
0
 62
     0
 10
265.793
 20
9.63799
 30
0.0
 11
264.994
 21
9.63799
 31
0.0
  0
LINE
  8
0
 62
     0
 10
264.994
 20
9.63799
 30
0.0
 11
264.994
 21
12.7386
 31
0.0
  0
LINE
  8
0
 62
     0
 10
264.994
 20
12.7386
 30
0.0
 11
265.793
 21
12.7386
 31
0.0
  0
LINE
  8
0
 62
     0
 10
265.793
 20
12.7386
 30
0.0
 11
265.793
 21
18.5374
 31
0.0
  0
LINE
  8
0
 62
     0
 10
265.793
 20
18.5374
 30
0.0
 11
264.994
 21
18.5374
 31
0.0
  0
LINE
  8
0
 62
     0
 10
264.994
 20
18.5374
 30
0.0
 11
264.994
 21
21.6379
 31
0.0
  0
LINE
  8
0
 62
     0
 10
264.994
 20
21.6379
 30
0.0
 11
265.793
 21
21.6379
 31
0.0
  0
LINE
  8
0
 62
     0
 10
265.793
 20
21.6379
 30
0.0
 11
265.793
 21
22.6384
 31
0.0
  0
LINE
  8
0
 62
     0
 10
265.793
 20
22.6384
 30
0.0
 11
279.794
 21
22.6384
 31
0.0
  0
LINE
  8
0
 62
     0
 10
298.844
 20
22.6384
 30
0.0
 11
298.844
 21
21.6379
 31
0.0
  0
LINE
  8
0
 62
     0
 10
298.844
 20
21.6379
 30
0.0
 11
299.643
 21
21.6379
 31
0.0
  0
LINE
  8
0
 62
     0
 10
299.643
 20
21.6379
 30
0.0
 11
299.643
 21
18.5374
 31
0.0
  0
LINE
  8
0
 62
     0
 10
299.643
 20
18.5374
 30
0.0
 11
298.844
 21
18.5374
 31
0.0
  0
LINE
  8
0
 62
     0
 10
298.844
 20
18.5374
 30
0.0
 11
298.844
 21
12.7386
 31
0.0
  0
LINE
  8
0
 62
     0
 10
298.844
 20
12.7386
 30
0.0
 11
299.643
 21
12.7386
 31
0.0
  0
LINE
  8
0
 62
     0
 10
299.643
 20
12.7386
 30
0.0
 11
299.643
 21
9.63799
 31
0.0
  0
LINE
  8
0
 62
     0
 10
299.643
 20
9.63799
 30
0.0
 11
298.844
 21
9.63799
 31
0.0
  0
LINE
  8
0
 62
     0
 10
298.844
 20
9.63799
 30
0.0
 11
298.844
 21
8.63755
 31
0.0
  0
LINE
  8
0
 62
     0
 10
298.844
 20
8.63755
 30
0.0
 11
284.843
 21
8.63755
 31
0.0
  0
LINE
  8
0
 62
     0
 10
284.843
 20
8.63755
 30
0.0
 11
284.843
 21
9.63799
 31
0.0
  0
LINE
  8
0
 62
     0
 10
284.843
 20
9.63799
 30
0.0
 11
284.044
 21
9.63799
 31
0.0
  0
LINE
  8
0
 62
     0
 10
284.044
 20
9.63799
 30
0.0
 11
284.044
 21
12.7386
 31
0.0
  0
LINE
  8
0
 62
     0
 10
284.044
 20
12.7386
 30
0.0
 11
284.843
 21
12.7386
 31
0.0
  0
LINE
  8
0
 62
     0
 10
284.843
 20
12.7386
 30
0.0
 11
284.843
 21
18.5374
 31
0.0
  0
LINE
  8
0
 62
     0
 10
284.843
 20
18.5374
 30
0.0
 11
284.044
 21
18.5374
 31
0.0
  0
LINE
  8
0
 62
     0
 10
284.044
 20
18.5374
 30
0.0
 11
284.044
 21
21.6379
 31
0.0
  0
LINE
  8
0
 62
     0
 10
284.044
 20
21.6379
 30
0.0
 11
284.843
 21
21.6379
 31
0.0
  0
LINE
  8
0
 62
     0
 10
284.843
 20
21.6379
 30
0.0
 11
284.843
 21
22.6384
 31
0.0
  0
LINE
  8
0
 62
     0
 10
284.843
 20
22.6384
 30
0.0
 11
298.844
 21
22.6384
 31
0.0
  0
ENDSEC
  0
EOF
